%TF.GenerationSoftware,KiCad,Pcbnew,7.0.7*%
%TF.CreationDate,2024-07-07T09:26:09+01:00*%
%TF.ProjectId,PCB,5043422e-6b69-4636-9164-5f7063625858,rev?*%
%TF.SameCoordinates,Original*%
%TF.FileFunction,Legend,Bot*%
%TF.FilePolarity,Positive*%
%FSLAX46Y46*%
G04 Gerber Fmt 4.6, Leading zero omitted, Abs format (unit mm)*
G04 Created by KiCad (PCBNEW 7.0.7) date 2024-07-07 09:26:09*
%MOMM*%
%LPD*%
G01*
G04 APERTURE LIST*
G04 APERTURE END LIST*
%TO.C,G\u002A\u002A\u002A*%
G36*
X161829423Y-112262762D02*
G01*
X161763959Y-112328226D01*
X161698495Y-112262762D01*
X161763959Y-112197299D01*
X161829423Y-112262762D01*
G37*
G36*
X161698495Y-111739051D02*
G01*
X161633031Y-111804515D01*
X161567567Y-111739051D01*
X161633031Y-111673587D01*
X161698495Y-111739051D01*
G37*
G36*
X159996433Y-94849360D02*
G01*
X159930970Y-94914824D01*
X159865506Y-94849360D01*
X159930970Y-94783896D01*
X159996433Y-94849360D01*
G37*
G36*
X159734578Y-114750391D02*
G01*
X159669114Y-114815855D01*
X159603650Y-114750391D01*
X159669114Y-114684927D01*
X159734578Y-114750391D01*
G37*
G36*
X159210866Y-113441113D02*
G01*
X159145402Y-113506577D01*
X159079939Y-113441113D01*
X159145402Y-113375649D01*
X159210866Y-113441113D01*
G37*
G36*
X156854165Y-116583381D02*
G01*
X156788701Y-116648845D01*
X156723238Y-116583381D01*
X156788701Y-116517917D01*
X156854165Y-116583381D01*
G37*
G36*
X155937671Y-122867917D02*
G01*
X155872207Y-122933381D01*
X155806743Y-122867917D01*
X155872207Y-122802453D01*
X155937671Y-122867917D01*
G37*
G36*
X150700557Y-121427711D02*
G01*
X150635093Y-121493175D01*
X150569629Y-121427711D01*
X150635093Y-121362247D01*
X150700557Y-121427711D01*
G37*
G36*
X150307774Y-93671010D02*
G01*
X150242310Y-93736474D01*
X150176846Y-93671010D01*
X150242310Y-93605546D01*
X150307774Y-93671010D01*
G37*
G36*
X149522207Y-107680288D02*
G01*
X149456743Y-107745752D01*
X149391279Y-107680288D01*
X149456743Y-107614824D01*
X149522207Y-107680288D01*
G37*
G36*
X148343856Y-108334927D02*
G01*
X148278392Y-108400391D01*
X148212928Y-108334927D01*
X148278392Y-108269463D01*
X148343856Y-108334927D01*
G37*
G36*
X145856227Y-89743175D02*
G01*
X145790763Y-89808639D01*
X145725299Y-89743175D01*
X145790763Y-89677711D01*
X145856227Y-89743175D01*
G37*
G36*
X144023238Y-99431835D02*
G01*
X143957774Y-99497299D01*
X143892310Y-99431835D01*
X143957774Y-99366371D01*
X144023238Y-99431835D01*
G37*
G36*
X143630454Y-128759670D02*
G01*
X143564990Y-128825134D01*
X143499526Y-128759670D01*
X143564990Y-128694206D01*
X143630454Y-128759670D01*
G37*
G36*
X142975815Y-77959670D02*
G01*
X142910351Y-78025134D01*
X142844887Y-77959670D01*
X142910351Y-77894206D01*
X142975815Y-77959670D01*
G37*
G36*
X142713959Y-83589567D02*
G01*
X142648495Y-83655030D01*
X142583031Y-83589567D01*
X142648495Y-83524103D01*
X142713959Y-83589567D01*
G37*
G36*
X140750042Y-91838020D02*
G01*
X140684578Y-91903484D01*
X140619114Y-91838020D01*
X140684578Y-91772556D01*
X140750042Y-91838020D01*
G37*
G36*
X139309835Y-83720494D02*
G01*
X139244372Y-83785958D01*
X139178908Y-83720494D01*
X139244372Y-83655030D01*
X139309835Y-83720494D01*
G37*
G36*
X138393341Y-83589567D02*
G01*
X138327877Y-83655030D01*
X138262413Y-83589567D01*
X138327877Y-83524103D01*
X138393341Y-83589567D01*
G37*
G36*
X133025299Y-80185443D02*
G01*
X132959835Y-80250907D01*
X132894372Y-80185443D01*
X132959835Y-80119979D01*
X133025299Y-80185443D01*
G37*
G36*
X131977877Y-78221525D02*
G01*
X131912413Y-78286989D01*
X131846949Y-78221525D01*
X131912413Y-78156061D01*
X131977877Y-78221525D01*
G37*
G36*
X125038701Y-89743175D02*
G01*
X124973238Y-89808639D01*
X124907774Y-89743175D01*
X124973238Y-89677711D01*
X125038701Y-89743175D01*
G37*
G36*
X124384062Y-108465855D02*
G01*
X124318598Y-108531319D01*
X124253134Y-108465855D01*
X124318598Y-108400391D01*
X124384062Y-108465855D01*
G37*
G36*
X122812928Y-112655546D02*
G01*
X122747464Y-112721010D01*
X122682000Y-112655546D01*
X122747464Y-112590082D01*
X122812928Y-112655546D01*
G37*
G36*
X119539732Y-112524618D02*
G01*
X119474268Y-112590082D01*
X119408805Y-112524618D01*
X119474268Y-112459154D01*
X119539732Y-112524618D01*
G37*
G36*
X118623238Y-121820494D02*
G01*
X118557774Y-121885958D01*
X118492310Y-121820494D01*
X118557774Y-121755030D01*
X118623238Y-121820494D01*
G37*
G36*
X118230454Y-121558639D02*
G01*
X118164990Y-121624103D01*
X118099526Y-121558639D01*
X118164990Y-121493175D01*
X118230454Y-121558639D01*
G37*
G36*
X118230454Y-83196783D02*
G01*
X118164990Y-83262247D01*
X118099526Y-83196783D01*
X118164990Y-83131319D01*
X118230454Y-83196783D01*
G37*
G36*
X117837671Y-120904000D02*
G01*
X117772207Y-120969463D01*
X117706743Y-120904000D01*
X117772207Y-120838536D01*
X117837671Y-120904000D01*
G37*
G36*
X114695402Y-112655546D02*
G01*
X114629939Y-112721010D01*
X114564475Y-112655546D01*
X114629939Y-112590082D01*
X114695402Y-112655546D01*
G37*
G36*
X114171691Y-109513278D02*
G01*
X114106227Y-109578742D01*
X114040763Y-109513278D01*
X114106227Y-109447814D01*
X114171691Y-109513278D01*
G37*
G36*
X112207774Y-114619463D02*
G01*
X112142310Y-114684927D01*
X112076846Y-114619463D01*
X112142310Y-114554000D01*
X112207774Y-114619463D01*
G37*
G36*
X111814990Y-96158639D02*
G01*
X111749526Y-96224103D01*
X111684062Y-96158639D01*
X111749526Y-96093175D01*
X111814990Y-96158639D01*
G37*
G36*
X109458289Y-113572041D02*
G01*
X109392825Y-113637505D01*
X109327361Y-113572041D01*
X109392825Y-113506577D01*
X109458289Y-113572041D01*
G37*
G36*
X109196433Y-114881319D02*
G01*
X109130970Y-114946783D01*
X109065506Y-114881319D01*
X109130970Y-114815855D01*
X109196433Y-114881319D01*
G37*
G36*
X155544887Y-117958123D02*
G01*
X155535438Y-118027436D01*
X155457602Y-118045408D01*
X155441932Y-118026219D01*
X155457602Y-117870838D01*
X155496983Y-117850355D01*
X155544887Y-117958123D01*
G37*
G36*
X155283031Y-118350907D02*
G01*
X155273583Y-118420220D01*
X155195746Y-118438192D01*
X155180077Y-118419002D01*
X155195746Y-118263622D01*
X155235127Y-118243138D01*
X155283031Y-118350907D01*
G37*
G36*
X152435351Y-109099247D02*
G01*
X152457560Y-109144710D01*
X152271691Y-109165286D01*
X152091584Y-109147035D01*
X152108031Y-109099247D01*
X152167296Y-109081955D01*
X152435351Y-109099247D01*
G37*
G36*
X152228049Y-103861560D02*
G01*
X152248532Y-103900940D01*
X152140763Y-103948845D01*
X152071451Y-103939396D01*
X152053478Y-103861560D01*
X152072668Y-103845890D01*
X152228049Y-103861560D01*
G37*
G36*
X151835265Y-106349189D02*
G01*
X151855748Y-106388569D01*
X151747980Y-106436474D01*
X151678667Y-106427025D01*
X151660695Y-106349189D01*
X151679884Y-106333519D01*
X151835265Y-106349189D01*
G37*
G36*
X151257000Y-107266258D02*
G01*
X151279210Y-107311720D01*
X151093341Y-107332296D01*
X150913233Y-107314045D01*
X150929681Y-107266258D01*
X150988946Y-107248965D01*
X151257000Y-107266258D01*
G37*
G36*
X149216708Y-107789395D02*
G01*
X149237192Y-107828776D01*
X149129423Y-107876680D01*
X149060110Y-107867231D01*
X149042138Y-107789395D01*
X149061328Y-107773725D01*
X149216708Y-107789395D01*
G37*
G36*
X148300213Y-111848158D02*
G01*
X148320697Y-111887538D01*
X148212928Y-111935443D01*
X148143615Y-111925994D01*
X148125643Y-111848158D01*
X148144833Y-111832488D01*
X148300213Y-111848158D01*
G37*
G36*
X145463444Y-101984927D02*
G01*
X145453995Y-102054240D01*
X145376159Y-102072213D01*
X145360489Y-102053023D01*
X145376159Y-101897642D01*
X145415539Y-101877159D01*
X145463444Y-101984927D01*
G37*
G36*
X130406743Y-86797299D02*
G01*
X130397294Y-86866611D01*
X130319457Y-86884584D01*
X130303788Y-86865394D01*
X130319457Y-86710013D01*
X130358838Y-86689530D01*
X130406743Y-86797299D01*
G37*
G36*
X125955196Y-119791113D02*
G01*
X125945748Y-119860426D01*
X125867911Y-119878398D01*
X125852242Y-119859208D01*
X125867911Y-119703828D01*
X125907292Y-119683345D01*
X125955196Y-119791113D01*
G37*
G36*
X124253134Y-109709670D02*
G01*
X124243686Y-109778982D01*
X124165849Y-109796955D01*
X124150180Y-109777765D01*
X124165849Y-109622384D01*
X124205230Y-109601901D01*
X124253134Y-109709670D01*
G37*
G36*
X121929165Y-115645639D02*
G01*
X121951375Y-115691102D01*
X121765506Y-115711677D01*
X121585398Y-115693427D01*
X121601846Y-115645639D01*
X121661111Y-115628346D01*
X121929165Y-115645639D01*
G37*
G36*
X120805368Y-110931663D02*
G01*
X120825851Y-110971044D01*
X120718083Y-111018948D01*
X120648770Y-111009499D01*
X120630798Y-110931663D01*
X120649987Y-110915993D01*
X120805368Y-110931663D01*
G37*
G36*
X120412585Y-114728570D02*
G01*
X120433068Y-114767951D01*
X120325299Y-114815855D01*
X120255987Y-114806406D01*
X120238014Y-114728570D01*
X120257204Y-114712901D01*
X120412585Y-114728570D01*
G37*
G36*
X120281657Y-82520323D02*
G01*
X120302140Y-82559703D01*
X120194372Y-82607608D01*
X120125059Y-82598159D01*
X120107086Y-82520323D01*
X120126276Y-82504653D01*
X120281657Y-82520323D01*
G37*
G36*
X118579595Y-121536817D02*
G01*
X118600078Y-121576198D01*
X118492310Y-121624103D01*
X118422997Y-121614654D01*
X118405024Y-121536817D01*
X118424214Y-121521148D01*
X118579595Y-121536817D01*
G37*
G36*
X116877533Y-119965683D02*
G01*
X116898016Y-120005064D01*
X116790248Y-120052969D01*
X116720935Y-120043520D01*
X116702963Y-119965683D01*
X116722152Y-119950014D01*
X116877533Y-119965683D01*
G37*
G36*
X113866193Y-115252281D02*
G01*
X113886676Y-115291662D01*
X113778908Y-115339567D01*
X113709595Y-115330118D01*
X113691622Y-115252281D01*
X113710812Y-115236612D01*
X113866193Y-115252281D01*
G37*
G36*
X109152791Y-113550219D02*
G01*
X109173274Y-113589600D01*
X109065506Y-113637505D01*
X108996193Y-113628056D01*
X108978220Y-113550219D01*
X108997410Y-113534550D01*
X109152791Y-113550219D01*
G37*
G36*
X152918935Y-120443693D02*
G01*
X152791611Y-120581794D01*
X152628252Y-120676424D01*
X152550436Y-120677517D01*
X152667101Y-120508052D01*
X152777290Y-120406450D01*
X152908464Y-120384243D01*
X152918935Y-120443693D01*
G37*
G36*
X148818447Y-107911609D02*
G01*
X148734014Y-108076236D01*
X148627039Y-108180596D01*
X148508480Y-108215874D01*
X148488009Y-108121034D01*
X148588873Y-107958488D01*
X148760398Y-107876680D01*
X148818447Y-107911609D01*
G37*
G36*
X116473355Y-121070340D02*
G01*
X116665442Y-121133235D01*
X116729017Y-121224469D01*
X116610785Y-121304701D01*
X116379628Y-121295819D01*
X116218660Y-121164475D01*
X116242468Y-121070227D01*
X116473355Y-121070340D01*
G37*
G36*
X155314326Y-104738217D02*
G01*
X155413959Y-104865340D01*
X155410155Y-104896635D01*
X155283031Y-104996268D01*
X155251736Y-104992463D01*
X155152104Y-104865340D01*
X155155908Y-104834045D01*
X155283031Y-104734412D01*
X155314326Y-104738217D01*
G37*
G36*
X151913280Y-106980192D02*
G01*
X151944372Y-107091113D01*
X151917537Y-107130724D01*
X151813444Y-107222041D01*
X151794506Y-107215880D01*
X151682516Y-107091113D01*
X151672030Y-107021769D01*
X151813444Y-106960185D01*
X151913280Y-106980192D01*
G37*
G36*
X147671575Y-108291834D02*
G01*
X147951073Y-108400391D01*
X148004029Y-108437580D01*
X148044557Y-108510971D01*
X147901337Y-108498575D01*
X147623753Y-108400391D01*
X147479994Y-108318054D01*
X147558289Y-108280671D01*
X147671575Y-108291834D01*
G37*
G36*
X137115357Y-79076361D02*
G01*
X137214990Y-79203484D01*
X137211185Y-79234779D01*
X137084062Y-79334412D01*
X137052767Y-79330607D01*
X136953134Y-79203484D01*
X136956939Y-79172189D01*
X137084062Y-79072556D01*
X137115357Y-79076361D01*
G37*
G36*
X130438038Y-83527907D02*
G01*
X130537671Y-83655030D01*
X130533866Y-83686326D01*
X130406743Y-83785958D01*
X130375448Y-83782154D01*
X130275815Y-83655030D01*
X130279620Y-83623735D01*
X130406743Y-83524103D01*
X130438038Y-83527907D01*
G37*
G36*
X126533991Y-112469434D02*
G01*
X126544372Y-112590082D01*
X126517499Y-112629264D01*
X126405717Y-112721010D01*
X126392650Y-112717606D01*
X126347980Y-112590082D01*
X126353308Y-112554196D01*
X126486635Y-112459154D01*
X126533991Y-112469434D01*
G37*
G36*
X124855585Y-88505385D02*
G01*
X124973238Y-88630288D01*
X124993695Y-88681005D01*
X124915501Y-88761216D01*
X124877497Y-88756185D01*
X124776846Y-88630288D01*
X124778347Y-88600658D01*
X124834583Y-88499360D01*
X124855585Y-88505385D01*
G37*
G36*
X122875499Y-85905785D02*
G01*
X122943856Y-86084922D01*
X122925016Y-86178442D01*
X122812928Y-86208123D01*
X122777172Y-86181325D01*
X122682000Y-86004005D01*
X122685748Y-85974774D01*
X122812928Y-85880804D01*
X122875499Y-85905785D01*
G37*
G36*
X122430054Y-101232092D02*
G01*
X122380690Y-101287512D01*
X122175262Y-101504315D01*
X122070003Y-101592144D01*
X122028867Y-101569588D01*
X122113816Y-101445339D01*
X122387413Y-101189451D01*
X122747464Y-100872041D01*
X122430054Y-101232092D01*
G37*
G36*
X117287829Y-109736854D02*
G01*
X117183031Y-109840598D01*
X117070876Y-109902326D01*
X116855712Y-109967516D01*
X116816378Y-109944341D01*
X116921176Y-109840598D01*
X117033331Y-109778869D01*
X117248495Y-109713679D01*
X117287829Y-109736854D01*
G37*
G36*
X115815855Y-120844427D02*
G01*
X115939217Y-120969463D01*
X115963604Y-121015819D01*
X115954671Y-121100391D01*
X115931651Y-121094500D01*
X115808289Y-120969463D01*
X115783902Y-120923108D01*
X115792835Y-120838536D01*
X115815855Y-120844427D01*
G37*
G36*
X114859062Y-113097093D02*
G01*
X114998713Y-113216926D01*
X115088186Y-113326217D01*
X115086036Y-113349191D01*
X115000733Y-113350076D01*
X114809630Y-113146525D01*
X114736491Y-113051660D01*
X114703979Y-112983860D01*
X114859062Y-113097093D01*
G37*
G36*
X109531319Y-113250613D02*
G01*
X109654681Y-113375649D01*
X109679068Y-113422004D01*
X109670135Y-113506577D01*
X109647115Y-113500685D01*
X109523753Y-113375649D01*
X109499366Y-113329294D01*
X109508299Y-113244721D01*
X109531319Y-113250613D01*
G37*
G36*
X153711182Y-109071508D02*
G01*
X153668538Y-109241032D01*
X153612694Y-109336467D01*
X153463482Y-109370390D01*
X153161384Y-109282387D01*
X152729939Y-109126448D01*
X153188186Y-109052005D01*
X153363879Y-109024834D01*
X153627579Y-109006506D01*
X153711182Y-109071508D01*
G37*
G36*
X152361884Y-120760967D02*
G01*
X152140763Y-120904000D01*
X151871485Y-121028892D01*
X151617052Y-121090627D01*
X151584746Y-121085864D01*
X151628343Y-121019129D01*
X151861207Y-120898875D01*
X152154355Y-120779682D01*
X152360177Y-120719413D01*
X152361884Y-120760967D01*
G37*
G36*
X146483739Y-102349221D02*
G01*
X146501664Y-102730035D01*
X146486573Y-103071873D01*
X146448260Y-103194598D01*
X146379939Y-103097814D01*
X146275815Y-102720818D01*
X146275634Y-102381346D01*
X146379939Y-102181319D01*
X146420994Y-102179698D01*
X146483739Y-102349221D01*
G37*
G36*
X122071625Y-121026892D02*
G01*
X122086740Y-121095672D01*
X121994928Y-121181650D01*
X121692895Y-121190552D01*
X121611429Y-121184944D01*
X121316188Y-121127686D01*
X121257880Y-121034094D01*
X121448894Y-120918007D01*
X121537340Y-120886972D01*
X121884812Y-120854748D01*
X122071625Y-121026892D01*
G37*
G36*
X115226137Y-110694006D02*
G01*
X115485910Y-110781170D01*
X115742825Y-110905656D01*
X115770208Y-110922982D01*
X115779818Y-110972249D01*
X115546433Y-110938379D01*
X115238256Y-110844221D01*
X115022722Y-110725473D01*
X115008108Y-110709235D01*
X115041028Y-110663562D01*
X115226137Y-110694006D01*
G37*
G36*
X153230789Y-110822556D02*
G01*
X153157345Y-110984678D01*
X153001344Y-111180603D01*
X152935290Y-111216080D01*
X152664475Y-111274817D01*
X152576822Y-111237724D01*
X152729939Y-111122667D01*
X152904275Y-111003497D01*
X153155775Y-110766597D01*
X153208417Y-110701938D01*
X153278581Y-110648565D01*
X153230789Y-110822556D01*
G37*
G36*
X124376173Y-113784985D02*
G01*
X124577561Y-114086816D01*
X124669706Y-114246819D01*
X124804435Y-114543047D01*
X124827603Y-114708723D01*
X124687300Y-114816191D01*
X124533991Y-114689994D01*
X124390947Y-114324876D01*
X124377142Y-114274811D01*
X124280210Y-113873565D01*
X124278472Y-113712095D01*
X124376173Y-113784985D01*
G37*
G36*
X123112175Y-120063845D02*
G01*
X123195728Y-120335519D01*
X123158802Y-120641004D01*
X123141444Y-120679855D01*
X123021075Y-120754697D01*
X122770587Y-120670341D01*
X122592882Y-120575422D01*
X122528037Y-120444770D01*
X122650405Y-120216046D01*
X122825378Y-120022055D01*
X122994814Y-119960787D01*
X123112175Y-120063845D01*
G37*
G36*
X116180068Y-109112970D02*
G01*
X116183814Y-109123074D01*
X116166137Y-109273587D01*
X115935108Y-109316886D01*
X115723816Y-109284832D01*
X115611897Y-109185958D01*
X115613317Y-109156370D01*
X115666653Y-109055030D01*
X115710987Y-109047364D01*
X115911613Y-108982042D01*
X116020433Y-108973689D01*
X116180068Y-109112970D01*
G37*
G36*
X109348680Y-115260443D02*
G01*
X109498169Y-115537602D01*
X109542067Y-115632402D01*
X109644448Y-115890570D01*
X109655925Y-115994206D01*
X109618477Y-115969550D01*
X109495012Y-115789251D01*
X109354602Y-115520475D01*
X109248705Y-115267012D01*
X109228778Y-115132652D01*
X109244224Y-115131878D01*
X109348680Y-115260443D01*
G37*
G36*
X154366537Y-110185698D02*
G01*
X154362755Y-110193599D01*
X154221986Y-110284085D01*
X153941021Y-110418717D01*
X153686172Y-110529192D01*
X153495792Y-110599937D01*
X153471232Y-110570633D01*
X153568937Y-110444272D01*
X153582468Y-110429524D01*
X153772557Y-110307838D01*
X154034572Y-110204602D01*
X154266552Y-110152870D01*
X154366537Y-110185698D01*
G37*
G36*
X124565578Y-109775134D02*
G01*
X124517453Y-109946091D01*
X124468008Y-110251238D01*
X124437967Y-110354783D01*
X124290542Y-110400890D01*
X124176765Y-110322377D01*
X124125766Y-110177207D01*
X124233127Y-110102453D01*
X124343006Y-110030930D01*
X124499032Y-109807866D01*
X124538297Y-109734497D01*
X124602522Y-109638263D01*
X124565578Y-109775134D01*
G37*
G36*
X124011996Y-108683838D02*
G01*
X124095736Y-108964789D01*
X124065746Y-109299876D01*
X123915336Y-109590320D01*
X123681928Y-109779753D01*
X123425821Y-109823222D01*
X123256575Y-109653370D01*
X123239640Y-109516490D01*
X123311608Y-109209776D01*
X123468853Y-108887959D01*
X123662947Y-108641037D01*
X123845462Y-108559007D01*
X124011996Y-108683838D01*
G37*
G36*
X119457042Y-110572285D02*
G01*
X119589326Y-110621678D01*
X119886638Y-110798395D01*
X120086859Y-111001867D01*
X120118093Y-111167374D01*
X120015252Y-111258821D01*
X119787411Y-111248925D01*
X119406808Y-111083379D01*
X119406677Y-111083312D01*
X119158999Y-110885101D01*
X119089387Y-110687526D01*
X119191012Y-110560087D01*
X119457042Y-110572285D01*
G37*
G36*
X151486124Y-126563531D02*
G01*
X151472410Y-126713525D01*
X151398839Y-126904859D01*
X151278203Y-126958787D01*
X151001449Y-126992144D01*
X150888454Y-126988687D01*
X150761790Y-126925999D01*
X150831485Y-126730288D01*
X150928976Y-126568331D01*
X151021775Y-126468433D01*
X151073015Y-126458191D01*
X151279024Y-126388961D01*
X151424444Y-126379953D01*
X151486124Y-126563531D01*
G37*
G36*
X129107570Y-98747127D02*
G01*
X129232970Y-98910463D01*
X129177610Y-99168347D01*
X128954675Y-99478313D01*
X128577353Y-99797895D01*
X128466426Y-99867883D01*
X128132279Y-100000663D01*
X127884872Y-99988605D01*
X127788186Y-99829174D01*
X127821234Y-99688493D01*
X128014845Y-99378052D01*
X128313987Y-99059826D01*
X128640102Y-98811743D01*
X128914636Y-98711732D01*
X129107570Y-98747127D01*
G37*
G36*
X119788540Y-109701605D02*
G01*
X119876993Y-109828866D01*
X119831346Y-110054685D01*
X119648326Y-110272652D01*
X119376360Y-110400639D01*
X118869143Y-110459618D01*
X118405090Y-110439373D01*
X118086784Y-110339604D01*
X117968598Y-110169248D01*
X118057902Y-110039999D01*
X118337226Y-109891258D01*
X118729454Y-109762620D01*
X119155083Y-109674513D01*
X119534613Y-109647365D01*
X119788540Y-109701605D01*
G37*
G36*
X109836169Y-112404577D02*
G01*
X109971658Y-112639326D01*
X110055668Y-112918746D01*
X110040674Y-113124780D01*
X110021362Y-113152527D01*
X109886988Y-113244721D01*
X109871863Y-113242816D01*
X109889493Y-113162658D01*
X109893859Y-113157368D01*
X109888110Y-112985453D01*
X109777025Y-112704410D01*
X109768972Y-112688667D01*
X109672841Y-112426768D01*
X109720023Y-112328226D01*
X109836169Y-112404577D01*
G37*
G36*
X154497464Y-117434412D02*
G01*
X154485970Y-117482629D01*
X154333805Y-117567345D01*
X154260246Y-117590112D01*
X154366537Y-117694668D01*
X154426910Y-117744588D01*
X154368313Y-117796714D01*
X154070891Y-117802337D01*
X153976643Y-117798695D01*
X153720328Y-117772841D01*
X153674263Y-117701106D01*
X153796596Y-117544086D01*
X153920886Y-117437267D01*
X154178520Y-117322226D01*
X154402057Y-117316369D01*
X154497464Y-117434412D01*
G37*
G36*
X156132911Y-108215285D02*
G01*
X156396869Y-108331478D01*
X156619284Y-108327005D01*
X156711871Y-108286336D01*
X156657774Y-108372918D01*
X156601336Y-108412660D01*
X156323937Y-108505088D01*
X155937671Y-108565643D01*
X155762796Y-108581683D01*
X155457958Y-108615541D01*
X155328082Y-108639373D01*
X155356071Y-108564438D01*
X155459010Y-108335949D01*
X155494216Y-108262382D01*
X155641169Y-108054874D01*
X155827016Y-108044019D01*
X156132911Y-108215285D01*
G37*
G36*
X150957170Y-120839736D02*
G01*
X151240127Y-120885553D01*
X151355196Y-120977190D01*
X151349406Y-121019034D01*
X151250749Y-121051293D01*
X151174373Y-121034920D01*
X150956162Y-121104835D01*
X150849835Y-121151785D01*
X150722107Y-121095380D01*
X150702562Y-121059494D01*
X150558447Y-121041839D01*
X150517279Y-121058788D01*
X150438701Y-120977190D01*
X150442670Y-120958969D01*
X150594091Y-120873353D01*
X150896949Y-120838536D01*
X150957170Y-120839736D01*
G37*
G36*
X149334448Y-106638821D02*
G01*
X150122061Y-106735291D01*
X150684409Y-106829467D01*
X151014281Y-106918498D01*
X151104462Y-106999529D01*
X150947739Y-107069705D01*
X150536897Y-107126175D01*
X150131225Y-107160786D01*
X149638398Y-107190146D01*
X149313421Y-107182645D01*
X149099053Y-107135396D01*
X148938053Y-107045511D01*
X148828271Y-106946240D01*
X148776274Y-106765139D01*
X148941516Y-106649697D01*
X149294046Y-106634495D01*
X149334448Y-106638821D01*
G37*
G36*
X162591384Y-113199921D02*
G01*
X162756167Y-113564466D01*
X162941780Y-114115759D01*
X163023454Y-114394740D01*
X163062102Y-114606642D01*
X163003291Y-114667286D01*
X162835194Y-114634189D01*
X162638572Y-114590115D01*
X162353134Y-114553782D01*
X162234059Y-114546586D01*
X161984230Y-114450201D01*
X161934474Y-114219742D01*
X162073599Y-113826075D01*
X162130361Y-113704561D01*
X162286836Y-113350953D01*
X162379134Y-113114142D01*
X162460437Y-113045275D01*
X162591384Y-113199921D01*
G37*
G36*
X148684594Y-118465696D02*
G01*
X148760110Y-118500837D01*
X149057520Y-118679749D01*
X149102965Y-118815224D01*
X148900299Y-118915294D01*
X148730113Y-118941175D01*
X148349239Y-118968652D01*
X147885609Y-118982059D01*
X147839439Y-118982388D01*
X147441977Y-118973190D01*
X147288101Y-118937717D01*
X147361897Y-118872644D01*
X147612833Y-118733640D01*
X147931759Y-118510207D01*
X147945303Y-118499416D01*
X148168525Y-118353057D01*
X148373344Y-118344277D01*
X148684594Y-118465696D01*
G37*
G36*
X113962932Y-109670703D02*
G01*
X114091224Y-109862804D01*
X114372775Y-110026468D01*
X114583842Y-110125424D01*
X114695402Y-110294938D01*
X114695379Y-110298950D01*
X114650710Y-110393087D01*
X114484249Y-110373615D01*
X114141949Y-110234645D01*
X113891013Y-110131180D01*
X113623454Y-110071632D01*
X113489314Y-110142851D01*
X113425308Y-110222512D01*
X113388129Y-110149690D01*
X113454429Y-109963408D01*
X113630921Y-109698224D01*
X113804747Y-109497346D01*
X113892045Y-109488320D01*
X113962932Y-109670703D01*
G37*
G36*
X119146949Y-111536727D02*
G01*
X119065651Y-111626754D01*
X118819629Y-111673587D01*
X118604347Y-111706439D01*
X118492310Y-111805893D01*
X118383629Y-111869975D01*
X118057560Y-111909117D01*
X117559180Y-111913132D01*
X117323253Y-111905198D01*
X116962484Y-111878610D01*
X116836785Y-111837049D01*
X116927622Y-111776507D01*
X117152784Y-111714961D01*
X117435237Y-111694359D01*
X117584895Y-111697817D01*
X117903134Y-111644647D01*
X118316970Y-111539162D01*
X118733604Y-111473842D01*
X119032497Y-111471102D01*
X119146949Y-111536727D01*
G37*
G36*
X110243856Y-109379336D02*
G01*
X110224020Y-109464636D01*
X110086445Y-109740689D01*
X109867952Y-110082173D01*
X109628092Y-110399842D01*
X109426413Y-110604449D01*
X109266306Y-110730489D01*
X109027645Y-110951295D01*
X108932203Y-111033462D01*
X108803650Y-111058128D01*
X108812852Y-111006469D01*
X108960324Y-110821992D01*
X109229165Y-110566479D01*
X109391708Y-110414299D01*
X109627473Y-110139323D01*
X109720145Y-109945210D01*
X109784512Y-109759289D01*
X109982000Y-109513278D01*
X110163278Y-109378078D01*
X110243856Y-109379336D01*
G37*
G36*
X109536883Y-88045654D02*
G01*
X109473137Y-88253225D01*
X109395749Y-88444772D01*
X109071866Y-89166509D01*
X108634116Y-90037762D01*
X108464371Y-90341056D01*
X108279284Y-90618236D01*
X108163936Y-90725134D01*
X108131229Y-90713991D01*
X108036336Y-90532970D01*
X107972826Y-90188230D01*
X107950504Y-89754958D01*
X107979176Y-89308345D01*
X107990446Y-89237591D01*
X108214024Y-88683960D01*
X108626453Y-88260148D01*
X109171665Y-88026427D01*
X109184826Y-88023800D01*
X109459438Y-87983216D01*
X109536883Y-88045654D01*
G37*
G36*
X148188733Y-100956974D02*
G01*
X148324214Y-101057916D01*
X148431410Y-101129848D01*
X148431948Y-101130062D01*
X148472176Y-101251470D01*
X148536402Y-101526948D01*
X148619304Y-101919463D01*
X148411935Y-101559412D01*
X148379495Y-101505255D01*
X148141304Y-101246415D01*
X147913394Y-101249105D01*
X147696343Y-101513365D01*
X147526299Y-101741080D01*
X147248703Y-101954212D01*
X147008162Y-102028834D01*
X146953714Y-101949190D01*
X147095683Y-101717416D01*
X147431694Y-101341461D01*
X147628785Y-101143501D01*
X147872471Y-100938576D01*
X148039495Y-100886368D01*
X148188733Y-100956974D01*
G37*
G36*
X119471027Y-107518612D02*
G01*
X120039966Y-107638464D01*
X120550235Y-107792768D01*
X120910875Y-107963583D01*
X121018633Y-108053437D01*
X120985392Y-108108093D01*
X120765120Y-108132770D01*
X120320462Y-108138536D01*
X120042382Y-108135296D01*
X119665558Y-108103665D01*
X119444080Y-108023469D01*
X119308262Y-107876680D01*
X119265008Y-107816620D01*
X119016303Y-107657747D01*
X118589396Y-107603571D01*
X118391134Y-107598991D01*
X118179228Y-107584123D01*
X118198052Y-107547848D01*
X118426846Y-107473565D01*
X118520972Y-107454043D01*
X118934376Y-107451157D01*
X119471027Y-107518612D01*
G37*
G36*
X154071736Y-89476337D02*
G01*
X154927771Y-89517167D01*
X155556814Y-89587059D01*
X155939465Y-89684495D01*
X156068598Y-89808292D01*
X156054819Y-89831639D01*
X155870481Y-89875592D01*
X155533177Y-89884380D01*
X155122021Y-89863574D01*
X154716127Y-89818743D01*
X154394611Y-89755460D01*
X154236587Y-89679294D01*
X154140763Y-89611211D01*
X153899187Y-89616868D01*
X153471364Y-89724714D01*
X153240596Y-89786229D01*
X152890830Y-89840063D01*
X152725055Y-89800737D01*
X152683937Y-89707553D01*
X152732364Y-89580665D01*
X152962391Y-89504028D01*
X153400141Y-89471350D01*
X154071736Y-89476337D01*
G37*
G36*
X161755735Y-114844019D02*
G01*
X161829205Y-115011674D01*
X161837628Y-115034847D01*
X161924581Y-115418930D01*
X161960351Y-115852503D01*
X161959819Y-115905991D01*
X161927199Y-116169399D01*
X161814924Y-116408883D01*
X161582575Y-116688398D01*
X161189736Y-117071900D01*
X161096026Y-117159185D01*
X160720511Y-117495240D01*
X160415783Y-117747356D01*
X160240510Y-117866428D01*
X160077491Y-117923166D01*
X159913214Y-117928141D01*
X159962882Y-117794463D01*
X160008786Y-117730818D01*
X160206404Y-117412326D01*
X160494564Y-116909412D01*
X160852973Y-116258029D01*
X161261337Y-115494130D01*
X161398605Y-115235566D01*
X161574455Y-114927062D01*
X161682158Y-114806181D01*
X161755735Y-114844019D01*
G37*
G36*
X147881002Y-104872998D02*
G01*
X148304225Y-104926284D01*
X148590535Y-105064268D01*
X148810517Y-105325644D01*
X149034759Y-105749103D01*
X149059119Y-105799728D01*
X149167109Y-106054581D01*
X149146399Y-106156254D01*
X148989570Y-106174618D01*
X148805526Y-106227261D01*
X148577368Y-106433206D01*
X148447932Y-106579908D01*
X148288217Y-106564134D01*
X148196610Y-106502257D01*
X147924887Y-106436474D01*
X147701928Y-106370000D01*
X147427361Y-106174618D01*
X147157997Y-106001673D01*
X146780929Y-105912762D01*
X146699706Y-105911951D01*
X146495023Y-105874139D01*
X146414310Y-105724815D01*
X146403579Y-105389051D01*
X146410807Y-104865340D01*
X147422503Y-104865340D01*
X147881002Y-104872998D01*
G37*
G36*
X123531997Y-103501256D02*
G01*
X123789136Y-103701463D01*
X124068256Y-103955578D01*
X124292262Y-104193178D01*
X124384062Y-104343839D01*
X124338300Y-104367927D01*
X124101103Y-104374755D01*
X123729423Y-104341628D01*
X123564099Y-104323191D01*
X123195529Y-104319736D01*
X123063518Y-104397833D01*
X123060071Y-104471418D01*
X123054567Y-104766617D01*
X123052512Y-105167170D01*
X123048456Y-105312638D01*
X122989278Y-105643820D01*
X122887941Y-105753488D01*
X122781089Y-105631168D01*
X122705364Y-105266388D01*
X122709364Y-105071378D01*
X122782761Y-104678636D01*
X122913758Y-104242676D01*
X123074953Y-103838462D01*
X123238949Y-103540960D01*
X123378345Y-103425134D01*
X123531997Y-103501256D01*
G37*
G36*
X117710513Y-89479570D02*
G01*
X118026280Y-89533334D01*
X118153433Y-89631007D01*
X118118400Y-89778100D01*
X118114620Y-89783998D01*
X117992370Y-89859863D01*
X117746509Y-89843710D01*
X117317601Y-89732127D01*
X116991623Y-89639275D01*
X116727849Y-89589636D01*
X116586389Y-89623385D01*
X116495394Y-89741326D01*
X116430226Y-89828030D01*
X116231285Y-89904676D01*
X115868791Y-89873264D01*
X115793553Y-89862326D01*
X115408380Y-89853877D01*
X115130580Y-89918444D01*
X115024325Y-89967489D01*
X114789003Y-89977648D01*
X114695402Y-89815105D01*
X114808586Y-89693740D01*
X115176647Y-89591102D01*
X115794765Y-89517409D01*
X116657568Y-89473595D01*
X117179701Y-89464207D01*
X117710513Y-89479570D01*
G37*
G36*
X121475289Y-108373835D02*
G01*
X121503650Y-108654741D01*
X121554943Y-109032371D01*
X121698961Y-109445724D01*
X121709927Y-109466955D01*
X121820935Y-109716814D01*
X121773376Y-109826360D01*
X121535301Y-109880460D01*
X121245892Y-109903443D01*
X120914475Y-109879569D01*
X120750324Y-109848419D01*
X120456227Y-109813724D01*
X120296347Y-109770707D01*
X120031930Y-109607626D01*
X119938273Y-109521987D01*
X119876249Y-109390115D01*
X120018374Y-109252700D01*
X120140317Y-109105944D01*
X120166239Y-108748178D01*
X120156819Y-108697139D01*
X120150916Y-108496645D01*
X120274898Y-108415546D01*
X120594603Y-108400391D01*
X120652868Y-108399865D01*
X121031588Y-108373912D01*
X121296550Y-108320920D01*
X121369872Y-108301453D01*
X121475289Y-108373835D01*
G37*
G36*
X120736434Y-111317320D02*
G01*
X121189331Y-111468493D01*
X121583998Y-111739051D01*
X121716361Y-111869435D01*
X122087743Y-112259324D01*
X122453395Y-112671323D01*
X122769198Y-113052889D01*
X122991034Y-113351476D01*
X123074784Y-113514540D01*
X123071705Y-113552739D01*
X122957154Y-113632037D01*
X122680427Y-113511829D01*
X122245788Y-113193764D01*
X121820898Y-112910747D01*
X121247586Y-112657381D01*
X120476896Y-112417955D01*
X120155088Y-112328901D01*
X119676829Y-112189396D01*
X119334687Y-112080186D01*
X119187239Y-112019375D01*
X119162990Y-111889584D01*
X119299161Y-111741430D01*
X119531428Y-111673587D01*
X119680063Y-111644239D01*
X119934067Y-111475326D01*
X119983778Y-111425531D01*
X120307265Y-111298633D01*
X120736434Y-111317320D01*
G37*
G36*
X117385475Y-105988534D02*
G01*
X117380279Y-106242715D01*
X117304761Y-106684186D01*
X117275933Y-106829503D01*
X117229478Y-107274786D01*
X117283049Y-107521590D01*
X117288299Y-107528524D01*
X117416343Y-107767072D01*
X117550419Y-108106986D01*
X117558629Y-108131443D01*
X117635985Y-108396117D01*
X117602343Y-108468033D01*
X117438488Y-108396967D01*
X117285146Y-108288789D01*
X117183031Y-108130689D01*
X117098428Y-108011827D01*
X116855712Y-107876680D01*
X116631188Y-107734286D01*
X116528392Y-107432381D01*
X116549973Y-107141666D01*
X116659331Y-106818021D01*
X116841015Y-106698329D01*
X116855536Y-106696631D01*
X117005132Y-106563069D01*
X117152050Y-106281448D01*
X117216207Y-106124595D01*
X117328176Y-105942282D01*
X117385475Y-105988534D01*
G37*
G36*
X116949093Y-104481673D02*
G01*
X117000822Y-104659936D01*
X116977271Y-105029000D01*
X116960998Y-105143675D01*
X116888627Y-105565975D01*
X116804614Y-105796779D01*
X116676143Y-105893303D01*
X116470400Y-105912762D01*
X116180354Y-105998665D01*
X115939217Y-106305546D01*
X115919579Y-106343133D01*
X115775091Y-106595196D01*
X115692155Y-106698329D01*
X115682165Y-106696389D01*
X115663828Y-106573484D01*
X115725277Y-106331893D01*
X115833058Y-106073636D01*
X115953716Y-105900729D01*
X116041288Y-105799765D01*
X116135609Y-105522287D01*
X116230183Y-105291706D01*
X116462928Y-105048995D01*
X116463246Y-105048756D01*
X116694203Y-104826701D01*
X116790248Y-104637872D01*
X116799910Y-104576059D01*
X116922723Y-104472556D01*
X116949093Y-104481673D01*
G37*
G36*
X132066255Y-127238833D02*
G01*
X132371015Y-127496068D01*
X132659683Y-127919301D01*
X132786244Y-128450394D01*
X132714694Y-128977388D01*
X132442075Y-129420260D01*
X132320892Y-129524449D01*
X131859142Y-129722391D01*
X131359960Y-129704951D01*
X130912227Y-129469282D01*
X130603134Y-129196935D01*
X130926854Y-129403818D01*
X131329369Y-129580819D01*
X131744443Y-129550582D01*
X132099302Y-129265724D01*
X132271056Y-128954985D01*
X132372464Y-128447088D01*
X132316768Y-127941071D01*
X132103704Y-127540543D01*
X131798329Y-127309572D01*
X131449642Y-127291713D01*
X131074936Y-127531328D01*
X130777259Y-127808657D01*
X130821124Y-127502315D01*
X130883274Y-127313402D01*
X131059390Y-127203269D01*
X131421788Y-127149806D01*
X131768106Y-127143221D01*
X132066255Y-127238833D01*
G37*
G36*
X156704499Y-110246192D02*
G01*
X156999933Y-110312427D01*
X157116021Y-110423267D01*
X157154531Y-110550102D01*
X157345145Y-110742817D01*
X157374857Y-110761227D01*
X157394074Y-110826222D01*
X157199320Y-110860662D01*
X156767044Y-110869718D01*
X156392303Y-110881905D01*
X155970876Y-110929686D01*
X155708057Y-111001693D01*
X155526362Y-111066212D01*
X155206003Y-111076361D01*
X155112944Y-111067135D01*
X154774114Y-111103293D01*
X154366537Y-111205253D01*
X154189890Y-111261768D01*
X153852576Y-111361778D01*
X153738713Y-111362506D01*
X153829137Y-111249553D01*
X154104681Y-111008519D01*
X154225573Y-110911265D01*
X154588599Y-110674332D01*
X154890248Y-110546532D01*
X155137232Y-110483234D01*
X155518316Y-110355248D01*
X155534539Y-110348844D01*
X155892559Y-110261026D01*
X156308960Y-110227933D01*
X156704499Y-110246192D01*
G37*
G36*
X150650368Y-123210580D02*
G01*
X150975641Y-123440916D01*
X151179905Y-123752213D01*
X151336091Y-124311834D01*
X151241467Y-124862725D01*
X150897576Y-125366822D01*
X150635119Y-125562530D01*
X150215529Y-125663248D01*
X149849526Y-125643631D01*
X150208148Y-125589226D01*
X150388999Y-125540915D01*
X150729847Y-125286128D01*
X150920908Y-124883213D01*
X150942725Y-124391137D01*
X150775840Y-123868864D01*
X150531967Y-123538815D01*
X150161859Y-123325877D01*
X149773646Y-123327043D01*
X149428141Y-123538902D01*
X149186158Y-123958041D01*
X149046501Y-124386698D01*
X148894377Y-124052823D01*
X148848734Y-123947203D01*
X148811488Y-123765305D01*
X148919869Y-123718948D01*
X149086830Y-123644634D01*
X149293083Y-123424360D01*
X149407354Y-123302175D01*
X149769933Y-123140262D01*
X150216368Y-123110046D01*
X150650368Y-123210580D01*
G37*
G36*
X154038454Y-117996151D02*
G01*
X153980004Y-118082417D01*
X153871613Y-118133230D01*
X153682471Y-118136329D01*
X153596744Y-118136406D01*
X153330086Y-118228922D01*
X152972358Y-118406823D01*
X152742776Y-118528335D01*
X152400645Y-118683147D01*
X152189736Y-118743690D01*
X152114726Y-118755235D01*
X152009835Y-118869692D01*
X151920508Y-118922261D01*
X151612459Y-118942862D01*
X151126073Y-118916881D01*
X150831845Y-118889474D01*
X150417006Y-118840293D01*
X150222827Y-118791716D01*
X150222003Y-118734182D01*
X150387230Y-118658126D01*
X150534647Y-118586986D01*
X150728573Y-118425921D01*
X150820454Y-118373291D01*
X151133933Y-118326951D01*
X151597225Y-118329351D01*
X152269951Y-118312914D01*
X152773790Y-118165691D01*
X152996885Y-118078717D01*
X153319414Y-118002849D01*
X153643575Y-117960826D01*
X153904783Y-117957107D01*
X154038454Y-117996151D01*
G37*
G36*
X151807536Y-104501032D02*
G01*
X151898931Y-104782993D01*
X151900095Y-104788768D01*
X152062685Y-105003698D01*
X152402619Y-105175777D01*
X152473451Y-105200650D01*
X152744677Y-105344476D01*
X152847774Y-105487247D01*
X152839498Y-105585057D01*
X152812130Y-105880030D01*
X152794313Y-105983281D01*
X152724228Y-105999779D01*
X152560232Y-105811156D01*
X152356811Y-105618693D01*
X152193482Y-105650559D01*
X152070767Y-105703429D01*
X151695383Y-105732245D01*
X151116463Y-105700633D01*
X151015766Y-105690719D01*
X150507237Y-105615270D01*
X150229104Y-105522108D01*
X150191852Y-105417059D01*
X150405970Y-105305948D01*
X150674238Y-105205024D01*
X151022578Y-105057430D01*
X151040069Y-105049702D01*
X151333895Y-104951996D01*
X151513558Y-104947759D01*
X151585771Y-104889312D01*
X151617052Y-104650489D01*
X151627285Y-104519686D01*
X151701281Y-104405880D01*
X151807536Y-104501032D01*
G37*
G36*
X145048654Y-97462643D02*
G01*
X145309124Y-97729773D01*
X145530536Y-97933948D01*
X145923834Y-98057092D01*
X146075188Y-98061680D01*
X146196601Y-98112778D01*
X146118083Y-98253484D01*
X145998917Y-98354972D01*
X145713875Y-98449876D01*
X145599883Y-98477870D01*
X145396837Y-98632497D01*
X145262952Y-98839446D01*
X145274451Y-99002807D01*
X145220378Y-99031469D01*
X144968207Y-99056545D01*
X144572874Y-99066034D01*
X144242369Y-99078396D01*
X143822037Y-99131386D01*
X143555392Y-99212010D01*
X143526105Y-99228919D01*
X143276123Y-99342487D01*
X143109605Y-99287842D01*
X142919968Y-99035353D01*
X142807192Y-98833911D01*
X142787337Y-98610985D01*
X142984110Y-98496889D01*
X143415718Y-98470891D01*
X143996284Y-98447368D01*
X144459865Y-98320564D01*
X144722374Y-98074718D01*
X144806800Y-97697041D01*
X144808492Y-97642742D01*
X144879324Y-97433473D01*
X145048654Y-97462643D01*
G37*
G36*
X120313405Y-122542485D02*
G01*
X120364092Y-122807902D01*
X120352142Y-123266109D01*
X120334669Y-123559246D01*
X120337531Y-123863016D01*
X120370109Y-123980804D01*
X120437984Y-123972053D01*
X120706820Y-123868895D01*
X121014494Y-123694940D01*
X121267597Y-123507619D01*
X121372722Y-123364361D01*
X121378748Y-123314479D01*
X121474753Y-123282690D01*
X121722144Y-123418150D01*
X122071565Y-123647100D01*
X121333635Y-123979473D01*
X121102903Y-124089114D01*
X120586076Y-124410121D01*
X120293740Y-124748664D01*
X120198536Y-125132535D01*
X120185543Y-125321416D01*
X120106801Y-125352541D01*
X119892358Y-125205425D01*
X119710026Y-125054525D01*
X119673949Y-124922646D01*
X119823563Y-124744395D01*
X119885916Y-124677058D01*
X120088063Y-124322625D01*
X120180002Y-123833355D01*
X120174147Y-123152894D01*
X120163849Y-122914336D01*
X120186462Y-122579804D01*
X120270159Y-122496943D01*
X120313405Y-122542485D01*
G37*
G36*
X119750768Y-102300812D02*
G01*
X119779841Y-102432945D01*
X119605196Y-102639567D01*
X119502819Y-102756954D01*
X119408805Y-103022196D01*
X119361451Y-103238071D01*
X119178329Y-103443453D01*
X118934603Y-103466358D01*
X118817669Y-103468680D01*
X118754165Y-103665254D01*
X118731221Y-103830599D01*
X118623238Y-104014309D01*
X118574465Y-104036786D01*
X118492293Y-103989304D01*
X118449463Y-103939668D01*
X118224394Y-103890454D01*
X117885289Y-103880413D01*
X117522230Y-103905798D01*
X117225301Y-103962861D01*
X117084584Y-104047857D01*
X117015046Y-104132743D01*
X116868541Y-104112622D01*
X116790248Y-103951163D01*
X116797401Y-103904280D01*
X116938394Y-103658987D01*
X117199944Y-103370736D01*
X117502979Y-103118070D01*
X117768427Y-102979534D01*
X117845718Y-102955709D01*
X118195117Y-102797130D01*
X118572650Y-102572460D01*
X118923522Y-102382677D01*
X119274380Y-102272543D01*
X119566204Y-102246299D01*
X119750768Y-102300812D01*
G37*
G36*
X124429770Y-125031694D02*
G01*
X124672499Y-125102722D01*
X125034372Y-125241208D01*
X125442576Y-125415130D01*
X125824299Y-125592467D01*
X126106728Y-125741199D01*
X126217052Y-125829304D01*
X126186654Y-125938236D01*
X126043533Y-126000575D01*
X125907561Y-125878505D01*
X125826313Y-125772368D01*
X125580876Y-125682866D01*
X125471347Y-125711746D01*
X125325071Y-125866638D01*
X125161846Y-126192400D01*
X124957106Y-126730288D01*
X124888769Y-126919450D01*
X124720375Y-127357850D01*
X124588547Y-127662244D01*
X124517236Y-127775706D01*
X124510469Y-127775414D01*
X124310644Y-127696814D01*
X124175719Y-127546421D01*
X124190858Y-127417659D01*
X124200214Y-127409471D01*
X124319273Y-127220890D01*
X124490599Y-126864504D01*
X124680427Y-126409824D01*
X124785663Y-126128610D01*
X124911559Y-125684592D01*
X124898778Y-125424114D01*
X124740210Y-125316734D01*
X124428747Y-125332006D01*
X124240764Y-125331130D01*
X124213631Y-125204177D01*
X124251867Y-125131388D01*
X124395478Y-125028226D01*
X124429770Y-125031694D01*
G37*
G36*
X147372254Y-103482250D02*
G01*
X147532610Y-103598043D01*
X147829497Y-103686989D01*
X147973563Y-103722330D01*
X148082000Y-103883381D01*
X148104812Y-103974969D01*
X148278392Y-104079773D01*
X148369879Y-104057549D01*
X148474784Y-103887988D01*
X148505154Y-103751068D01*
X148740164Y-103557709D01*
X149196377Y-103471623D01*
X149860399Y-103496594D01*
X150275227Y-103554407D01*
X150617578Y-103629997D01*
X150775568Y-103702437D01*
X150786306Y-103757983D01*
X150656828Y-103817917D01*
X150560521Y-103840230D01*
X150391355Y-104014309D01*
X150296665Y-104155035D01*
X150085121Y-104188270D01*
X149851599Y-103995002D01*
X149747848Y-103903584D01*
X149444816Y-103850514D01*
X149089548Y-103959927D01*
X148768653Y-104214287D01*
X148466637Y-104424096D01*
X148113807Y-104451331D01*
X147820145Y-104276165D01*
X147601422Y-104141710D01*
X147264371Y-104079773D01*
X147060529Y-104072446D01*
X146956879Y-104017052D01*
X147042859Y-103873402D01*
X147047333Y-103867992D01*
X147148103Y-103685285D01*
X147044913Y-103562449D01*
X146956618Y-103483512D01*
X147021604Y-103367688D01*
X147152746Y-103355321D01*
X147372254Y-103482250D01*
G37*
G36*
X135382000Y-128694206D02*
G01*
X135342688Y-128927682D01*
X135198937Y-129313341D01*
X135001890Y-129678885D01*
X134807288Y-129906717D01*
X134773042Y-129923931D01*
X134511150Y-129970636D01*
X134142460Y-129972181D01*
X133864128Y-129935720D01*
X133573655Y-129793377D01*
X133313504Y-129479773D01*
X133261586Y-129400216D01*
X133079334Y-128990935D01*
X133079124Y-128971285D01*
X133511380Y-128971285D01*
X133562745Y-129392101D01*
X133667667Y-129661378D01*
X133846251Y-129794613D01*
X134205652Y-129868066D01*
X134544101Y-129772356D01*
X134730050Y-129577785D01*
X134918273Y-129151587D01*
X134989217Y-128631398D01*
X134988468Y-128586958D01*
X134885622Y-128135857D01*
X134647359Y-127805760D01*
X134328281Y-127628503D01*
X133982988Y-127635927D01*
X133666083Y-127859870D01*
X133569684Y-128093312D01*
X133513662Y-128503499D01*
X133511380Y-128971285D01*
X133079124Y-128971285D01*
X133074922Y-128577235D01*
X133077474Y-128561952D01*
X133257643Y-128088057D01*
X133581374Y-127682020D01*
X133972155Y-127440755D01*
X134225370Y-127411347D01*
X134638682Y-127538568D01*
X135010431Y-127831420D01*
X135278807Y-128234950D01*
X135367887Y-128631398D01*
X135382000Y-128694206D01*
G37*
G36*
X153635678Y-105069164D02*
G01*
X153782751Y-105183665D01*
X154129100Y-105297766D01*
X154520483Y-105332324D01*
X154830955Y-105266541D01*
X154860889Y-105274799D01*
X154732455Y-105410284D01*
X154599401Y-105592071D01*
X154569569Y-105817391D01*
X154590319Y-105862045D01*
X154836597Y-106102973D01*
X155202803Y-106254315D01*
X155568310Y-106262333D01*
X155709462Y-106242084D01*
X155915997Y-106324941D01*
X156124510Y-106605659D01*
X156158374Y-106663115D01*
X156322515Y-106965051D01*
X156404713Y-107156577D01*
X156451954Y-107350942D01*
X156532335Y-107667085D01*
X156548226Y-107731508D01*
X156570418Y-107947933D01*
X156480477Y-107953945D01*
X156428677Y-107911251D01*
X156330454Y-107688445D01*
X156329768Y-107677991D01*
X156205730Y-107511429D01*
X155932667Y-107350896D01*
X155614673Y-107164246D01*
X155405503Y-106944384D01*
X155288203Y-106813717D01*
X155003517Y-106733217D01*
X154827186Y-106719620D01*
X154616038Y-106542435D01*
X154445556Y-106141886D01*
X154332651Y-105992967D01*
X154009356Y-105912762D01*
X153714147Y-105834227D01*
X153407447Y-105559887D01*
X153238972Y-105160447D01*
X153276909Y-104965813D01*
X153439312Y-104922413D01*
X153635678Y-105069164D01*
G37*
G36*
X143520928Y-126259632D02*
G01*
X143536529Y-126507961D01*
X143531467Y-126722669D01*
X143584981Y-127124463D01*
X143686246Y-127594334D01*
X143814404Y-128050409D01*
X143948593Y-128410817D01*
X144067953Y-128593684D01*
X144129811Y-128656845D01*
X144003564Y-128692201D01*
X143906571Y-128662077D01*
X143760255Y-128449610D01*
X143626661Y-128006835D01*
X143564757Y-127748151D01*
X143449162Y-127349404D01*
X143338616Y-127181480D01*
X143206254Y-127246925D01*
X143025214Y-127548282D01*
X142768631Y-128088095D01*
X142634554Y-128370632D01*
X142421531Y-128779597D01*
X142258037Y-129042684D01*
X142171529Y-129112771D01*
X142166773Y-129106627D01*
X142094578Y-128920182D01*
X141991809Y-128556770D01*
X141879075Y-128088569D01*
X141872738Y-128060249D01*
X141758804Y-127572253D01*
X141657183Y-127171728D01*
X141589199Y-126942951D01*
X141563595Y-126827833D01*
X141623466Y-126730288D01*
X141626523Y-126730581D01*
X141712600Y-126858734D01*
X141824912Y-127175075D01*
X141939981Y-127614051D01*
X142140624Y-128497814D01*
X142680688Y-127352195D01*
X142812511Y-127082724D01*
X143062537Y-126627181D01*
X143270747Y-126319529D01*
X143407447Y-126206577D01*
X143520928Y-126259632D01*
G37*
G36*
X141112977Y-129405993D02*
G01*
X140904827Y-129450385D01*
X140553650Y-129524951D01*
X140393235Y-129558623D01*
X140213136Y-129595513D01*
X140030442Y-129584917D01*
X139679487Y-129444987D01*
X139336482Y-129211688D01*
X139109466Y-128948368D01*
X138952989Y-128485962D01*
X138969706Y-128203556D01*
X139420023Y-128203556D01*
X139463312Y-128780589D01*
X139646507Y-129143101D01*
X139665009Y-129160075D01*
X139963118Y-129295910D01*
X140383344Y-129348845D01*
X140914437Y-129348845D01*
X140825353Y-128792402D01*
X140815120Y-128728001D01*
X140733532Y-128192117D01*
X140658606Y-127670111D01*
X140634396Y-127503543D01*
X140568837Y-127241790D01*
X140454787Y-127156495D01*
X140239977Y-127187387D01*
X139936595Y-127307473D01*
X139592121Y-127602565D01*
X139436018Y-127974103D01*
X139420023Y-128203556D01*
X138969706Y-128203556D01*
X138983679Y-127967517D01*
X139234513Y-127529175D01*
X139682845Y-127207100D01*
X140306028Y-127037461D01*
X140974901Y-126960051D01*
X141069619Y-127921299D01*
X141073130Y-127956265D01*
X141137478Y-128458385D01*
X141214180Y-128872674D01*
X141287394Y-129112477D01*
X141306158Y-129149499D01*
X141319765Y-129318083D01*
X141247404Y-129348845D01*
X141112977Y-129405993D01*
G37*
G36*
X155415367Y-118661450D02*
G01*
X155613372Y-118905051D01*
X155704385Y-119296934D01*
X155665283Y-119773441D01*
X155639803Y-119895931D01*
X155596369Y-120408410D01*
X155692961Y-120728206D01*
X155925478Y-120838536D01*
X156058590Y-120798323D01*
X156261748Y-120580982D01*
X156384430Y-120265671D01*
X156373816Y-119956324D01*
X156336033Y-119838786D01*
X156360733Y-119800225D01*
X156529213Y-119947672D01*
X156612887Y-120030574D01*
X156684820Y-120167761D01*
X156622110Y-120341242D01*
X156410210Y-120635043D01*
X156158370Y-120908149D01*
X155808129Y-121104991D01*
X155511097Y-121076241D01*
X155299092Y-120843498D01*
X155203933Y-120428364D01*
X155257438Y-119852441D01*
X155315328Y-119534228D01*
X155327406Y-119135176D01*
X155215478Y-118932532D01*
X154971780Y-118900428D01*
X154839925Y-118936916D01*
X154723572Y-119088799D01*
X154693856Y-119421926D01*
X154693679Y-119501088D01*
X154678274Y-119761201D01*
X154611129Y-119809333D01*
X154454687Y-119687130D01*
X154328148Y-119530407D01*
X154356491Y-119423499D01*
X154410385Y-119391933D01*
X154497464Y-119198451D01*
X154523253Y-119107698D01*
X154707849Y-118887453D01*
X154982850Y-118695115D01*
X155243681Y-118612762D01*
X155415367Y-118661450D01*
G37*
G36*
X149899486Y-115961474D02*
G01*
X149888143Y-116078045D01*
X149970674Y-116314725D01*
X150250037Y-116386989D01*
X150457528Y-116419526D01*
X150509991Y-116508491D01*
X150519496Y-116600376D01*
X150698656Y-116713705D01*
X150907430Y-116801679D01*
X150946828Y-116888839D01*
X150764981Y-116937473D01*
X150384231Y-116932067D01*
X150149649Y-116917255D01*
X149884988Y-116947598D01*
X149702625Y-117096713D01*
X149500468Y-117421094D01*
X149410128Y-117572776D01*
X149194527Y-117868240D01*
X149050774Y-117958339D01*
X148998495Y-117827195D01*
X148985141Y-117797847D01*
X148802733Y-117725306D01*
X148474784Y-117696268D01*
X148357389Y-117699606D01*
X148067225Y-117745208D01*
X147951073Y-117827195D01*
X147930371Y-117886115D01*
X147758790Y-117958123D01*
X147644860Y-117931638D01*
X147643148Y-117796513D01*
X147840138Y-117568510D01*
X148219469Y-117271996D01*
X148382148Y-117149055D01*
X148636413Y-116901669D01*
X148736640Y-116715553D01*
X148751614Y-116624050D01*
X148867567Y-116517917D01*
X148909092Y-116510179D01*
X148998495Y-116368691D01*
X149042740Y-116247222D01*
X149227619Y-116045535D01*
X149335025Y-115978008D01*
X149597736Y-115884435D01*
X149818638Y-115874827D01*
X149899486Y-115961474D01*
G37*
G36*
X149493877Y-101301623D02*
G01*
X149593522Y-101503381D01*
X149756728Y-101782549D01*
X150042680Y-102027651D01*
X150046218Y-102029740D01*
X150316852Y-102165700D01*
X150527276Y-102162427D01*
X150817393Y-102018218D01*
X150898838Y-101973464D01*
X151207572Y-101865879D01*
X151443092Y-101928817D01*
X151477732Y-101951278D01*
X151688802Y-102157150D01*
X151682224Y-102314812D01*
X151456595Y-102377711D01*
X151230258Y-102410030D01*
X150907958Y-102549862D01*
X150771105Y-102668530D01*
X150788068Y-102779468D01*
X151009256Y-102942645D01*
X151271054Y-103098389D01*
X151428135Y-103163278D01*
X151436602Y-103164339D01*
X151600990Y-103253950D01*
X151858256Y-103443722D01*
X152206227Y-103724166D01*
X151756571Y-103638559D01*
X151739210Y-103635151D01*
X151370522Y-103521767D01*
X151101932Y-103372686D01*
X150846025Y-103223868D01*
X150487140Y-103105432D01*
X150465488Y-103100617D01*
X150192152Y-102993679D01*
X150082250Y-102861737D01*
X150077840Y-102558049D01*
X149994520Y-102214942D01*
X149803932Y-102056698D01*
X149752740Y-102032906D01*
X149535400Y-101825766D01*
X149343165Y-101526425D01*
X149260351Y-101258664D01*
X149267999Y-101209128D01*
X149359569Y-101184588D01*
X149493877Y-101301623D01*
G37*
G36*
X153438741Y-122886621D02*
G01*
X153690592Y-123104056D01*
X153764411Y-123216191D01*
X153764311Y-123216351D01*
X153635257Y-123215374D01*
X153418450Y-123062977D01*
X153299658Y-122955101D01*
X153097106Y-122827868D01*
X152904396Y-122866966D01*
X152616668Y-123073812D01*
X152378687Y-123323529D01*
X152279160Y-123651748D01*
X152423256Y-123949069D01*
X152505544Y-124092610D01*
X152407224Y-124302574D01*
X152200739Y-124482380D01*
X152058846Y-124435539D01*
X152008282Y-124144463D01*
X151993809Y-123958991D01*
X151923037Y-123535142D01*
X151813444Y-123064309D01*
X151741303Y-122770426D01*
X151654449Y-122322447D01*
X152089055Y-122322447D01*
X152143814Y-122619587D01*
X152211577Y-122898144D01*
X152301161Y-123107518D01*
X152418075Y-123107304D01*
X152605518Y-122926191D01*
X152741694Y-122758053D01*
X152754606Y-122627534D01*
X152602477Y-122486914D01*
X152253459Y-122277511D01*
X152122572Y-122226598D01*
X152089055Y-122322447D01*
X151654449Y-122322447D01*
X151653522Y-122317667D01*
X151618606Y-121991659D01*
X151619124Y-121902413D01*
X151640677Y-121788948D01*
X151722451Y-121765718D01*
X151903926Y-121846379D01*
X152224580Y-122044586D01*
X152723892Y-122373997D01*
X153051983Y-122598792D01*
X153090604Y-122627534D01*
X153438741Y-122886621D01*
G37*
G36*
X154945533Y-121277920D02*
G01*
X155184120Y-121527182D01*
X155322638Y-121624103D01*
X155347252Y-121698311D01*
X155217567Y-121885958D01*
X155026987Y-122059538D01*
X154848134Y-122147814D01*
X154810413Y-122143478D01*
X154799094Y-122064397D01*
X154808253Y-122048423D01*
X154768073Y-121869839D01*
X154609445Y-121597493D01*
X154336378Y-121214007D01*
X154036951Y-121495304D01*
X153897697Y-121605835D01*
X153544406Y-121726677D01*
X153236344Y-121645478D01*
X153020827Y-121404743D01*
X152945169Y-121046978D01*
X152974666Y-120932634D01*
X153216472Y-120932634D01*
X153315896Y-121161978D01*
X153448574Y-121277508D01*
X153770207Y-121353815D01*
X154069618Y-121214011D01*
X154103652Y-121172192D01*
X154114579Y-120984428D01*
X153940254Y-120690299D01*
X153829794Y-120547450D01*
X153614754Y-120350168D01*
X153452583Y-120381686D01*
X153297058Y-120638267D01*
X153216472Y-120932634D01*
X152974666Y-120932634D01*
X153056687Y-120614687D01*
X153058579Y-120610780D01*
X153178189Y-120333778D01*
X153219533Y-120176661D01*
X153219267Y-120173514D01*
X153327428Y-120079701D01*
X153589468Y-119958910D01*
X153867773Y-119885823D01*
X153973753Y-119944471D01*
X153990359Y-120002494D01*
X154129290Y-120238605D01*
X154368125Y-120571380D01*
X154656870Y-120938569D01*
X154695879Y-120984428D01*
X154945533Y-121277920D01*
G37*
G36*
X154301073Y-107909857D02*
G01*
X153580970Y-108139974D01*
X153193146Y-108244381D01*
X152749428Y-108308123D01*
X152207282Y-108325108D01*
X151486124Y-108301550D01*
X151049938Y-108277555D01*
X150552308Y-108243652D01*
X150202536Y-108211754D01*
X150057502Y-108186446D01*
X150054574Y-108169726D01*
X150155626Y-108027588D01*
X150203070Y-107981434D01*
X150569629Y-107981434D01*
X150587270Y-107977771D01*
X150792938Y-107949764D01*
X151128814Y-107912068D01*
X151229300Y-107898748D01*
X151482479Y-107827145D01*
X151546602Y-107737685D01*
X151385977Y-107632008D01*
X151084535Y-107646228D01*
X150758313Y-107807052D01*
X150606657Y-107929730D01*
X150569629Y-107981434D01*
X150203070Y-107981434D01*
X150384822Y-107804624D01*
X150597459Y-107635303D01*
X150821040Y-107537150D01*
X151119237Y-107516013D01*
X151584264Y-107552510D01*
X152121533Y-107588997D01*
X152708464Y-107560131D01*
X153066842Y-107436700D01*
X153188186Y-107220461D01*
X153139081Y-107063849D01*
X152926330Y-106894721D01*
X152836150Y-106854255D01*
X152681926Y-106649269D01*
X152716306Y-106407488D01*
X152937469Y-106236547D01*
X153173857Y-106227305D01*
X153509650Y-106430972D01*
X153785889Y-106630920D01*
X154054954Y-106730824D01*
X154200309Y-106780392D01*
X154280429Y-106958321D01*
X154301073Y-107329731D01*
X154301073Y-107737685D01*
X154301073Y-107909857D01*
G37*
G36*
X146234099Y-126991521D02*
G01*
X146552753Y-127374399D01*
X146690463Y-127609307D01*
X146658339Y-127712902D01*
X146571723Y-127741311D01*
X146453173Y-127748061D01*
X146396789Y-127624416D01*
X146282882Y-127362191D01*
X146264371Y-127319525D01*
X146146344Y-127120028D01*
X145980327Y-127076315D01*
X145667197Y-127155035D01*
X145632758Y-127165908D01*
X145314876Y-127330016D01*
X145181795Y-127593559D01*
X145196130Y-128025626D01*
X145189256Y-128118350D01*
X145047983Y-128318208D01*
X144860646Y-128412501D01*
X144713852Y-128378959D01*
X144726283Y-128137762D01*
X144735614Y-128095453D01*
X144771335Y-127779385D01*
X144796806Y-127306811D01*
X144807017Y-126763020D01*
X144808557Y-126665200D01*
X145201588Y-126665200D01*
X145254172Y-127009415D01*
X145419593Y-127119934D01*
X145709601Y-127004617D01*
X145781572Y-126945861D01*
X145797496Y-126803253D01*
X145644137Y-126552489D01*
X145514112Y-126385569D01*
X145329643Y-126233514D01*
X145230891Y-126325223D01*
X145201588Y-126664824D01*
X145201588Y-126665200D01*
X144808557Y-126665200D01*
X144814960Y-126258563D01*
X144845033Y-125908072D01*
X144905632Y-125731503D01*
X145005196Y-125682866D01*
X145095100Y-125693807D01*
X145202356Y-125781061D01*
X145224269Y-125826857D01*
X145383553Y-126036595D01*
X145663271Y-126363836D01*
X146023207Y-126760593D01*
X146062166Y-126803253D01*
X146234099Y-126991521D01*
G37*
G36*
X137630674Y-128495022D02*
G01*
X137622754Y-129043701D01*
X137658216Y-129552736D01*
X137744901Y-129814563D01*
X137807999Y-129909107D01*
X137756280Y-129985043D01*
X137486371Y-130003484D01*
X137307114Y-129997341D01*
X137153045Y-129941348D01*
X137184801Y-129800224D01*
X137195832Y-129778336D01*
X137248495Y-129520238D01*
X137237890Y-129204704D01*
X137175978Y-128937685D01*
X137074721Y-128825134D01*
X137008380Y-128867936D01*
X136833347Y-129081560D01*
X136618893Y-129414309D01*
X136533168Y-129552400D01*
X136259840Y-129884564D01*
X136026897Y-130003484D01*
X135939258Y-129995831D01*
X135888180Y-129928090D01*
X135969388Y-129749741D01*
X136196768Y-129412467D01*
X136613355Y-128821449D01*
X136324997Y-128619476D01*
X136210707Y-128516762D01*
X136058236Y-128209901D01*
X136059947Y-128176566D01*
X136461336Y-128176566D01*
X136635167Y-128488462D01*
X136762769Y-128601651D01*
X137008591Y-128699196D01*
X137162037Y-128553993D01*
X137214990Y-128170494D01*
X137204158Y-127909104D01*
X137135720Y-127701812D01*
X136979320Y-127646783D01*
X136748601Y-127686574D01*
X136509701Y-127883461D01*
X136461336Y-128176566D01*
X136059947Y-128176566D01*
X136074524Y-127892474D01*
X136265763Y-127664312D01*
X136340047Y-127631508D01*
X136670706Y-127534210D01*
X137084062Y-127453051D01*
X137673238Y-127364404D01*
X137642891Y-128170494D01*
X137630674Y-128495022D01*
G37*
G36*
X121624015Y-102528743D02*
G01*
X121709679Y-102701251D01*
X121649384Y-103004181D01*
X121448842Y-103381327D01*
X121368077Y-103510743D01*
X121184262Y-103908696D01*
X121110866Y-104242285D01*
X121011791Y-104606534D01*
X120718083Y-105016878D01*
X120622165Y-105122618D01*
X120409957Y-105406839D01*
X120325299Y-105604861D01*
X120210064Y-105735383D01*
X119862373Y-105781835D01*
X119520640Y-105828848D01*
X119109538Y-106084868D01*
X119094913Y-106099962D01*
X118868885Y-106288255D01*
X118719298Y-106337677D01*
X118673089Y-106241661D01*
X118800427Y-106025444D01*
X119116522Y-105732942D01*
X119425732Y-105487658D01*
X118959021Y-105155588D01*
X118834028Y-105063250D01*
X118589478Y-104856335D01*
X118492310Y-104730632D01*
X118493647Y-104723035D01*
X118628744Y-104639713D01*
X118917825Y-104566290D01*
X119281043Y-104490346D01*
X119572464Y-104404223D01*
X119742025Y-104383714D01*
X119804499Y-104556744D01*
X119815945Y-104675546D01*
X119885129Y-104677617D01*
X120056115Y-104476217D01*
X120062470Y-104467892D01*
X120216699Y-104217145D01*
X120248056Y-104060713D01*
X120243915Y-104047913D01*
X120329147Y-103904442D01*
X120559962Y-103706352D01*
X120599994Y-103676263D01*
X120915909Y-103357882D01*
X121180451Y-102976237D01*
X121238136Y-102873871D01*
X121415140Y-102613113D01*
X121537533Y-102508639D01*
X121624015Y-102528743D01*
G37*
G36*
X126607604Y-125956197D02*
G01*
X126891379Y-126026601D01*
X127370016Y-126165415D01*
X127778675Y-126292779D01*
X127981495Y-126387638D01*
X128012323Y-126481149D01*
X127911956Y-126606518D01*
X127905424Y-126613357D01*
X127765435Y-126856523D01*
X127607813Y-127266710D01*
X127465445Y-127759029D01*
X127448163Y-127828425D01*
X127324682Y-128267228D01*
X127213163Y-128576915D01*
X127135904Y-128694206D01*
X126991185Y-128671571D01*
X126660965Y-128567448D01*
X126286690Y-128415688D01*
X125966587Y-128257453D01*
X125798886Y-128133907D01*
X125786577Y-128114183D01*
X125692943Y-127890549D01*
X125753401Y-127843876D01*
X125929033Y-128010937D01*
X126158275Y-128207354D01*
X126539709Y-128338256D01*
X126751797Y-128336396D01*
X126928520Y-128227431D01*
X127049211Y-127930074D01*
X127069773Y-127853281D01*
X127077921Y-127493080D01*
X126890902Y-127306910D01*
X126511640Y-127298208D01*
X126311635Y-127293848D01*
X126225733Y-127148924D01*
X126347980Y-126861216D01*
X126435834Y-126755756D01*
X126476903Y-126831725D01*
X126574161Y-126982766D01*
X126828096Y-127131386D01*
X127142552Y-127181113D01*
X127331133Y-127022819D01*
X127393398Y-126639819D01*
X127341083Y-126372367D01*
X127139205Y-126227642D01*
X126734788Y-126177726D01*
X126721363Y-126177274D01*
X126463493Y-126132837D01*
X126379756Y-126045785D01*
X126400753Y-125993572D01*
X126462719Y-125947441D01*
X126607604Y-125956197D01*
G37*
G36*
X123205712Y-106960185D02*
G01*
X123213597Y-107195923D01*
X123255930Y-107497049D01*
X123322632Y-107614824D01*
X123389317Y-107640583D01*
X123517524Y-107818016D01*
X123541312Y-107925025D01*
X123457311Y-107935805D01*
X123395052Y-107916560D01*
X123343396Y-108027201D01*
X123346718Y-108052504D01*
X123313839Y-108683973D01*
X123043941Y-109205500D01*
X122754754Y-109552361D01*
X122544431Y-109205500D01*
X122378197Y-108853594D01*
X122248638Y-108428955D01*
X122214794Y-108197825D01*
X122266032Y-108000577D01*
X122473997Y-107881095D01*
X122722913Y-107825749D01*
X123093465Y-107840354D01*
X123291017Y-107883042D01*
X123318481Y-107834996D01*
X123156500Y-107639592D01*
X123100787Y-107579196D01*
X122886412Y-107439650D01*
X122655290Y-107498191D01*
X122381710Y-107578436D01*
X122129668Y-107510539D01*
X122027361Y-107294632D01*
X121941803Y-107103868D01*
X121710941Y-106889823D01*
X121623984Y-106835686D01*
X121374669Y-106753044D01*
X121132927Y-106845865D01*
X120939369Y-106926766D01*
X120723677Y-106883742D01*
X120402889Y-106690122D01*
X120195284Y-106538487D01*
X120069291Y-106393344D01*
X120149872Y-106324826D01*
X120281478Y-106332302D01*
X120482732Y-106488486D01*
X120571062Y-106610694D01*
X120789812Y-106682637D01*
X121064106Y-106501938D01*
X121246528Y-106398455D01*
X121629983Y-106327687D01*
X122233105Y-106305546D01*
X123205712Y-106305546D01*
X123205712Y-106960185D01*
G37*
G36*
X148474784Y-124184573D02*
G01*
X148478086Y-124214199D01*
X148558744Y-124462098D01*
X148725366Y-124854504D01*
X148948555Y-125320908D01*
X149017464Y-125460657D01*
X149203092Y-125876177D01*
X149307141Y-126175106D01*
X149308607Y-126300310D01*
X149250828Y-126326531D01*
X149006305Y-126461312D01*
X148671176Y-126661450D01*
X148448968Y-126793208D01*
X148103500Y-126954323D01*
X147895303Y-126959452D01*
X147780642Y-126816193D01*
X147791359Y-126699163D01*
X148001506Y-126695370D01*
X148278454Y-126667032D01*
X148602432Y-126497416D01*
X148797317Y-126313309D01*
X148842395Y-126126284D01*
X148743075Y-125829330D01*
X148664104Y-125659082D01*
X148508239Y-125488710D01*
X148293856Y-125496352D01*
X148114027Y-125573996D01*
X147868361Y-125765398D01*
X147853011Y-125784571D01*
X147729676Y-125886438D01*
X147647954Y-125764183D01*
X147653538Y-125630169D01*
X147861593Y-125499637D01*
X148071847Y-125437586D01*
X148346250Y-125295325D01*
X148407291Y-125095540D01*
X148287377Y-124783745D01*
X148260820Y-124733584D01*
X148101459Y-124477778D01*
X147992801Y-124373587D01*
X147960418Y-124383268D01*
X147762078Y-124500327D01*
X147472452Y-124707570D01*
X147352143Y-124794692D01*
X147124802Y-124925403D01*
X147034578Y-124921360D01*
X147078142Y-124845560D01*
X147287534Y-124657139D01*
X147602501Y-124430336D01*
X147947168Y-124218240D01*
X148245660Y-124073943D01*
X148393313Y-124050543D01*
X148474784Y-124184573D01*
G37*
G36*
X123870952Y-125072407D02*
G01*
X123677721Y-125392026D01*
X123466468Y-125795342D01*
X123272213Y-126212654D01*
X123129978Y-126574258D01*
X123074784Y-126810452D01*
X123051589Y-126933128D01*
X122902641Y-126972711D01*
X122608829Y-126799916D01*
X122479610Y-126669144D01*
X122514978Y-126603524D01*
X122574343Y-126581975D01*
X122743774Y-126407818D01*
X122911330Y-126139676D01*
X123021455Y-125875681D01*
X123018593Y-125713960D01*
X122934573Y-125709060D01*
X122667872Y-125786005D01*
X122298662Y-125940297D01*
X122120963Y-126017930D01*
X121695589Y-126149692D01*
X121415280Y-126150003D01*
X121382807Y-126136226D01*
X121322357Y-126059728D01*
X121453500Y-125951626D01*
X121804389Y-125785551D01*
X122063417Y-125668728D01*
X122299870Y-125523523D01*
X122378132Y-125368919D01*
X122351076Y-125142742D01*
X122342052Y-125047302D01*
X122702140Y-125047302D01*
X122818148Y-125361836D01*
X122834167Y-125380855D01*
X123023011Y-125532845D01*
X123177306Y-125462235D01*
X123339657Y-125151870D01*
X123409577Y-124920679D01*
X123392943Y-124635517D01*
X123237619Y-124509188D01*
X122972984Y-124586955D01*
X122811400Y-124733159D01*
X122702140Y-125047302D01*
X122342052Y-125047302D01*
X122312004Y-124729525D01*
X122427739Y-124397529D01*
X122704063Y-124255455D01*
X123122346Y-124311384D01*
X123663959Y-124573394D01*
X123837783Y-124686434D01*
X124027540Y-124837251D01*
X124036352Y-124896628D01*
X124011141Y-124906189D01*
X123998920Y-124920679D01*
X123870952Y-125072407D01*
G37*
G36*
X129051509Y-126684479D02*
G01*
X129126455Y-126847484D01*
X129137474Y-126960293D01*
X129246974Y-127235580D01*
X129421555Y-127547451D01*
X129606707Y-127802829D01*
X129747922Y-127908639D01*
X129771739Y-127903394D01*
X129864629Y-127752516D01*
X129911055Y-127474418D01*
X129901681Y-127178942D01*
X129827174Y-126975935D01*
X129770501Y-126875448D01*
X129926472Y-126907410D01*
X130071184Y-126950231D01*
X130336673Y-126992144D01*
X130422408Y-127030674D01*
X130420609Y-127197696D01*
X130313688Y-127548587D01*
X130260702Y-127724470D01*
X130152436Y-128258553D01*
X130099878Y-128791338D01*
X130081693Y-129056381D01*
X130025148Y-129356189D01*
X129948495Y-129469507D01*
X129778148Y-129433955D01*
X129567148Y-129352835D01*
X129424918Y-129269606D01*
X129441150Y-129227119D01*
X129461663Y-129221008D01*
X129573602Y-129066328D01*
X129673117Y-128790034D01*
X129726491Y-128508126D01*
X129700003Y-128336607D01*
X129698647Y-128335317D01*
X129549138Y-128352715D01*
X129301415Y-128496721D01*
X129035587Y-128704778D01*
X128831760Y-128914329D01*
X128770043Y-129062819D01*
X128764424Y-129170616D01*
X128572929Y-129161015D01*
X128223619Y-129062312D01*
X127937113Y-128972421D01*
X127850476Y-128909743D01*
X127934545Y-128845227D01*
X128160157Y-128749823D01*
X128225105Y-128720895D01*
X128627491Y-128500509D01*
X129024338Y-128232926D01*
X129472921Y-127890775D01*
X129086248Y-127234976D01*
X128966908Y-127028615D01*
X128829629Y-126754849D01*
X128821343Y-126635955D01*
X128931251Y-126629776D01*
X129051509Y-126684479D01*
G37*
G36*
X159858075Y-115746083D02*
G01*
X160027717Y-115778480D01*
X160051002Y-115769893D01*
X160044000Y-115865084D01*
X159920596Y-116107437D01*
X159771007Y-116339282D01*
X159665806Y-116409190D01*
X159589882Y-116290473D01*
X159451379Y-116053757D01*
X159240810Y-115827927D01*
X159035034Y-115686261D01*
X158907713Y-115693249D01*
X158893724Y-115756285D01*
X158909850Y-116026663D01*
X158978486Y-116405490D01*
X159003801Y-116531302D01*
X159048046Y-117005929D01*
X159011833Y-117385289D01*
X158960727Y-117554068D01*
X158902996Y-117640670D01*
X158858340Y-117499876D01*
X158844488Y-117430558D01*
X158767172Y-117090286D01*
X158665447Y-116680027D01*
X158568456Y-116363159D01*
X158468160Y-116225097D01*
X158344086Y-116269132D01*
X158150942Y-116344295D01*
X157821470Y-116329547D01*
X157796011Y-116323043D01*
X157588080Y-116237279D01*
X157517837Y-116072394D01*
X157543563Y-115739860D01*
X157547409Y-115713569D01*
X157583913Y-115590856D01*
X157801936Y-115590856D01*
X157972770Y-115818185D01*
X158189727Y-115956940D01*
X158367112Y-115956954D01*
X158612678Y-115794604D01*
X158646299Y-115769037D01*
X158781950Y-115636363D01*
X158755566Y-115502944D01*
X158557124Y-115275057D01*
X158470949Y-115187586D01*
X158171417Y-114978493D01*
X157956668Y-115014058D01*
X157819312Y-115294474D01*
X157801936Y-115590856D01*
X157583913Y-115590856D01*
X157685092Y-115250727D01*
X157909324Y-114833394D01*
X158207617Y-114429930D01*
X158480118Y-114696101D01*
X158738036Y-114936251D01*
X159160425Y-115288034D01*
X159551374Y-115570289D01*
X159666651Y-115636363D01*
X159858075Y-115746083D01*
G37*
G36*
X142380694Y-96322691D02*
G01*
X142620738Y-96508717D01*
X142943083Y-96672489D01*
X143120681Y-96773734D01*
X143237671Y-97032817D01*
X143258488Y-97179757D01*
X143386402Y-97260434D01*
X143695918Y-97246676D01*
X143759809Y-97240163D01*
X144040267Y-97239618D01*
X144154165Y-97290089D01*
X144112101Y-97402033D01*
X143881111Y-97497171D01*
X143496332Y-97467215D01*
X143211087Y-97349830D01*
X143106743Y-97126085D01*
X143068258Y-96972845D01*
X142877619Y-96799611D01*
X142744396Y-96752552D01*
X142424548Y-96609452D01*
X142247926Y-96536038D01*
X141980679Y-96559073D01*
X141838902Y-96807617D01*
X141835578Y-96944206D01*
X141827500Y-97276192D01*
X141887070Y-97896149D01*
X141482215Y-97726416D01*
X141459581Y-97716651D01*
X141176478Y-97542633D01*
X141037617Y-97362077D01*
X140972498Y-97242783D01*
X140743690Y-97101000D01*
X140579292Y-97039061D01*
X140503301Y-96944206D01*
X141011897Y-96944206D01*
X141077361Y-97009670D01*
X141142825Y-96944206D01*
X141077361Y-96878742D01*
X141011897Y-96944206D01*
X140503301Y-96944206D01*
X140421297Y-96841846D01*
X140505348Y-96555632D01*
X140655430Y-96385388D01*
X141149626Y-96385388D01*
X141231574Y-96426627D01*
X141402055Y-96292731D01*
X141481216Y-96167982D01*
X141428439Y-96093175D01*
X141381015Y-96100082D01*
X141202906Y-96232813D01*
X141149626Y-96385388D01*
X140655430Y-96385388D01*
X140830877Y-96186371D01*
X141040831Y-95999240D01*
X141274034Y-95839063D01*
X141469783Y-95815730D01*
X141718558Y-95900058D01*
X142057751Y-96081217D01*
X142173789Y-96167982D01*
X142380694Y-96322691D01*
G37*
G36*
X110335729Y-89010249D02*
G01*
X110455098Y-89232019D01*
X110526839Y-89396530D01*
X110728099Y-89535118D01*
X111117699Y-89622512D01*
X111123805Y-89623419D01*
X111636816Y-89645165D01*
X112033974Y-89560312D01*
X112087096Y-89539278D01*
X112485256Y-89471711D01*
X112973046Y-89488765D01*
X113097724Y-89501288D01*
X113640822Y-89503226D01*
X114138959Y-89440078D01*
X114297095Y-89407873D01*
X114582369Y-89376836D01*
X114695402Y-89408861D01*
X114616703Y-89469681D01*
X114343616Y-89571309D01*
X113942567Y-89678774D01*
X113612825Y-89763690D01*
X113231201Y-89886736D01*
X113011066Y-89990027D01*
X112983344Y-90009471D01*
X112803158Y-90024032D01*
X112584811Y-89821707D01*
X112359141Y-89619197D01*
X112174302Y-89644240D01*
X112131326Y-89674566D01*
X111781643Y-89826296D01*
X111338502Y-89930645D01*
X110944038Y-89952051D01*
X110739220Y-89985127D01*
X110485791Y-90171088D01*
X110344759Y-90332221D01*
X110047464Y-90567581D01*
X109862624Y-90657318D01*
X109637980Y-90721152D01*
X109607231Y-90719368D01*
X109415621Y-90618858D01*
X109279690Y-90439966D01*
X109284855Y-90287572D01*
X109275084Y-90233147D01*
X109087327Y-90201422D01*
X108914055Y-90170357D01*
X108803650Y-90053216D01*
X108834013Y-89914929D01*
X108967053Y-89640874D01*
X109154928Y-89358829D01*
X109341210Y-89149963D01*
X109469472Y-89095447D01*
X109508554Y-89113769D01*
X109589516Y-89063531D01*
X109589559Y-89062021D01*
X109707525Y-88984032D01*
X109984493Y-88943556D01*
X110078344Y-88942705D01*
X110335729Y-89010249D01*
G37*
G36*
X137943396Y-94272450D02*
G01*
X137896036Y-94457057D01*
X138110391Y-94641679D01*
X138245434Y-94695906D01*
X138731712Y-94715521D01*
X139351091Y-94539697D01*
X139499727Y-94483823D01*
X139837646Y-94403124D01*
X139974246Y-94445594D01*
X139891371Y-94588858D01*
X139570863Y-94810539D01*
X139535606Y-94831247D01*
X139282549Y-95026439D01*
X139178908Y-95193413D01*
X139182662Y-95214087D01*
X139291774Y-95208103D01*
X139504757Y-95047133D01*
X139617173Y-94944773D01*
X139811747Y-94822481D01*
X140032265Y-94821273D01*
X140388520Y-94926115D01*
X140946433Y-95111216D01*
X140357258Y-95152214D01*
X139992189Y-95197658D01*
X139683128Y-95299150D01*
X139589834Y-95433307D01*
X139735351Y-95584123D01*
X139912738Y-95754006D01*
X139951210Y-95974830D01*
X139800815Y-96127366D01*
X139703852Y-96119632D01*
X139596620Y-95951830D01*
X139486668Y-95746745D01*
X139252774Y-95527741D01*
X138991085Y-95378311D01*
X138795706Y-95367150D01*
X138782285Y-95372695D01*
X138610090Y-95312454D01*
X138373888Y-95112998D01*
X138118181Y-94912177D01*
X137666691Y-94786158D01*
X137501040Y-94774206D01*
X137159259Y-94654629D01*
X136978449Y-94449546D01*
X136988673Y-94212154D01*
X137007299Y-94194721D01*
X137345918Y-94194721D01*
X137411382Y-94260185D01*
X137476846Y-94194721D01*
X137411382Y-94129257D01*
X137345918Y-94194721D01*
X137007299Y-94194721D01*
X137219992Y-93995652D01*
X137280346Y-93969465D01*
X137623409Y-93901956D01*
X138038291Y-93896867D01*
X138256981Y-93915056D01*
X138460909Y-93946227D01*
X138443340Y-93998107D01*
X138229681Y-94097302D01*
X138070447Y-94194721D01*
X137943396Y-94272450D01*
G37*
G36*
X158112808Y-118588635D02*
G01*
X157803392Y-119030180D01*
X157759372Y-119070345D01*
X157469571Y-119300681D01*
X157246949Y-119427429D01*
X157183136Y-119442557D01*
X156799255Y-119399580D01*
X156390958Y-119187565D01*
X156052407Y-118851880D01*
X155950312Y-118692353D01*
X155831570Y-118339095D01*
X155840539Y-117879863D01*
X155846966Y-117821584D01*
X155847290Y-117816790D01*
X156084630Y-117816790D01*
X156141209Y-118213525D01*
X156354666Y-118601157D01*
X156716256Y-118915131D01*
X156926306Y-119021809D01*
X157370086Y-119116350D01*
X157698936Y-119008649D01*
X157881568Y-118733990D01*
X157886695Y-118327654D01*
X157683028Y-117824925D01*
X157360918Y-117430766D01*
X156943101Y-117216873D01*
X156490562Y-117249362D01*
X156477096Y-117254238D01*
X156193677Y-117475509D01*
X156084630Y-117816790D01*
X155847290Y-117816790D01*
X155868442Y-117504011D01*
X155830930Y-117394811D01*
X155722366Y-117450108D01*
X155608070Y-117517723D01*
X155445483Y-117509579D01*
X155460174Y-117384481D01*
X155637048Y-117196334D01*
X155833953Y-117003273D01*
X155962411Y-116779773D01*
X156025683Y-116623316D01*
X156334302Y-116369788D01*
X156886897Y-116203241D01*
X156930479Y-116195593D01*
X157260936Y-116173964D01*
X157377877Y-116250129D01*
X157377846Y-116251860D01*
X157260852Y-116347356D01*
X156985093Y-116386989D01*
X156796997Y-116413913D01*
X156454965Y-116565956D01*
X156180848Y-116794710D01*
X156068598Y-117033864D01*
X156069305Y-117041224D01*
X156181972Y-117064235D01*
X156428650Y-116969207D01*
X156596211Y-116888828D01*
X156983633Y-116796125D01*
X157330548Y-116902782D01*
X157718289Y-117224927D01*
X158002633Y-117586538D01*
X158178613Y-118094521D01*
X158147565Y-118327654D01*
X158112808Y-118588635D01*
G37*
G36*
X161194731Y-110934597D02*
G01*
X161477727Y-111005512D01*
X161888575Y-111018948D01*
X162064385Y-111020254D01*
X162394666Y-111042579D01*
X162532387Y-111105141D01*
X162528032Y-111224140D01*
X162452977Y-111340214D01*
X162309564Y-111289604D01*
X162175435Y-111194609D01*
X161899337Y-111176954D01*
X161726507Y-111280804D01*
X161641095Y-111332126D01*
X161448221Y-111605181D01*
X161368229Y-111941177D01*
X161448632Y-112285170D01*
X161609424Y-112480849D01*
X161790077Y-112532713D01*
X161847443Y-112520400D01*
X161868972Y-112610299D01*
X161746704Y-112885306D01*
X161739551Y-112899118D01*
X161594639Y-113151859D01*
X161508005Y-113192353D01*
X161430601Y-113045449D01*
X161384594Y-112943099D01*
X161165882Y-112582603D01*
X160850874Y-112152977D01*
X160488139Y-111711449D01*
X160126248Y-111315244D01*
X160032795Y-111227421D01*
X160651073Y-111227421D01*
X160654021Y-111255491D01*
X160752601Y-111448256D01*
X160934304Y-111655898D01*
X161121745Y-111801689D01*
X161237537Y-111808902D01*
X161258701Y-111762805D01*
X161240248Y-111542659D01*
X161219790Y-111491943D01*
X161297985Y-111411732D01*
X161335989Y-111406700D01*
X161436640Y-111280804D01*
X161436609Y-111279175D01*
X161319642Y-111187800D01*
X161043856Y-111149876D01*
X161039539Y-111149880D01*
X160765032Y-111172937D01*
X160651073Y-111227421D01*
X160032795Y-111227421D01*
X159813769Y-111021589D01*
X159599274Y-110887712D01*
X159594772Y-110886648D01*
X159337397Y-110741185D01*
X159301947Y-110634689D01*
X160552246Y-110634689D01*
X160585609Y-110757092D01*
X160612508Y-110795850D01*
X160731990Y-110888020D01*
X160749900Y-110879496D01*
X160716537Y-110757092D01*
X160689638Y-110718335D01*
X160570155Y-110626165D01*
X160552246Y-110634689D01*
X159301947Y-110634689D01*
X159232013Y-110424595D01*
X159165239Y-110117517D01*
X159049696Y-109870165D01*
X158972901Y-109690649D01*
X159055865Y-109596085D01*
X159239234Y-109685666D01*
X159404482Y-109781359D01*
X159717743Y-109840598D01*
X159793585Y-109848371D01*
X160153921Y-110025551D01*
X160605849Y-110429773D01*
X160612480Y-110436691D01*
X160939633Y-110760293D01*
X161114089Y-110879496D01*
X161194731Y-110934597D01*
G37*
G36*
X163015981Y-89988493D02*
G01*
X162880086Y-90651146D01*
X162837889Y-90752802D01*
X162684679Y-90958043D01*
X162525473Y-90904387D01*
X162351750Y-90590864D01*
X162285611Y-90446711D01*
X162130494Y-90271294D01*
X161916457Y-90280818D01*
X161742570Y-90355665D01*
X161460850Y-90551291D01*
X161234293Y-90660039D01*
X160892487Y-90707289D01*
X160529507Y-90694925D01*
X160238096Y-90626177D01*
X160110995Y-90504276D01*
X160106392Y-90456353D01*
X160077733Y-90168690D01*
X160007360Y-90067986D01*
X159773757Y-90001098D01*
X159587600Y-89980807D01*
X159392415Y-89902902D01*
X159287077Y-89848700D01*
X159018839Y-89808639D01*
X158837046Y-89782346D01*
X158585270Y-89654383D01*
X158549258Y-89622609D01*
X158390051Y-89603004D01*
X158176947Y-89793069D01*
X158127630Y-89847807D01*
X157906277Y-90003412D01*
X157683111Y-89957075D01*
X157535210Y-89893172D01*
X157167680Y-89768879D01*
X156723238Y-89643012D01*
X156003134Y-89457884D01*
X157271587Y-89472419D01*
X157604879Y-89479495D01*
X158106746Y-89504034D01*
X158470959Y-89539982D01*
X158635419Y-89582332D01*
X158674595Y-89605198D01*
X158922020Y-89657021D01*
X159288649Y-89677711D01*
X159516572Y-89668887D01*
X159852672Y-89578873D01*
X160023784Y-89424380D01*
X161730596Y-89424380D01*
X161763959Y-89546783D01*
X161790858Y-89585540D01*
X161910341Y-89677711D01*
X161928250Y-89669186D01*
X161894887Y-89546783D01*
X161867988Y-89508026D01*
X161748505Y-89415855D01*
X161730596Y-89424380D01*
X160023784Y-89424380D01*
X160099653Y-89355880D01*
X160354420Y-89101992D01*
X160686858Y-88881843D01*
X160835906Y-88822727D01*
X161067519Y-88822587D01*
X161317443Y-89005900D01*
X161327864Y-89015557D01*
X161543673Y-89190795D01*
X161657823Y-89238314D01*
X161655352Y-89180850D01*
X161578264Y-88941087D01*
X161433375Y-88587939D01*
X161332338Y-88352296D01*
X161241859Y-88062413D01*
X161257207Y-87840848D01*
X161371899Y-87581466D01*
X161516982Y-87363276D01*
X161678869Y-87259539D01*
X161759434Y-87352562D01*
X161704040Y-87633745D01*
X161657980Y-87832930D01*
X161748910Y-87988283D01*
X162037259Y-88151130D01*
X162281059Y-88298251D01*
X162695134Y-88748767D01*
X162947219Y-89333274D01*
X162982471Y-89669186D01*
X163015981Y-89988493D01*
G37*
G36*
X159847161Y-112860308D02*
G01*
X159913498Y-112917402D01*
X160203874Y-113167320D01*
X160525323Y-113405446D01*
X160817266Y-113584916D01*
X161043674Y-113653882D01*
X161279649Y-113645746D01*
X161319160Y-113652605D01*
X161309500Y-113800065D01*
X161136422Y-114121213D01*
X161073360Y-114221622D01*
X160819296Y-114629160D01*
X160610321Y-114968377D01*
X160571472Y-115029429D01*
X160360751Y-115235729D01*
X160102286Y-115240018D01*
X159920159Y-115186384D01*
X159916695Y-115134220D01*
X160150285Y-115048249D01*
X160423123Y-114872946D01*
X160661591Y-114528606D01*
X160752616Y-114266429D01*
X160723505Y-114071686D01*
X160524029Y-113876178D01*
X160429675Y-113803830D01*
X160161432Y-113682296D01*
X159968815Y-113789093D01*
X159806919Y-114140791D01*
X159758521Y-114272576D01*
X159641603Y-114453486D01*
X159516404Y-114414382D01*
X159510884Y-114408752D01*
X159456406Y-114240647D01*
X159616743Y-114017195D01*
X159658574Y-113972460D01*
X159821565Y-113710036D01*
X159864612Y-113476226D01*
X159767310Y-113360077D01*
X159564282Y-113332037D01*
X159211551Y-113336223D01*
X159002573Y-113470509D01*
X158863087Y-113768433D01*
X158790277Y-113967408D01*
X158699842Y-114097413D01*
X158623811Y-114008134D01*
X158621537Y-113770626D01*
X158750756Y-113462332D01*
X158885038Y-113238082D01*
X158847933Y-113160302D01*
X158599645Y-113175202D01*
X158186990Y-113165444D01*
X157795373Y-113015971D01*
X157718113Y-112917402D01*
X158949011Y-112917402D01*
X159014475Y-112982866D01*
X159079939Y-112917402D01*
X159014475Y-112851938D01*
X158949011Y-112917402D01*
X157718113Y-112917402D01*
X157615489Y-112786474D01*
X158556227Y-112786474D01*
X158621691Y-112851938D01*
X158687155Y-112786474D01*
X158621691Y-112721010D01*
X158556227Y-112786474D01*
X157615489Y-112786474D01*
X157581136Y-112742646D01*
X157574337Y-112722566D01*
X157360926Y-112475921D01*
X156975173Y-112412058D01*
X156434422Y-112534130D01*
X156186462Y-112619269D01*
X155906576Y-112700625D01*
X155864910Y-112679984D01*
X156061873Y-112556015D01*
X156497873Y-112327385D01*
X156710678Y-112221643D01*
X157060842Y-112073297D01*
X157379001Y-112001991D01*
X157762596Y-111991487D01*
X158309070Y-112025544D01*
X158490941Y-112040088D01*
X158957469Y-112089544D01*
X159238122Y-112153761D01*
X159391419Y-112251621D01*
X159475882Y-112402003D01*
X159575652Y-112563685D01*
X159779578Y-112786474D01*
X159847161Y-112860308D01*
G37*
G36*
X152100799Y-89674917D02*
G01*
X152215166Y-89725683D01*
X152208258Y-89805353D01*
X152168819Y-89836104D01*
X151924865Y-89876284D01*
X151547717Y-89853271D01*
X151441483Y-89840883D01*
X151040870Y-89838872D01*
X150797305Y-89913603D01*
X150699911Y-89970048D01*
X150403628Y-90063624D01*
X150028297Y-90133557D01*
X149657150Y-90169734D01*
X149373423Y-90162041D01*
X149260351Y-90100363D01*
X149234246Y-90044676D01*
X149036980Y-89988290D01*
X148713261Y-90003750D01*
X148343706Y-90077570D01*
X148008929Y-90196269D01*
X147789547Y-90346362D01*
X147619052Y-90504426D01*
X147384920Y-90564747D01*
X147003980Y-90525807D01*
X146872141Y-90501423D01*
X146510330Y-90407076D01*
X146290505Y-90308787D01*
X146129013Y-90264935D01*
X145804846Y-90400626D01*
X145552672Y-90520555D01*
X145075981Y-90529911D01*
X144893583Y-90496926D01*
X144719674Y-90524759D01*
X144677877Y-90688429D01*
X144580479Y-90898007D01*
X144243066Y-91091615D01*
X144123484Y-91133683D01*
X143749403Y-91233836D01*
X143555136Y-91207481D01*
X143499526Y-91052453D01*
X143484754Y-90988342D01*
X143325438Y-90874978D01*
X143091769Y-90869838D01*
X142910351Y-90986989D01*
X142891684Y-91042695D01*
X142994273Y-91117917D01*
X143120758Y-91143232D01*
X143074081Y-91224135D01*
X142859610Y-91338456D01*
X142522006Y-91463198D01*
X142105927Y-91575364D01*
X141771167Y-91635937D01*
X141267715Y-91683770D01*
X140880970Y-91671024D01*
X140443268Y-91624925D01*
X140004529Y-91618016D01*
X139991039Y-91618666D01*
X139680252Y-91594340D01*
X139505823Y-91510046D01*
X139417094Y-91437890D01*
X139163454Y-91379773D01*
X139020193Y-91356408D01*
X138972720Y-91264695D01*
X139013228Y-91236022D01*
X139253094Y-91198746D01*
X139615448Y-91214045D01*
X139642649Y-91216962D01*
X140215161Y-91196128D01*
X140824498Y-90996500D01*
X141040104Y-90913376D01*
X141670028Y-90750633D01*
X142339139Y-90664683D01*
X142786919Y-90623018D01*
X143224740Y-90548891D01*
X143501094Y-90462439D01*
X143630803Y-90412977D01*
X144005240Y-90316624D01*
X144523842Y-90212015D01*
X145115628Y-90114448D01*
X145794714Y-90015344D01*
X146523821Y-89912965D01*
X147079165Y-89842924D01*
X147509612Y-89800661D01*
X147864031Y-89781619D01*
X148191287Y-89781238D01*
X148540248Y-89794959D01*
X148843856Y-89796505D01*
X149321749Y-89780453D01*
X149849526Y-89749727D01*
X149876238Y-89747825D01*
X150752879Y-89689510D01*
X151397374Y-89657484D01*
X151837441Y-89652402D01*
X152100799Y-89674917D01*
G37*
G36*
X146867546Y-107369012D02*
G01*
X146794209Y-107483896D01*
X146731091Y-107498598D01*
X146643766Y-107549360D01*
X146479268Y-107644982D01*
X146151026Y-107898314D01*
X145817696Y-108196503D01*
X145550611Y-108477461D01*
X145421101Y-108679098D01*
X145401606Y-108745808D01*
X145297786Y-108872300D01*
X145083357Y-108799970D01*
X144823280Y-108595800D01*
X144630276Y-108269900D01*
X144626890Y-107951629D01*
X144660551Y-107844356D01*
X144659153Y-107728041D01*
X144518893Y-107714986D01*
X144153879Y-107695837D01*
X143604904Y-107672352D01*
X142911771Y-107645820D01*
X142114280Y-107617531D01*
X141252233Y-107588773D01*
X140365431Y-107560834D01*
X139978201Y-107549360D01*
X144677877Y-107549360D01*
X144743341Y-107614824D01*
X144808805Y-107549360D01*
X144743341Y-107483896D01*
X144677877Y-107549360D01*
X139978201Y-107549360D01*
X139493675Y-107535003D01*
X138676766Y-107512570D01*
X137954506Y-107494822D01*
X137366695Y-107483048D01*
X136953134Y-107478536D01*
X136681617Y-107478120D01*
X135887396Y-107476695D01*
X135077280Y-107475001D01*
X134390143Y-107473320D01*
X134256454Y-107474158D01*
X133626375Y-107496052D01*
X132846368Y-107543118D01*
X132002894Y-107609531D01*
X131182411Y-107689465D01*
X130956893Y-107713092D01*
X130129204Y-107787262D01*
X129308467Y-107843946D01*
X128578952Y-107877951D01*
X128024927Y-107884082D01*
X127834322Y-107881900D01*
X127301811Y-107896479D01*
X126873246Y-107937391D01*
X126627408Y-107998203D01*
X126366265Y-108060992D01*
X125871029Y-108082140D01*
X125190948Y-108053552D01*
X125062367Y-108044143D01*
X124506890Y-107990362D01*
X124131220Y-107917948D01*
X123866180Y-107808603D01*
X123642591Y-107644033D01*
X123590798Y-107597339D01*
X123401875Y-107372437D01*
X123434835Y-107259138D01*
X123494493Y-107226068D01*
X123539187Y-107142939D01*
X124681378Y-107142939D01*
X124683405Y-107187633D01*
X124853220Y-107211704D01*
X124981916Y-107190738D01*
X124932323Y-107132602D01*
X124856610Y-107111684D01*
X124681378Y-107142939D01*
X123539187Y-107142939D01*
X123598495Y-107032629D01*
X123598516Y-107030839D01*
X123654122Y-106945080D01*
X123834885Y-106858531D01*
X124167730Y-106764758D01*
X124679578Y-106657331D01*
X125397353Y-106529818D01*
X126347980Y-106375786D01*
X126421098Y-106364370D01*
X128104601Y-106146926D01*
X129966782Y-105982922D01*
X131959220Y-105871934D01*
X134033494Y-105813535D01*
X136141183Y-105807303D01*
X138233866Y-105852810D01*
X140263121Y-105949634D01*
X142180528Y-106097347D01*
X143937664Y-106295526D01*
X145486110Y-106543746D01*
X145678632Y-106574639D01*
X146040154Y-106598719D01*
X146253438Y-106564665D01*
X146307365Y-106534879D01*
X146602783Y-106501368D01*
X146819470Y-106683178D01*
X146903650Y-107040919D01*
X146903038Y-107087748D01*
X146890042Y-107190738D01*
X146867546Y-107369012D01*
G37*
G36*
X149963458Y-121277341D02*
G01*
X149913198Y-121296783D01*
X149620402Y-121410046D01*
X149354192Y-121438512D01*
X149252052Y-121332009D01*
X149211757Y-121303502D01*
X149119820Y-121475372D01*
X149063834Y-121558639D01*
X148996500Y-121658784D01*
X148975803Y-121689567D01*
X148974643Y-121691292D01*
X148735155Y-121716706D01*
X148589514Y-121700160D01*
X148547794Y-121767241D01*
X148556418Y-121827940D01*
X148417047Y-121885958D01*
X148319499Y-121901982D01*
X148212928Y-122016886D01*
X148187947Y-122079457D01*
X148008810Y-122147814D01*
X147915329Y-122128805D01*
X147886223Y-122015893D01*
X147855814Y-121961789D01*
X147640716Y-122032980D01*
X147480650Y-122092371D01*
X147219342Y-122089468D01*
X146885055Y-121931660D01*
X146879562Y-121928442D01*
X146602864Y-121716357D01*
X146586018Y-121689567D01*
X147034578Y-121689567D01*
X147100042Y-121755030D01*
X147165506Y-121689567D01*
X147100042Y-121624103D01*
X147034578Y-121689567D01*
X146586018Y-121689567D01*
X146417611Y-121421747D01*
X146356254Y-121231319D01*
X146969114Y-121231319D01*
X146995986Y-121270501D01*
X147107769Y-121362247D01*
X147120835Y-121358843D01*
X147130675Y-121330753D01*
X147689217Y-121330753D01*
X147739952Y-121422570D01*
X147936769Y-121584785D01*
X148020543Y-121634803D01*
X148138764Y-121658784D01*
X148126711Y-121558639D01*
X148736640Y-121558639D01*
X148802104Y-121624103D01*
X148867567Y-121558639D01*
X148802104Y-121493175D01*
X148736640Y-121558639D01*
X148126711Y-121558639D01*
X148117891Y-121485352D01*
X148084082Y-121405539D01*
X147969764Y-121296783D01*
X148212928Y-121296783D01*
X148278392Y-121362247D01*
X148343856Y-121296783D01*
X148605712Y-121296783D01*
X148671176Y-121362247D01*
X148736640Y-121296783D01*
X148671176Y-121231319D01*
X148605712Y-121296783D01*
X148343856Y-121296783D01*
X148278392Y-121231319D01*
X148212928Y-121296783D01*
X147969764Y-121296783D01*
X147932758Y-121261577D01*
X147767114Y-121224379D01*
X147762032Y-121231319D01*
X147689217Y-121330753D01*
X147130675Y-121330753D01*
X147165506Y-121231319D01*
X147160177Y-121195433D01*
X147118685Y-121165855D01*
X149391279Y-121165855D01*
X149456743Y-121231319D01*
X149522207Y-121165855D01*
X149456743Y-121100391D01*
X149391279Y-121165855D01*
X147118685Y-121165855D01*
X147026851Y-121100391D01*
X146979495Y-121110671D01*
X146969114Y-121231319D01*
X146356254Y-121231319D01*
X146267348Y-120955387D01*
X146208505Y-120690362D01*
X146150493Y-120213516D01*
X146169924Y-119864242D01*
X146248069Y-119634686D01*
X146388934Y-119555519D01*
X146680813Y-119610596D01*
X146698216Y-119614999D01*
X147052067Y-119665750D01*
X147556568Y-119696021D01*
X148108521Y-119699395D01*
X148348376Y-119694738D01*
X148770562Y-119698481D01*
X149014991Y-119734945D01*
X149140983Y-119818350D01*
X149207860Y-119962914D01*
X149240452Y-120039551D01*
X149441404Y-120335244D01*
X149731065Y-120645201D01*
X149916242Y-120832097D01*
X150060957Y-121092389D01*
X150022229Y-121165855D01*
X149963458Y-121277341D01*
G37*
G36*
X113255196Y-106259057D02*
G01*
X113689738Y-106297644D01*
X114072709Y-106359658D01*
X114248010Y-106441315D01*
X114246790Y-106551813D01*
X114296736Y-106637705D01*
X114531865Y-106732573D01*
X114880997Y-106807290D01*
X115267338Y-106840159D01*
X115395527Y-106844697D01*
X115436737Y-106888353D01*
X115267338Y-107028455D01*
X115084194Y-107139663D01*
X114834068Y-107217877D01*
X114609627Y-107256254D01*
X114232552Y-107357302D01*
X113775061Y-107498526D01*
X113303587Y-107657487D01*
X112884567Y-107811749D01*
X112584436Y-107938874D01*
X112469629Y-108016425D01*
X112357216Y-108112649D01*
X112086789Y-108201816D01*
X111792898Y-108331931D01*
X111570897Y-108667572D01*
X111523648Y-108841602D01*
X111531897Y-109075798D01*
X111648575Y-109125584D01*
X111838764Y-108953667D01*
X112212480Y-108582893D01*
X112761816Y-108250807D01*
X113339944Y-108065270D01*
X113620130Y-108042761D01*
X114072775Y-108074926D01*
X114518861Y-108169166D01*
X114907774Y-108306240D01*
X115188903Y-108466907D01*
X115311635Y-108631925D01*
X115225358Y-108782052D01*
X115200778Y-108796605D01*
X114991113Y-108799241D01*
X114716524Y-108588149D01*
X114594766Y-108474780D01*
X114300415Y-108293531D01*
X114109033Y-108331511D01*
X114040763Y-108588702D01*
X114029720Y-108675810D01*
X113892033Y-109001057D01*
X113647308Y-109338719D01*
X113540502Y-109459370D01*
X113238459Y-109887268D01*
X113161274Y-110207606D01*
X113304615Y-110434230D01*
X113435507Y-110598476D01*
X113517052Y-110910162D01*
X113553905Y-111147082D01*
X113709280Y-111484903D01*
X113746606Y-111544704D01*
X113858548Y-111881778D01*
X113905672Y-112295494D01*
X113904518Y-112441787D01*
X113884177Y-112735240D01*
X113846129Y-112851938D01*
X113831564Y-112844475D01*
X113729116Y-112688411D01*
X113590954Y-112393690D01*
X113556641Y-112317215D01*
X113385446Y-112043826D01*
X113229145Y-111931087D01*
X113043824Y-111882064D01*
X112738423Y-111663542D01*
X112468165Y-111342549D01*
X112295459Y-110999334D01*
X112282715Y-110714143D01*
X112290382Y-110623147D01*
X112151703Y-110512881D01*
X111791266Y-110428000D01*
X111653991Y-110402406D01*
X111287523Y-110305148D01*
X111062155Y-110202546D01*
X110969055Y-110062024D01*
X110905358Y-109758426D01*
X110924021Y-109445806D01*
X111029423Y-109251422D01*
X111064413Y-109224717D01*
X111160351Y-109031272D01*
X111125421Y-108973223D01*
X110960795Y-109057656D01*
X110921148Y-109088640D01*
X110728413Y-109164230D01*
X110679328Y-109066053D01*
X110817445Y-108855521D01*
X110830568Y-108841531D01*
X110972266Y-108550478D01*
X111029423Y-108158316D01*
X111048965Y-107921020D01*
X111172700Y-107511529D01*
X111374392Y-107209109D01*
X111611829Y-107091113D01*
X111748932Y-107006960D01*
X111869917Y-106759163D01*
X111941307Y-106579558D01*
X112188760Y-106356921D01*
X112616158Y-106253901D01*
X113255196Y-106259057D01*
G37*
G36*
X146666676Y-98202792D02*
G01*
X146772722Y-98318948D01*
X146769415Y-98349833D01*
X146655802Y-98449876D01*
X146591845Y-98473178D01*
X146463352Y-98646703D01*
X146439427Y-98732228D01*
X146502851Y-98752678D01*
X146731582Y-98618290D01*
X146877412Y-98527197D01*
X147013178Y-98478901D01*
X147005188Y-98585123D01*
X147010024Y-98687372D01*
X147152033Y-98960800D01*
X147428997Y-99300907D01*
X147639443Y-99541161D01*
X147886812Y-99884580D01*
X148028434Y-100162138D01*
X148043465Y-100328913D01*
X147911065Y-100339981D01*
X147803395Y-100332041D01*
X147644757Y-100471733D01*
X147498986Y-100610519D01*
X147166808Y-100675649D01*
X147129379Y-100676090D01*
X146808531Y-100756212D01*
X146610555Y-101019246D01*
X146595372Y-101052252D01*
X146493935Y-101224653D01*
X146349609Y-101307893D01*
X146089943Y-101322015D01*
X145642487Y-101287063D01*
X145186257Y-101259539D01*
X144856936Y-101289335D01*
X144682603Y-101390057D01*
X144610703Y-101507837D01*
X144671519Y-101653679D01*
X144712992Y-101685403D01*
X144808805Y-101868390D01*
X144791703Y-101891223D01*
X144636101Y-101839828D01*
X144370931Y-101664271D01*
X144280681Y-101599592D01*
X143930182Y-101407559D01*
X143645353Y-101330288D01*
X143553556Y-101324502D01*
X143175263Y-101163472D01*
X142926355Y-100837650D01*
X142871486Y-100422849D01*
X142875026Y-100398062D01*
X142895482Y-100150963D01*
X142870929Y-100082253D01*
X142855429Y-100091761D01*
X142672335Y-100058144D01*
X142381938Y-99912854D01*
X142064745Y-99701880D01*
X141801262Y-99471212D01*
X141641566Y-99263917D01*
X141534944Y-98977347D01*
X141598546Y-98782714D01*
X141830196Y-98735357D01*
X142029918Y-98813603D01*
X142128717Y-99064805D01*
X142149062Y-99251539D01*
X142226912Y-99446678D01*
X142288239Y-99435442D01*
X142321176Y-99241233D01*
X142323208Y-99149454D01*
X142370742Y-99021310D01*
X142520524Y-99106968D01*
X142617741Y-99235465D01*
X142645980Y-99505224D01*
X142633938Y-99561458D01*
X142720831Y-99758622D01*
X142999078Y-99858055D01*
X143419376Y-99838512D01*
X143633049Y-99828071D01*
X143817377Y-99894922D01*
X143835626Y-100006944D01*
X143643627Y-100110557D01*
X143477831Y-100175269D01*
X143368598Y-100287428D01*
X143363958Y-100337815D01*
X143301673Y-100566745D01*
X143307330Y-100639088D01*
X143446540Y-100701769D01*
X143770014Y-100736582D01*
X144316364Y-100750522D01*
X144438848Y-100752193D01*
X144985223Y-100773411D01*
X145448864Y-100811846D01*
X145740221Y-100860577D01*
X145825002Y-100882013D01*
X146113924Y-100864568D01*
X146411670Y-100654776D01*
X146730100Y-100381251D01*
X147082279Y-100114482D01*
X147216490Y-100014990D01*
X147341452Y-99841842D01*
X147279694Y-99650076D01*
X147274720Y-99642333D01*
X147055839Y-99415527D01*
X146739985Y-99192404D01*
X146736063Y-99190154D01*
X146458302Y-99049337D01*
X146284554Y-99048569D01*
X146099442Y-99186849D01*
X145916873Y-99311603D01*
X145769439Y-99323225D01*
X145760369Y-99305813D01*
X145826181Y-99146372D01*
X146032098Y-98915675D01*
X146069589Y-98879752D01*
X146289959Y-98609698D01*
X146379939Y-98390664D01*
X146404243Y-98293316D01*
X146576330Y-98188020D01*
X146666676Y-98202792D01*
G37*
G36*
X124359668Y-101253767D02*
G01*
X124542768Y-101606158D01*
X124838038Y-102034357D01*
X125114563Y-102287894D01*
X125345418Y-102353108D01*
X125503676Y-102216340D01*
X125562413Y-101863929D01*
X125634566Y-101519588D01*
X125824268Y-101163634D01*
X125826255Y-101161104D01*
X126009858Y-100871946D01*
X126086124Y-100642558D01*
X126144366Y-100469466D01*
X126336205Y-100228058D01*
X126440347Y-100120912D01*
X126643068Y-99768595D01*
X126677173Y-99426093D01*
X126527966Y-99174173D01*
X126364435Y-99091751D01*
X126087316Y-99066267D01*
X125938404Y-99063047D01*
X125702696Y-98919396D01*
X125647152Y-98845586D01*
X125635403Y-98709923D01*
X125845549Y-98597602D01*
X126098976Y-98432071D01*
X126340151Y-98137185D01*
X126509434Y-97899284D01*
X126671238Y-97795237D01*
X126816278Y-97832359D01*
X127038937Y-98042863D01*
X127133547Y-98345134D01*
X127138127Y-98459973D01*
X127182061Y-98550742D01*
X127307487Y-98523418D01*
X127556041Y-98363651D01*
X127969361Y-98057092D01*
X128255231Y-97847120D01*
X128601187Y-97619926D01*
X128773488Y-97550106D01*
X128762380Y-97640371D01*
X128558108Y-97893433D01*
X128364050Y-98151164D01*
X128097325Y-98585177D01*
X127846242Y-99064740D01*
X127830572Y-99097577D01*
X127585357Y-99556411D01*
X127381927Y-99805289D01*
X127189101Y-99883039D01*
X127013977Y-99914000D01*
X126663374Y-100155443D01*
X126374420Y-100608210D01*
X126164723Y-101239279D01*
X126051893Y-102015630D01*
X126027633Y-102253157D01*
X125928168Y-102714375D01*
X125785893Y-103002417D01*
X125677169Y-103175790D01*
X125647558Y-103526057D01*
X125676146Y-103769392D01*
X125640103Y-104143136D01*
X125512512Y-104371498D01*
X125258185Y-104485890D01*
X124983853Y-104416877D01*
X124783355Y-104162356D01*
X124752756Y-104096454D01*
X124535572Y-103795638D01*
X124230152Y-103496345D01*
X124130198Y-103411419D01*
X123931608Y-103186843D01*
X123966551Y-103072864D01*
X124003447Y-103052511D01*
X124032634Y-102916376D01*
X123911876Y-102748766D01*
X123709257Y-102618470D01*
X123492861Y-102594276D01*
X123450093Y-102600293D01*
X123244960Y-102495041D01*
X123081354Y-102219383D01*
X122991877Y-101849626D01*
X123009131Y-101462078D01*
X123010950Y-101453920D01*
X123109338Y-101181384D01*
X123223842Y-101068433D01*
X123269134Y-101055810D01*
X123265659Y-100928579D01*
X123207827Y-100873666D01*
X122996077Y-100859006D01*
X122902134Y-100870160D01*
X122812928Y-100737004D01*
X122827024Y-100650474D01*
X122943856Y-100544721D01*
X122983202Y-100541490D01*
X123017074Y-100494831D01*
X123415150Y-100494831D01*
X123430118Y-100677509D01*
X123487592Y-100838646D01*
X123602089Y-101005190D01*
X123650913Y-100987395D01*
X123635945Y-100804717D01*
X123578471Y-100643579D01*
X123463974Y-100477036D01*
X123415150Y-100494831D01*
X123017074Y-100494831D01*
X123066414Y-100426865D01*
X122950948Y-100158930D01*
X122888799Y-100082866D01*
X122763621Y-100086822D01*
X122564526Y-100289858D01*
X122562552Y-100292234D01*
X122374302Y-100560597D01*
X122293573Y-100757814D01*
X122259420Y-100864043D01*
X122090409Y-101070438D01*
X122066138Y-101092394D01*
X121871072Y-101343806D01*
X121677002Y-101687668D01*
X121449842Y-102054539D01*
X121171351Y-102232484D01*
X120864399Y-102158098D01*
X120629420Y-102095827D01*
X120259835Y-102131330D01*
X119867052Y-102234573D01*
X120175064Y-101979697D01*
X120431536Y-101828972D01*
X120764239Y-101792087D01*
X120919897Y-101793504D01*
X121090875Y-101685386D01*
X121304759Y-101425137D01*
X121601846Y-100973371D01*
X121662834Y-100874885D01*
X121914677Y-100435287D01*
X122091534Y-100072795D01*
X122158289Y-99857808D01*
X122187223Y-99735525D01*
X122345329Y-99628226D01*
X122492244Y-99589843D01*
X122737814Y-99422781D01*
X122821820Y-99353061D01*
X123086951Y-99204692D01*
X123385238Y-99092471D01*
X123628716Y-99045621D01*
X123729423Y-99093362D01*
X123662285Y-99221803D01*
X123467567Y-99431835D01*
X123293839Y-99621491D01*
X123205712Y-99796821D01*
X123257654Y-99912695D01*
X123447814Y-100129010D01*
X123684596Y-100327079D01*
X123868043Y-100413793D01*
X123872433Y-100414502D01*
X123978985Y-100540133D01*
X124153208Y-100840068D01*
X124226733Y-100987395D01*
X124359668Y-101253767D01*
G37*
G36*
X111302150Y-110995489D02*
G01*
X111418550Y-111324725D01*
X111394831Y-111506768D01*
X111393199Y-111519296D01*
X111370685Y-111570551D01*
X111415753Y-111818789D01*
X111483214Y-111979085D01*
X111600515Y-112257804D01*
X111929717Y-112899809D01*
X111971157Y-112979373D01*
X112125690Y-113276072D01*
X112202877Y-113441113D01*
X112348215Y-113751874D01*
X112468314Y-114081813D01*
X112469942Y-114226487D01*
X112391893Y-114224680D01*
X112338701Y-114054047D01*
X112336219Y-113988838D01*
X112219687Y-113688816D01*
X111964401Y-113589588D01*
X111619548Y-113714386D01*
X111511657Y-113789280D01*
X111375383Y-113942547D01*
X111447126Y-114062816D01*
X111536055Y-114143796D01*
X111406570Y-114118772D01*
X111351671Y-114109500D01*
X111074036Y-114166941D01*
X110751968Y-114325105D01*
X110484369Y-114527025D01*
X110370144Y-114715735D01*
X110369995Y-114719379D01*
X110313331Y-114737292D01*
X110187886Y-114560587D01*
X110095119Y-114366379D01*
X110123247Y-114209166D01*
X110356185Y-114062154D01*
X110633483Y-113895920D01*
X110898495Y-113688439D01*
X110963131Y-113622768D01*
X111023925Y-113532991D01*
X110886740Y-113570924D01*
X110817101Y-113586250D01*
X110589212Y-113512311D01*
X110533418Y-113441113D01*
X111160351Y-113441113D01*
X111225815Y-113506577D01*
X111291279Y-113441113D01*
X111225815Y-113375649D01*
X111160351Y-113441113D01*
X110533418Y-113441113D01*
X110437173Y-113318296D01*
X110437619Y-113310185D01*
X110636640Y-113310185D01*
X110702104Y-113375649D01*
X110767567Y-113310185D01*
X110702104Y-113244721D01*
X110636640Y-113310185D01*
X110437619Y-113310185D01*
X110444813Y-113179257D01*
X111029423Y-113179257D01*
X111094887Y-113244721D01*
X111160351Y-113179257D01*
X111094887Y-113113793D01*
X111029423Y-113179257D01*
X110444813Y-113179257D01*
X110449206Y-113099299D01*
X110484231Y-113019950D01*
X110395013Y-113035827D01*
X110326952Y-113063778D01*
X110243856Y-112998319D01*
X110248744Y-112959916D01*
X110374784Y-112786474D01*
X110498308Y-112631368D01*
X110468276Y-112524618D01*
X110767567Y-112524618D01*
X110833031Y-112590082D01*
X110898495Y-112524618D01*
X110848910Y-112475033D01*
X111044009Y-112475033D01*
X111076317Y-112524618D01*
X111162487Y-112656866D01*
X111206685Y-112699216D01*
X111207721Y-112881214D01*
X111181038Y-112951973D01*
X111293299Y-112916153D01*
X111404427Y-112879130D01*
X111384711Y-113022658D01*
X111367825Y-113179257D01*
X111363171Y-113222412D01*
X111470743Y-113310185D01*
X111477857Y-113315990D01*
X111665499Y-113201625D01*
X111672386Y-113192788D01*
X111706977Y-112979373D01*
X111607752Y-112735777D01*
X111435145Y-112557898D01*
X111249588Y-112541635D01*
X111173962Y-112567817D01*
X111258547Y-112452176D01*
X111361573Y-112322479D01*
X111403974Y-112134467D01*
X111225815Y-112066371D01*
X111160748Y-112081478D01*
X111047935Y-112241225D01*
X111044009Y-112475033D01*
X110848910Y-112475033D01*
X110833031Y-112459154D01*
X110767567Y-112524618D01*
X110468276Y-112524618D01*
X110437063Y-112413670D01*
X110171009Y-112217758D01*
X109962595Y-112071938D01*
X109948480Y-112018466D01*
X110136088Y-112018466D01*
X110243856Y-112066371D01*
X110313169Y-112056922D01*
X110331141Y-111979085D01*
X110311952Y-111963416D01*
X110156571Y-111979085D01*
X110136088Y-112018466D01*
X109948480Y-112018466D01*
X109923564Y-111924072D01*
X109932455Y-111903902D01*
X109850602Y-111888923D01*
X109613570Y-111988313D01*
X109589323Y-112001211D01*
X109311695Y-112205630D01*
X109173644Y-112410610D01*
X109156858Y-112460506D01*
X109065084Y-112434058D01*
X108906837Y-112156558D01*
X108785316Y-111879804D01*
X108769814Y-111750173D01*
X108875116Y-111759471D01*
X109095486Y-111768365D01*
X109425427Y-111579889D01*
X109700169Y-111266796D01*
X110112928Y-111266796D01*
X110140232Y-111335119D01*
X110320028Y-111463188D01*
X110570369Y-111536951D01*
X110709654Y-111506768D01*
X110636640Y-111346268D01*
X110617980Y-111325020D01*
X110406029Y-111182436D01*
X110203362Y-111157820D01*
X110112928Y-111266796D01*
X109700169Y-111266796D01*
X109768351Y-111189097D01*
X109979389Y-110822556D01*
X110243856Y-110822556D01*
X110309320Y-110888020D01*
X110374784Y-110822556D01*
X110309320Y-110757092D01*
X110243856Y-110822556D01*
X109979389Y-110822556D01*
X110093157Y-110624957D01*
X110464498Y-109845314D01*
X110724863Y-110137544D01*
X110765427Y-110183863D01*
X111074332Y-110594299D01*
X111203949Y-110822556D01*
X111302150Y-110995489D01*
G37*
G36*
X130883107Y-110560701D02*
G01*
X130894520Y-110660811D01*
X130767651Y-110736560D01*
X130430103Y-110757092D01*
X130349520Y-110759238D01*
X129918777Y-110848824D01*
X129609038Y-111040981D01*
X129497164Y-111280804D01*
X129490248Y-111295630D01*
X129436694Y-111433034D01*
X129261124Y-111662271D01*
X129215735Y-111703927D01*
X128964834Y-111831760D01*
X128548865Y-111925092D01*
X127919538Y-111995932D01*
X127728913Y-112014129D01*
X127237694Y-112081690D01*
X126872034Y-112162163D01*
X126699879Y-112241847D01*
X126648190Y-112269654D01*
X126675284Y-112099926D01*
X126688862Y-112048937D01*
X126693842Y-111875719D01*
X126552933Y-111884811D01*
X126452500Y-111938285D01*
X126347980Y-112079097D01*
X126272989Y-112095353D01*
X126080129Y-111966893D01*
X126044114Y-111936180D01*
X125904154Y-111794066D01*
X125960559Y-111719548D01*
X126243789Y-111654477D01*
X126366233Y-111630051D01*
X126521080Y-111591116D01*
X126443502Y-111577895D01*
X126118856Y-111581879D01*
X125836891Y-111594490D01*
X125611747Y-111646446D01*
X125613280Y-111761799D01*
X125820682Y-111967457D01*
X125956090Y-112108597D01*
X126158265Y-112512219D01*
X126197840Y-112950553D01*
X126076112Y-113342602D01*
X125794382Y-113607366D01*
X125744952Y-113631015D01*
X125466848Y-113740356D01*
X125324533Y-113704833D01*
X125236248Y-113510216D01*
X125178338Y-113397297D01*
X124953128Y-113114974D01*
X124638250Y-112810285D01*
X124450262Y-112640010D01*
X124214392Y-112389008D01*
X124122207Y-112233011D01*
X124065681Y-112130346D01*
X123859504Y-111918375D01*
X123579546Y-111682428D01*
X123308407Y-111490786D01*
X123128691Y-111411732D01*
X123128460Y-111411732D01*
X123135348Y-111494140D01*
X123283615Y-111691499D01*
X123533031Y-111971266D01*
X123130712Y-111765596D01*
X123122147Y-111761190D01*
X122792591Y-111557239D01*
X122558237Y-111354901D01*
X122375364Y-111225712D01*
X122319876Y-111212708D01*
X125459458Y-111212708D01*
X125475128Y-111368089D01*
X125514508Y-111388572D01*
X125562413Y-111280804D01*
X125552964Y-111211491D01*
X125475128Y-111193518D01*
X125459458Y-111212708D01*
X122319876Y-111212708D01*
X122051770Y-111149876D01*
X121864393Y-111145454D01*
X121804270Y-111100189D01*
X121968297Y-110964995D01*
X122121171Y-110838123D01*
X122104883Y-110741908D01*
X121869596Y-110619941D01*
X121610897Y-110462084D01*
X121449498Y-110281111D01*
X121444605Y-110267027D01*
X121486415Y-110133028D01*
X121669457Y-110103696D01*
X121904786Y-110172167D01*
X122103455Y-110331577D01*
X122197022Y-110419994D01*
X122436448Y-110453643D01*
X122659885Y-110301144D01*
X122788000Y-110000827D01*
X122795364Y-109954280D01*
X122848124Y-109814035D01*
X122985620Y-109806825D01*
X123284742Y-109920168D01*
X123358277Y-109949288D01*
X123673350Y-110037867D01*
X123864614Y-110034354D01*
X123918701Y-110022689D01*
X123915520Y-110147533D01*
X123926545Y-110295136D01*
X124103259Y-110510520D01*
X124392887Y-110685135D01*
X124714329Y-110757092D01*
X124888119Y-110782549D01*
X125169861Y-110920752D01*
X125227360Y-110971223D01*
X125287101Y-111006720D01*
X125180015Y-110855288D01*
X125037414Y-110723525D01*
X124772399Y-110626165D01*
X124669423Y-110611821D01*
X124631942Y-110560701D01*
X125300557Y-110560701D01*
X125366021Y-110626165D01*
X125431485Y-110560701D01*
X125366021Y-110495237D01*
X125300557Y-110560701D01*
X124631942Y-110560701D01*
X124571884Y-110478789D01*
X124591157Y-110429773D01*
X129883031Y-110429773D01*
X129948495Y-110495237D01*
X130013959Y-110429773D01*
X129948495Y-110364309D01*
X129883031Y-110429773D01*
X124591157Y-110429773D01*
X124667475Y-110235676D01*
X124947248Y-109918681D01*
X124997391Y-109871134D01*
X125213023Y-109635867D01*
X125300557Y-109484797D01*
X125341341Y-109433130D01*
X125566373Y-109307400D01*
X125922464Y-109167187D01*
X126015440Y-109136816D01*
X126442984Y-109038526D01*
X126910952Y-109016206D01*
X127526330Y-109062897D01*
X127594501Y-109070293D01*
X128083406Y-109121974D01*
X128468655Y-109160450D01*
X128671949Y-109177864D01*
X128763357Y-109224901D01*
X128835609Y-109433620D01*
X128916992Y-109628347D01*
X129181773Y-109768871D01*
X129655417Y-109860478D01*
X130363375Y-109911126D01*
X130741162Y-109934898D01*
X131114711Y-109979755D01*
X131314737Y-110031736D01*
X131404848Y-110165285D01*
X131307031Y-110302881D01*
X131057764Y-110364309D01*
X130904827Y-110398098D01*
X130900596Y-110429773D01*
X130883107Y-110560701D01*
G37*
G36*
X119691922Y-114485006D02*
G01*
X119831847Y-114670372D01*
X120051974Y-114934084D01*
X120059363Y-114942624D01*
X120247437Y-115187953D01*
X120325299Y-115344080D01*
X120326717Y-115351998D01*
X120464149Y-115456184D01*
X120774680Y-115595358D01*
X121185329Y-115743014D01*
X121623113Y-115872647D01*
X122015049Y-115957752D01*
X122233816Y-115984343D01*
X122390679Y-115955236D01*
X122383367Y-115825358D01*
X122372073Y-115784316D01*
X122429086Y-115605351D01*
X122593339Y-115523770D01*
X122750998Y-115607140D01*
X122851667Y-115716461D01*
X122975302Y-115684204D01*
X123019716Y-115441848D01*
X123046277Y-115265551D01*
X123196157Y-115110496D01*
X123391943Y-115138152D01*
X123534438Y-115363599D01*
X123549722Y-115410366D01*
X123763539Y-115685574D01*
X124108851Y-115904761D01*
X124475629Y-115994206D01*
X124584453Y-116007845D01*
X124625786Y-116116721D01*
X124443681Y-116346074D01*
X124316902Y-116502822D01*
X124306478Y-116693939D01*
X124543810Y-116800998D01*
X125029064Y-116824135D01*
X125288541Y-116811093D01*
X125624336Y-116775309D01*
X125786115Y-116730641D01*
X125799113Y-116700396D01*
X125792809Y-116478323D01*
X125725981Y-116136136D01*
X125697367Y-116014780D01*
X125647263Y-115704397D01*
X125658984Y-115548493D01*
X125710006Y-115532091D01*
X125865632Y-115626613D01*
X126017669Y-115824167D01*
X126086124Y-116033857D01*
X126093619Y-116106273D01*
X126164756Y-116406747D01*
X126286699Y-116791629D01*
X126354719Y-117074360D01*
X126409436Y-117301793D01*
X126360181Y-117861427D01*
X126075729Y-118331902D01*
X125996207Y-118412653D01*
X125790573Y-118532076D01*
X125577738Y-118461020D01*
X125551651Y-118445495D01*
X125280645Y-118377979D01*
X124904771Y-118463263D01*
X124597320Y-118540346D01*
X124306378Y-118508928D01*
X123921803Y-118348965D01*
X123718042Y-118262123D01*
X123325967Y-118168760D01*
X123048891Y-118204477D01*
X122943856Y-118368155D01*
X122857281Y-118481918D01*
X122613181Y-118614038D01*
X122378495Y-118744698D01*
X122206390Y-118938117D01*
X122135053Y-119039004D01*
X121897157Y-119136474D01*
X121746321Y-119065909D01*
X121542079Y-118785777D01*
X121296546Y-118271789D01*
X121296153Y-118270867D01*
X121069755Y-117808575D01*
X120829442Y-117427230D01*
X120627175Y-117209309D01*
X120497892Y-117098074D01*
X123750380Y-117098074D01*
X123802818Y-117258244D01*
X124056743Y-117303484D01*
X124092530Y-117303088D01*
X124324161Y-117248020D01*
X124359137Y-117074360D01*
X124288384Y-116944553D01*
X124056743Y-116845237D01*
X123902606Y-116885828D01*
X123754348Y-117074360D01*
X123750380Y-117098074D01*
X120497892Y-117098074D01*
X120424717Y-117035114D01*
X120325299Y-116851657D01*
X120285555Y-116755056D01*
X120095543Y-116513287D01*
X119801588Y-116221656D01*
X119601803Y-116030401D01*
X119368709Y-115764351D01*
X119277877Y-115594971D01*
X119254206Y-115514182D01*
X119114217Y-115570272D01*
X119108239Y-115574932D01*
X118863535Y-115693400D01*
X118514327Y-115795452D01*
X118415504Y-115814302D01*
X118076518Y-115806295D01*
X117794224Y-115625348D01*
X117696066Y-115551858D01*
X117326767Y-115381148D01*
X116888444Y-115270406D01*
X116681002Y-115233207D01*
X116383446Y-115147579D01*
X116266537Y-115062845D01*
X116231894Y-115001232D01*
X116037413Y-114943872D01*
X115784071Y-114868749D01*
X115480970Y-114684927D01*
X115180809Y-114503863D01*
X114891794Y-114415647D01*
X114763958Y-114392822D01*
X114792533Y-114336716D01*
X114959538Y-114337692D01*
X115307122Y-114410920D01*
X115742281Y-114543444D01*
X116207969Y-114690357D01*
X116744650Y-114801333D01*
X117072181Y-114777835D01*
X117183031Y-114619463D01*
X117126555Y-114497355D01*
X116888444Y-114421067D01*
X116721392Y-114410249D01*
X116397663Y-114270371D01*
X116209896Y-113932092D01*
X116124570Y-113746577D01*
X116052096Y-113685162D01*
X117313959Y-113685162D01*
X117338444Y-113716859D01*
X117517071Y-113864260D01*
X117811976Y-114077946D01*
X117949290Y-114165649D01*
X118327777Y-114348310D01*
X118630275Y-114419234D01*
X118761873Y-114415466D01*
X118854709Y-114380222D01*
X118779494Y-114266718D01*
X118522976Y-114026450D01*
X118142535Y-113757210D01*
X117704677Y-113637505D01*
X117702260Y-113637506D01*
X117427937Y-113651601D01*
X117313959Y-113685162D01*
X116052096Y-113685162D01*
X115995858Y-113637505D01*
X115941158Y-113615343D01*
X115879057Y-113445242D01*
X115901234Y-113213260D01*
X116005574Y-113047777D01*
X116027809Y-113039102D01*
X116237539Y-113081176D01*
X116525831Y-113242897D01*
X116717779Y-113368026D01*
X116960881Y-113443915D01*
X117198884Y-113367165D01*
X117304995Y-113319428D01*
X117601686Y-113284609D01*
X118020638Y-113375716D01*
X118158400Y-113424552D01*
X118591018Y-113637516D01*
X119050194Y-113924661D01*
X119446854Y-114226865D01*
X119592445Y-114380222D01*
X119691922Y-114485006D01*
G37*
G36*
X148715042Y-115322670D02*
G01*
X148577134Y-115453563D01*
X148474784Y-115718189D01*
X148423794Y-115877025D01*
X148196885Y-116036337D01*
X148087997Y-116074345D01*
X147969857Y-116218895D01*
X147979519Y-116521453D01*
X147986853Y-116575228D01*
X147981402Y-116833388D01*
X147849612Y-117028933D01*
X147537316Y-117251260D01*
X147208436Y-117534375D01*
X147035927Y-117848418D01*
X147047842Y-118127643D01*
X147259255Y-118314414D01*
X147354209Y-118362730D01*
X147337469Y-118444376D01*
X147095595Y-118566255D01*
X147016727Y-118599531D01*
X146698949Y-118715062D01*
X146548701Y-118713781D01*
X146510866Y-118598755D01*
X146482623Y-118534942D01*
X146314475Y-118529182D01*
X146212991Y-118545965D01*
X146118083Y-118451540D01*
X146091574Y-118367563D01*
X145960970Y-118455649D01*
X145812003Y-118558504D01*
X145439698Y-118618108D01*
X145026774Y-118514941D01*
X144654570Y-118276463D01*
X144404428Y-117930136D01*
X144394169Y-117904903D01*
X144318967Y-117620385D01*
X144339427Y-117305341D01*
X144461043Y-116855458D01*
X144525934Y-116637181D01*
X144948543Y-116637181D01*
X144996925Y-116754883D01*
X145136124Y-116779773D01*
X145250650Y-116731171D01*
X145332516Y-116517917D01*
X145353709Y-116365873D01*
X145445787Y-116256061D01*
X145449721Y-116256204D01*
X145628481Y-116335873D01*
X145891954Y-116517917D01*
X145909161Y-116531425D01*
X146181534Y-116726174D01*
X146332946Y-116765447D01*
X146433148Y-116668673D01*
X146405867Y-116510144D01*
X146239383Y-116275890D01*
X145976954Y-115994206D01*
X146276642Y-115990042D01*
X146655771Y-115906958D01*
X146937236Y-115628335D01*
X147034578Y-115170296D01*
X147030861Y-115037252D01*
X146958801Y-114751695D01*
X146766439Y-114617469D01*
X146582436Y-114593475D01*
X146334111Y-114668631D01*
X146181146Y-114734651D01*
X145883783Y-114730070D01*
X145697088Y-114699838D01*
X145657950Y-114790859D01*
X145740315Y-115064507D01*
X145784385Y-115206079D01*
X145823981Y-115589970D01*
X145697137Y-115799190D01*
X145412819Y-115813237D01*
X145253293Y-115787326D01*
X145106777Y-115865457D01*
X145021255Y-116143036D01*
X144979335Y-116362116D01*
X144948543Y-116637181D01*
X144525934Y-116637181D01*
X144543030Y-116579673D01*
X144640049Y-116195651D01*
X144677877Y-115957390D01*
X144735915Y-115785460D01*
X144941126Y-115562811D01*
X144997277Y-115523199D01*
X145126314Y-115400547D01*
X145101189Y-115262585D01*
X144917871Y-115014192D01*
X144877913Y-114963223D01*
X144721877Y-114737001D01*
X144723663Y-114604245D01*
X144876037Y-114471052D01*
X145057450Y-114360794D01*
X145333407Y-114301623D01*
X145487860Y-114430857D01*
X145499060Y-114448514D01*
X145632606Y-114419078D01*
X145848913Y-114234466D01*
X146163728Y-113899360D01*
X145780854Y-113878735D01*
X145474348Y-113869298D01*
X145201588Y-113874978D01*
X145104235Y-113875899D01*
X144740849Y-113786586D01*
X144417852Y-113598495D01*
X144245670Y-113369964D01*
X144243642Y-113360597D01*
X144276223Y-113124594D01*
X144404186Y-112748738D01*
X144596404Y-112297236D01*
X144821753Y-111834298D01*
X145049108Y-111424131D01*
X145247343Y-111130945D01*
X145385333Y-111018948D01*
X145507587Y-110990364D01*
X145778194Y-110819633D01*
X146016758Y-110574778D01*
X146120994Y-110348952D01*
X146135972Y-110229104D01*
X146328254Y-109878922D01*
X146682447Y-109614144D01*
X147122873Y-109498972D01*
X147264483Y-109489522D01*
X147757693Y-109427599D01*
X148257518Y-109333841D01*
X148400849Y-109303331D01*
X148851639Y-109256310D01*
X149153479Y-109329760D01*
X149243796Y-109365078D01*
X149597791Y-109423735D01*
X150025384Y-109426613D01*
X150446816Y-109432857D01*
X151133866Y-109621711D01*
X151150920Y-109629732D01*
X151734767Y-109801444D01*
X152475876Y-109865144D01*
X152887615Y-109882415D01*
X153199733Y-109926112D01*
X153319114Y-109986231D01*
X153213476Y-110067100D01*
X152946446Y-110102453D01*
X152934371Y-110102560D01*
X152549771Y-110167098D01*
X152148008Y-110314855D01*
X152061737Y-110354878D01*
X151802723Y-110435631D01*
X151468472Y-110474147D01*
X150997328Y-110474722D01*
X150327635Y-110441651D01*
X149691162Y-110408432D01*
X149212710Y-110406164D01*
X148830930Y-110444764D01*
X148462602Y-110532803D01*
X148024507Y-110678851D01*
X147654118Y-110800531D01*
X147175133Y-110908980D01*
X146905491Y-110889005D01*
X146631904Y-110858022D01*
X146269686Y-110987013D01*
X145919983Y-111238199D01*
X145668408Y-111564813D01*
X145657308Y-111587472D01*
X145543236Y-111972788D01*
X145612767Y-112232813D01*
X145856227Y-112328226D01*
X145986145Y-112355893D01*
X146165430Y-112524618D01*
X146314933Y-112658955D01*
X146629958Y-112721010D01*
X146923245Y-112758004D01*
X147100042Y-112851938D01*
X147184447Y-112922745D01*
X147435088Y-112982866D01*
X147579816Y-113004654D01*
X147689217Y-113104441D01*
X147691797Y-113139447D01*
X147837844Y-113378614D01*
X148144844Y-113563399D01*
X148524576Y-113637505D01*
X148893168Y-113590864D01*
X149251623Y-113374104D01*
X149414749Y-112989609D01*
X149416639Y-112975787D01*
X149469471Y-112806707D01*
X149607883Y-112690791D01*
X149889823Y-112598443D01*
X150373238Y-112500066D01*
X150703688Y-112440813D01*
X151668948Y-112294387D01*
X152431628Y-112228785D01*
X153026955Y-112242112D01*
X153490161Y-112332474D01*
X153628918Y-112378121D01*
X153968686Y-112508995D01*
X154163598Y-112612848D01*
X154206807Y-112637591D01*
X154469119Y-112697176D01*
X154843243Y-112721010D01*
X154925188Y-112722211D01*
X155284927Y-112766038D01*
X155467241Y-112853694D01*
X155444780Y-112958840D01*
X155190190Y-113055133D01*
X154878098Y-113136389D01*
X154464614Y-113271297D01*
X154149223Y-113340869D01*
X153905028Y-113242015D01*
X153814892Y-113191662D01*
X153480432Y-113131762D01*
X153020198Y-113139229D01*
X152498789Y-113202030D01*
X151980802Y-113308128D01*
X151530833Y-113445490D01*
X151213480Y-113602079D01*
X151093341Y-113765861D01*
X151097791Y-113826908D01*
X151145040Y-113892826D01*
X151288256Y-113954292D01*
X151580617Y-114031906D01*
X152075299Y-114146270D01*
X152252426Y-114181096D01*
X152767225Y-114246430D01*
X153371144Y-114288178D01*
X154005863Y-114306371D01*
X154613059Y-114301043D01*
X155134412Y-114272225D01*
X155511599Y-114219951D01*
X155686298Y-114144253D01*
X155821611Y-114060506D01*
X156221980Y-113986605D01*
X156879140Y-113950510D01*
X157398010Y-113940543D01*
X157696571Y-113944256D01*
X157790643Y-113970152D01*
X157709168Y-114026445D01*
X157481086Y-114121349D01*
X157395272Y-114159201D01*
X157081374Y-114361861D01*
X156912814Y-114575472D01*
X156829700Y-114717926D01*
X156655518Y-114767643D01*
X156522072Y-114767731D01*
X156307295Y-114910207D01*
X156227340Y-115018830D01*
X156256004Y-115081999D01*
X156498645Y-115050642D01*
X156512374Y-115048054D01*
X156759626Y-115017910D01*
X156760824Y-115064696D01*
X156519312Y-115186021D01*
X156038440Y-115379493D01*
X155698292Y-115486456D01*
X155153162Y-115589832D01*
X154624878Y-115625390D01*
X154191070Y-115589487D01*
X153929367Y-115478480D01*
X153754558Y-115370724D01*
X153415705Y-115372571D01*
X153079988Y-115578692D01*
X152883634Y-115744561D01*
X152607854Y-115907232D01*
X152472679Y-116040710D01*
X152451135Y-116312085D01*
X152567729Y-116621042D01*
X152804643Y-116879538D01*
X152957141Y-117033573D01*
X153050391Y-117278176D01*
X153043660Y-117355195D01*
X152985817Y-117387870D01*
X152838029Y-117205288D01*
X152657506Y-117008667D01*
X152463752Y-116910701D01*
X152426597Y-116903790D01*
X152214463Y-116768113D01*
X151960861Y-116513636D01*
X151934182Y-116482847D01*
X151579086Y-116161268D01*
X151196387Y-115922306D01*
X151175074Y-115912671D01*
X150927069Y-115792213D01*
X150904855Y-115744890D01*
X151093341Y-115744688D01*
X151245859Y-115751074D01*
X151645510Y-115734264D01*
X151939898Y-115630566D01*
X152247814Y-115405030D01*
X152299570Y-115363479D01*
X152642597Y-115156678D01*
X152945231Y-115066679D01*
X152975850Y-115065246D01*
X153090095Y-115033739D01*
X152999567Y-114950343D01*
X152684352Y-114794263D01*
X152299087Y-114640548D01*
X152019301Y-114608635D01*
X151738506Y-114688851D01*
X151474236Y-114769985D01*
X151252697Y-114722786D01*
X150968930Y-114514111D01*
X150870914Y-114434994D01*
X150341294Y-114138687D01*
X149831410Y-114094766D01*
X149313661Y-114299655D01*
X149124790Y-114426822D01*
X148922773Y-114645516D01*
X148899608Y-114881300D01*
X148898406Y-115071518D01*
X148826289Y-115170296D01*
X148715042Y-115322670D01*
G37*
G36*
X129821096Y-90935877D02*
G01*
X130072332Y-91052963D01*
X130270057Y-91056012D01*
X130333984Y-91022702D01*
X130405040Y-91048729D01*
X130333120Y-91209662D01*
X130135041Y-91455718D01*
X129976523Y-91684493D01*
X129994686Y-91826109D01*
X130082382Y-91831208D01*
X130201491Y-91676262D01*
X130286707Y-91522769D01*
X130539792Y-91276166D01*
X130863114Y-91071499D01*
X131172848Y-90957789D01*
X131385167Y-90984056D01*
X131442443Y-91043234D01*
X131505395Y-91294467D01*
X131375183Y-91543767D01*
X131087248Y-91705331D01*
X130745072Y-91791212D01*
X131165083Y-91994629D01*
X131218171Y-92021258D01*
X131478951Y-92185284D01*
X131585093Y-92312621D01*
X131586332Y-92331109D01*
X131693954Y-92423223D01*
X131902549Y-92384407D01*
X132108805Y-92230804D01*
X132341756Y-92093304D01*
X132684879Y-92034412D01*
X133039715Y-91982985D01*
X133370309Y-91843653D01*
X133520512Y-91751399D01*
X133701368Y-91743918D01*
X133927222Y-91918009D01*
X133927629Y-91918387D01*
X134261195Y-92126932D01*
X134663367Y-92256405D01*
X134728906Y-92268332D01*
X134980645Y-92349039D01*
X135047888Y-92438186D01*
X135009223Y-92475222D01*
X134817607Y-92484052D01*
X134656834Y-92487398D01*
X134396285Y-92611884D01*
X134385261Y-92623587D01*
X134241567Y-92776132D01*
X134285751Y-92937003D01*
X134581884Y-93063305D01*
X135134148Y-93158133D01*
X135507516Y-93194666D01*
X135800289Y-93177875D01*
X136024171Y-93067862D01*
X136282518Y-92835597D01*
X136400778Y-92724657D01*
X136663443Y-92511740D01*
X136826721Y-92427195D01*
X136856805Y-92423425D01*
X136953134Y-92296268D01*
X136952705Y-92280313D01*
X136868933Y-92168534D01*
X136671260Y-92244721D01*
X136404946Y-92492659D01*
X136309307Y-92591448D01*
X136061734Y-92769905D01*
X135858868Y-92829853D01*
X135774784Y-92741984D01*
X135775435Y-92734935D01*
X135846561Y-92563449D01*
X135999405Y-92283737D01*
X136046385Y-92208374D01*
X136293003Y-91968079D01*
X136646620Y-91903484D01*
X136956697Y-91855507D01*
X137240298Y-91662407D01*
X137430377Y-91447708D01*
X137856916Y-91222141D01*
X138340762Y-91243607D01*
X138442934Y-91274383D01*
X138604025Y-91333035D01*
X138538423Y-91357899D01*
X138228571Y-91368519D01*
X138162038Y-91370209D01*
X137887002Y-91394138D01*
X137816197Y-91470865D01*
X137900014Y-91641628D01*
X138036390Y-91803296D01*
X138228443Y-91903484D01*
X138289845Y-91912951D01*
X138393341Y-92034412D01*
X138485215Y-92122887D01*
X138740693Y-92165340D01*
X139088046Y-92165340D01*
X138797557Y-92417279D01*
X138598825Y-92615266D01*
X138520623Y-92747372D01*
X138522627Y-92760256D01*
X138437838Y-93015020D01*
X138106445Y-93194267D01*
X137533174Y-93295374D01*
X137194287Y-93335856D01*
X136747235Y-93420411D01*
X136446036Y-93515492D01*
X136135329Y-93667048D01*
X136446036Y-93761436D01*
X136520375Y-93807638D01*
X136362476Y-93834196D01*
X135971176Y-93834376D01*
X135615292Y-93816582D01*
X135248234Y-93777475D01*
X135054681Y-93729216D01*
X134964060Y-93685443D01*
X134666703Y-93572143D01*
X134269114Y-93439169D01*
X133939262Y-93354442D01*
X133401474Y-93303099D01*
X132975373Y-93373399D01*
X132723504Y-93560435D01*
X132707461Y-93583397D01*
X132493689Y-93756736D01*
X132167061Y-93927439D01*
X132023194Y-93993441D01*
X131782320Y-94184987D01*
X131716021Y-94449896D01*
X131737498Y-94672747D01*
X131836674Y-94762888D01*
X132055521Y-94688111D01*
X132435828Y-94448325D01*
X132478329Y-94419819D01*
X132965261Y-94133215D01*
X133444041Y-93912410D01*
X133845620Y-93785152D01*
X134100947Y-93779188D01*
X134157133Y-93824311D01*
X134021037Y-93857065D01*
X133784259Y-93931226D01*
X133497326Y-94128452D01*
X133440453Y-94182221D01*
X132821684Y-94750783D01*
X132365018Y-95134302D01*
X132279959Y-95191965D01*
X132058694Y-95341964D01*
X131890950Y-95382953D01*
X131834816Y-95377968D01*
X131583456Y-95458304D01*
X131259762Y-95642031D01*
X130972819Y-95832213D01*
X130769238Y-95938901D01*
X130685116Y-95913161D01*
X130668598Y-95765855D01*
X130577223Y-95622794D01*
X130257517Y-95569463D01*
X129925731Y-95509646D01*
X129694691Y-95361941D01*
X129673019Y-95333222D01*
X129551553Y-95236781D01*
X129377763Y-95267205D01*
X129069084Y-95434004D01*
X128792791Y-95623121D01*
X128471315Y-95930937D01*
X128289208Y-96223611D01*
X128290568Y-96443940D01*
X128367720Y-96497252D01*
X128651684Y-96586432D01*
X129051486Y-96654603D01*
X129248481Y-96675570D01*
X129563423Y-96685351D01*
X129721007Y-96625378D01*
X129791890Y-96478882D01*
X129804925Y-96439373D01*
X129958810Y-96230326D01*
X130172440Y-96099420D01*
X130341732Y-96115450D01*
X130360787Y-96193737D01*
X130328926Y-96427929D01*
X130233013Y-96605602D01*
X129928814Y-96866751D01*
X129518099Y-97063118D01*
X129094581Y-97140598D01*
X128815818Y-97178063D01*
X128634656Y-97278904D01*
X128634163Y-97279691D01*
X128454945Y-97364985D01*
X128146033Y-97377100D01*
X128132824Y-97375747D01*
X127869675Y-97310183D01*
X127701790Y-97134968D01*
X127556836Y-96776351D01*
X127533479Y-96705106D01*
X127443580Y-96360688D01*
X127458830Y-96127408D01*
X127582503Y-95892588D01*
X127772231Y-95668969D01*
X127948631Y-95569463D01*
X128010852Y-95551931D01*
X128243812Y-95402695D01*
X128535043Y-95150749D01*
X128772659Y-94938789D01*
X128979332Y-94831442D01*
X129123905Y-94888894D01*
X129209285Y-94965133D01*
X129367947Y-95036127D01*
X129559733Y-94999737D01*
X129612486Y-94966830D01*
X130087525Y-94966830D01*
X130092321Y-95074035D01*
X130188897Y-95118127D01*
X130483384Y-95196659D01*
X130813006Y-95242028D01*
X131081428Y-95243906D01*
X131192310Y-95191965D01*
X131191095Y-95173554D01*
X131073626Y-94956016D01*
X130844731Y-94746649D01*
X130618807Y-94652969D01*
X130454820Y-94690988D01*
X130236354Y-94816757D01*
X130087525Y-94966830D01*
X129612486Y-94966830D01*
X129822163Y-94836036D01*
X130192759Y-94525095D01*
X130709038Y-94046987D01*
X130758489Y-94000654D01*
X131075797Y-93740206D01*
X131327686Y-93638058D01*
X131603519Y-93655056D01*
X131738038Y-93672802D01*
X132101731Y-93642068D01*
X132386499Y-93520186D01*
X132501588Y-93339084D01*
X132493551Y-93316298D01*
X132326295Y-93241889D01*
X132010609Y-93210975D01*
X131872110Y-93208981D01*
X131350409Y-93153763D01*
X131010672Y-93006188D01*
X130793624Y-92743487D01*
X130700244Y-92623587D01*
X131061382Y-92623587D01*
X131126846Y-92689051D01*
X131192310Y-92623587D01*
X131126846Y-92558123D01*
X131061382Y-92623587D01*
X130700244Y-92623587D01*
X130629005Y-92532115D01*
X130424515Y-92427195D01*
X130406366Y-92426048D01*
X130169971Y-92324126D01*
X129890196Y-92107630D01*
X129762187Y-92006381D01*
X129359291Y-91789637D01*
X128901073Y-91633225D01*
X128335645Y-91484878D01*
X127928758Y-91346100D01*
X127726550Y-91232567D01*
X127755454Y-91155304D01*
X127765988Y-91151383D01*
X127916149Y-91028639D01*
X127853766Y-90921525D01*
X128835609Y-90921525D01*
X128901073Y-90986989D01*
X128966537Y-90921525D01*
X128901073Y-90856061D01*
X128835609Y-90921525D01*
X127853766Y-90921525D01*
X127846784Y-90909537D01*
X127591794Y-90856061D01*
X127378291Y-90894500D01*
X127264475Y-91052453D01*
X127249703Y-91116564D01*
X127090387Y-91229929D01*
X126856718Y-91235069D01*
X126675299Y-91117917D01*
X126590894Y-91047110D01*
X126340253Y-90986989D01*
X126194646Y-90951316D01*
X126086124Y-90790598D01*
X126006569Y-90660466D01*
X125745215Y-90572354D01*
X125383521Y-90583779D01*
X125211111Y-90536923D01*
X124941535Y-90389082D01*
X124690067Y-90270199D01*
X124531252Y-90300368D01*
X124465288Y-90348864D01*
X124193553Y-90443331D01*
X123804156Y-90522111D01*
X123678584Y-90539803D01*
X123325303Y-90564807D01*
X123113533Y-90507085D01*
X122953125Y-90348216D01*
X122949943Y-90344138D01*
X122715405Y-90183527D01*
X122353043Y-90063195D01*
X121955197Y-89998355D01*
X121614208Y-90004223D01*
X121422415Y-90096013D01*
X121268594Y-90154449D01*
X120949578Y-90156299D01*
X120562744Y-90108097D01*
X120202543Y-90021901D01*
X119963423Y-89909767D01*
X119917494Y-89883013D01*
X119633630Y-89831673D01*
X119240386Y-89849968D01*
X119110190Y-89864001D01*
X118734061Y-89863700D01*
X118489376Y-89804055D01*
X118428939Y-89755467D01*
X118472563Y-89690069D01*
X118754165Y-89655716D01*
X119183680Y-89647398D01*
X119605196Y-89664221D01*
X119679609Y-89669858D01*
X120105249Y-89685969D01*
X120568517Y-89685958D01*
X120662642Y-89685443D01*
X121152510Y-89718352D01*
X121576852Y-89794068D01*
X121910910Y-89845891D01*
X122541709Y-89781168D01*
X122647498Y-89757317D01*
X123030584Y-89715066D01*
X123300899Y-89748798D01*
X123442222Y-89798420D01*
X123651032Y-89822823D01*
X123735647Y-89822309D01*
X124028303Y-89860614D01*
X124426567Y-89936451D01*
X124568388Y-89964965D01*
X124998265Y-90009893D01*
X125218514Y-89943053D01*
X125224323Y-89937327D01*
X125409340Y-89831935D01*
X125671471Y-89837800D01*
X126058788Y-89964477D01*
X126619365Y-90221524D01*
X126756762Y-90287553D01*
X127297881Y-90505357D01*
X127828872Y-90625981D01*
X128484844Y-90682838D01*
X128945632Y-90718467D01*
X129484715Y-90809023D01*
X129783039Y-90921525D01*
X129821096Y-90935877D01*
G37*
G36*
X116808151Y-118490968D02*
G01*
X116970632Y-118571044D01*
X117218043Y-118678226D01*
X117248672Y-118691495D01*
X117374376Y-118720092D01*
X117437345Y-118615974D01*
X117474382Y-118547299D01*
X118099526Y-118547299D01*
X118164990Y-118612762D01*
X118230454Y-118547299D01*
X118164990Y-118481835D01*
X118099526Y-118547299D01*
X117474382Y-118547299D01*
X117568121Y-118373484D01*
X117710762Y-118188410D01*
X117925339Y-118144919D01*
X117961553Y-118158617D01*
X118358582Y-118280931D01*
X118644442Y-118320193D01*
X118754165Y-118266846D01*
X118643479Y-118164361D01*
X118345945Y-118015596D01*
X117928501Y-117847053D01*
X117458134Y-117683736D01*
X117001834Y-117550646D01*
X116626588Y-117472784D01*
X116537465Y-117458932D01*
X116251082Y-117381676D01*
X116135609Y-117293004D01*
X116101328Y-117238963D01*
X115891330Y-117089100D01*
X115553617Y-116913973D01*
X115482539Y-116882338D01*
X115049572Y-116723422D01*
X114711337Y-116653591D01*
X114516258Y-116678055D01*
X114512762Y-116802022D01*
X114540048Y-116887050D01*
X114408384Y-116878819D01*
X114220806Y-116918795D01*
X113878875Y-117149498D01*
X113409823Y-117563230D01*
X113050836Y-117897051D01*
X112768157Y-118118443D01*
X112578941Y-118177714D01*
X112434669Y-118087747D01*
X112286823Y-117861427D01*
X112257624Y-117776028D01*
X112365205Y-117764898D01*
X112414383Y-117762795D01*
X112642252Y-117643834D01*
X112980693Y-117393916D01*
X113376232Y-117050811D01*
X113529191Y-116907851D01*
X113873702Y-116568521D01*
X114055926Y-116343036D01*
X114104235Y-116189792D01*
X114047001Y-116067185D01*
X113812597Y-115896452D01*
X113498248Y-115906363D01*
X113093688Y-116122300D01*
X112574618Y-116552270D01*
X111828577Y-117241162D01*
X111360459Y-116546092D01*
X111313481Y-116475746D01*
X111074405Y-116077308D01*
X110984153Y-115813163D01*
X111022365Y-115628027D01*
X111076184Y-115542267D01*
X111140098Y-115518398D01*
X111159281Y-115732350D01*
X111224421Y-116028471D01*
X111404676Y-116369804D01*
X111491630Y-116475335D01*
X111683075Y-116602100D01*
X111903512Y-116540612D01*
X112254763Y-116297003D01*
X112373640Y-116044175D01*
X112262085Y-115756159D01*
X112079149Y-115569603D01*
X111848006Y-115470494D01*
X111780027Y-115468167D01*
X111726603Y-115422696D01*
X111887464Y-115285167D01*
X111900428Y-115275739D01*
X112071597Y-115185102D01*
X112187942Y-115260735D01*
X112317993Y-115543807D01*
X112358486Y-115644412D01*
X112477307Y-115871955D01*
X112618837Y-115907269D01*
X112875133Y-115791236D01*
X113065724Y-115690162D01*
X113219045Y-115560060D01*
X113207707Y-115385333D01*
X113055442Y-115071209D01*
X112855065Y-114804666D01*
X112589468Y-114684927D01*
X112443793Y-114657471D01*
X112404165Y-114554000D01*
X112444663Y-114499204D01*
X112648674Y-114429597D01*
X112903826Y-114603207D01*
X113196654Y-115012247D01*
X113336670Y-115233998D01*
X113591740Y-115515888D01*
X113840781Y-115601422D01*
X114047594Y-115640849D01*
X114313246Y-115810619D01*
X114315865Y-115813749D01*
X114554744Y-115954862D01*
X114945668Y-115945362D01*
X115232230Y-115927721D01*
X115573809Y-116014542D01*
X115999164Y-116250608D01*
X116218406Y-116381084D01*
X116645476Y-116593347D01*
X116986640Y-116713472D01*
X117542282Y-116834675D01*
X118202047Y-116998339D01*
X118692392Y-117158341D01*
X119067016Y-117337122D01*
X119379616Y-117557128D01*
X119683892Y-117840800D01*
X119811276Y-117976631D01*
X120177256Y-118473296D01*
X120209162Y-118547299D01*
X120352745Y-118880321D01*
X120377869Y-118938592D01*
X120385252Y-119071010D01*
X120392552Y-119201938D01*
X120399636Y-119329004D01*
X120315122Y-119463793D01*
X120229080Y-119601020D01*
X120201183Y-119622032D01*
X120114387Y-119725649D01*
X120090790Y-119753819D01*
X120088486Y-119949683D01*
X120099385Y-119987505D01*
X120189158Y-120299027D01*
X120193853Y-120314824D01*
X120257666Y-120529530D01*
X120258502Y-120535793D01*
X120297654Y-120829207D01*
X120255594Y-121161271D01*
X120254337Y-121165855D01*
X120164581Y-121493175D01*
X120126486Y-121632100D01*
X120065948Y-121820494D01*
X120006368Y-122005905D01*
X119888485Y-122266749D01*
X119765791Y-122366159D01*
X119601374Y-122354946D01*
X119410334Y-122331378D01*
X119220800Y-122379322D01*
X119216494Y-122382954D01*
X119030802Y-122429533D01*
X118663434Y-122462575D01*
X118189200Y-122475134D01*
X118185756Y-122475134D01*
X117693563Y-122483547D01*
X117404586Y-122518604D01*
X117260768Y-122595227D01*
X117204054Y-122728335D01*
X117196814Y-122816842D01*
X117312912Y-123080023D01*
X117591236Y-123236601D01*
X117957036Y-123236164D01*
X118127565Y-123198397D01*
X118217217Y-123220384D01*
X118116227Y-123369911D01*
X117998114Y-123500200D01*
X117882497Y-123588020D01*
X117877197Y-123587674D01*
X117707519Y-123508820D01*
X117441094Y-123339139D01*
X117178765Y-123147275D01*
X117021376Y-123001869D01*
X116933351Y-122781517D01*
X116970701Y-122409005D01*
X117186126Y-122079550D01*
X117337820Y-121887648D01*
X117310120Y-121753214D01*
X117108703Y-121731841D01*
X116775712Y-121847370D01*
X116411939Y-121969036D01*
X115935683Y-121937747D01*
X115540440Y-121690944D01*
X115263100Y-121255459D01*
X115206612Y-120980115D01*
X115462171Y-120980115D01*
X115525199Y-121370518D01*
X115693708Y-121602823D01*
X116007171Y-121735836D01*
X116376648Y-121633974D01*
X116490172Y-121537482D01*
X117343782Y-121537482D01*
X117461208Y-121696535D01*
X117536086Y-121760236D01*
X117852668Y-121914796D01*
X118214604Y-121986232D01*
X118528357Y-121963923D01*
X118700389Y-121837249D01*
X118702384Y-121820494D01*
X119146949Y-121820494D01*
X119212413Y-121885958D01*
X119277877Y-121820494D01*
X119212413Y-121755030D01*
X119146949Y-121820494D01*
X118702384Y-121820494D01*
X118741121Y-121495246D01*
X118739402Y-121493175D01*
X119081485Y-121493175D01*
X119082905Y-121495246D01*
X119108358Y-121532357D01*
X119220140Y-121624103D01*
X119233206Y-121620699D01*
X119277877Y-121493175D01*
X119272548Y-121457289D01*
X119139222Y-121362247D01*
X119091866Y-121372527D01*
X119081485Y-121493175D01*
X118739402Y-121493175D01*
X118575299Y-121295489D01*
X118233514Y-121276532D01*
X117939735Y-121293980D01*
X117769556Y-121227031D01*
X117748742Y-121181920D01*
X117798449Y-121100391D01*
X118754165Y-121100391D01*
X118759494Y-121136277D01*
X118892820Y-121231319D01*
X118940176Y-121221039D01*
X118944924Y-121165855D01*
X119146949Y-121165855D01*
X119212413Y-121231319D01*
X119277877Y-121165855D01*
X119212413Y-121100391D01*
X119146949Y-121165855D01*
X118944924Y-121165855D01*
X118950557Y-121100391D01*
X118923685Y-121061209D01*
X118811902Y-120969463D01*
X118798836Y-120972867D01*
X118754165Y-121100391D01*
X117798449Y-121100391D01*
X117888867Y-121055821D01*
X118052473Y-120865226D01*
X118078584Y-120821961D01*
X118119316Y-120662637D01*
X117947249Y-120611071D01*
X117715557Y-120699638D01*
X117479082Y-121045206D01*
X117350633Y-121350246D01*
X117343782Y-121537482D01*
X116490172Y-121537482D01*
X116770705Y-121299038D01*
X116888570Y-121152499D01*
X117099485Y-120807624D01*
X117183031Y-120535793D01*
X117170653Y-120403707D01*
X117111001Y-120246729D01*
X117603788Y-120246729D01*
X117619457Y-120402110D01*
X117658838Y-120422593D01*
X117706743Y-120314824D01*
X117837671Y-120314824D01*
X117841475Y-120346119D01*
X117968598Y-120445752D01*
X117999893Y-120441948D01*
X118099526Y-120314824D01*
X118095722Y-120283529D01*
X117968598Y-120183896D01*
X117937303Y-120187701D01*
X117837671Y-120314824D01*
X117706743Y-120314824D01*
X117697294Y-120245512D01*
X117619457Y-120227539D01*
X117603788Y-120246729D01*
X117111001Y-120246729D01*
X117036836Y-120051560D01*
X116984270Y-119987505D01*
X117706743Y-119987505D01*
X117772207Y-120052969D01*
X117837671Y-119987505D01*
X118099526Y-119987505D01*
X118164990Y-120052969D01*
X118230454Y-119987505D01*
X118164990Y-119922041D01*
X118099526Y-119987505D01*
X117837671Y-119987505D01*
X117772207Y-119922041D01*
X117706743Y-119987505D01*
X116984270Y-119987505D01*
X116809023Y-119773957D01*
X116697765Y-119725649D01*
X117183031Y-119725649D01*
X117248495Y-119791113D01*
X117313959Y-119725649D01*
X117248495Y-119660185D01*
X117183031Y-119725649D01*
X116697765Y-119725649D01*
X116553700Y-119663096D01*
X116528611Y-119664008D01*
X116157345Y-119801608D01*
X115962183Y-119987505D01*
X115824808Y-120118359D01*
X115577562Y-120536962D01*
X115462171Y-120980115D01*
X115206612Y-120980115D01*
X115140555Y-120658123D01*
X115135104Y-120547302D01*
X115112548Y-120171276D01*
X115081793Y-119992249D01*
X115074145Y-119987505D01*
X115219114Y-119987505D01*
X115284578Y-120052969D01*
X115350042Y-119987505D01*
X115284578Y-119922041D01*
X115219114Y-119987505D01*
X115074145Y-119987505D01*
X115025050Y-119957050D01*
X114924526Y-120012510D01*
X114588103Y-120116879D01*
X114156168Y-120036900D01*
X113749964Y-119763537D01*
X113714994Y-119721884D01*
X115262319Y-119721884D01*
X115307408Y-119764597D01*
X115527104Y-119710229D01*
X115954654Y-119556232D01*
X116077613Y-119504728D01*
X116148352Y-119463793D01*
X116790248Y-119463793D01*
X116855712Y-119529257D01*
X116921176Y-119463793D01*
X116855712Y-119398329D01*
X116790248Y-119463793D01*
X116148352Y-119463793D01*
X116436597Y-119296992D01*
X116536261Y-119201938D01*
X116790248Y-119201938D01*
X116855712Y-119267402D01*
X116921176Y-119201938D01*
X116855712Y-119136474D01*
X116790248Y-119201938D01*
X116536261Y-119201938D01*
X116663059Y-119081006D01*
X116669120Y-119071010D01*
X117052104Y-119071010D01*
X117117567Y-119136474D01*
X117183031Y-119071010D01*
X117117567Y-119005546D01*
X117052104Y-119071010D01*
X116669120Y-119071010D01*
X116733799Y-118964337D01*
X116761987Y-118880321D01*
X116632533Y-118974203D01*
X116556867Y-119028176D01*
X116354547Y-119063311D01*
X116055211Y-118943382D01*
X116047093Y-118939173D01*
X115788675Y-118822798D01*
X115666089Y-118861216D01*
X115588405Y-119081291D01*
X115498255Y-119331199D01*
X115343095Y-119603092D01*
X115262319Y-119721884D01*
X113714994Y-119721884D01*
X113560127Y-119537423D01*
X113357813Y-119182214D01*
X113261741Y-118858971D01*
X113304936Y-118650308D01*
X113356121Y-118663016D01*
X113386124Y-118852797D01*
X113392623Y-118936065D01*
X113556930Y-119287697D01*
X113880080Y-119554399D01*
X114278124Y-119660185D01*
X114472709Y-119626138D01*
X114854750Y-119410125D01*
X115194590Y-119056912D01*
X115391320Y-118678226D01*
X116004681Y-118678226D01*
X116070145Y-118743690D01*
X116135609Y-118678226D01*
X116070145Y-118612762D01*
X116004681Y-118678226D01*
X115391320Y-118678226D01*
X115411654Y-118639084D01*
X115434888Y-118516566D01*
X115413367Y-118413739D01*
X115770798Y-118413739D01*
X115786468Y-118569120D01*
X115825849Y-118589603D01*
X115873753Y-118481835D01*
X115864304Y-118412522D01*
X115786468Y-118394549D01*
X115770798Y-118413739D01*
X115413367Y-118413739D01*
X115354892Y-118134352D01*
X115085736Y-117803533D01*
X114679241Y-117597786D01*
X114458158Y-117531111D01*
X114368709Y-117447199D01*
X114474769Y-117323603D01*
X114541251Y-117277518D01*
X114690585Y-117263335D01*
X114894258Y-117390420D01*
X115210353Y-117687507D01*
X115449306Y-117903389D01*
X115774388Y-118131468D01*
X116009897Y-118219979D01*
X116092852Y-118228482D01*
X116423290Y-118323823D01*
X116787122Y-118481835D01*
X116808151Y-118490968D01*
G37*
%TD*%
M02*
