%TF.GenerationSoftware,KiCad,Pcbnew,7.0.7*%
%TF.CreationDate,2024-07-07T09:26:09+01:00*%
%TF.ProjectId,PCB,5043422e-6b69-4636-9164-5f7063625858,rev?*%
%TF.SameCoordinates,Original*%
%TF.FileFunction,Copper,L2,Bot*%
%TF.FilePolarity,Positive*%
%FSLAX46Y46*%
G04 Gerber Fmt 4.6, Leading zero omitted, Abs format (unit mm)*
G04 Created by KiCad (PCBNEW 7.0.7) date 2024-07-07 09:26:09*
%MOMM*%
%LPD*%
G01*
G04 APERTURE LIST*
%TA.AperFunction,ComponentPad*%
%ADD10O,1.700000X1.700000*%
%TD*%
%TA.AperFunction,ComponentPad*%
%ADD11R,1.700000X1.700000*%
%TD*%
%TA.AperFunction,ComponentPad*%
%ADD12C,1.800000*%
%TD*%
%TA.AperFunction,ViaPad*%
%ADD13C,4.500000*%
%TD*%
%TA.AperFunction,ViaPad*%
%ADD14C,0.800000*%
%TD*%
%TA.AperFunction,Conductor*%
%ADD15C,0.250000*%
%TD*%
G04 APERTURE END LIST*
D10*
%TO.P,U1,1,GPIO0*%
%TO.N,unconnected-(U1-GPIO0-Pad1)*%
X106680000Y-78740000D03*
%TO.P,U1,2,GPIO1*%
%TO.N,unconnected-(U1-GPIO1-Pad2)*%
X106680000Y-81280000D03*
D11*
%TO.P,U1,3,GND*%
%TO.N,GND*%
X106680000Y-83820000D03*
D10*
%TO.P,U1,4,GPIO2*%
%TO.N,Net-(U1-GPIO2)*%
X106680000Y-86360000D03*
%TO.P,U1,5,GPIO3*%
%TO.N,unconnected-(U1-GPIO3-Pad5)*%
X106680000Y-88900000D03*
%TO.P,U1,6,GPIO4*%
%TO.N,Net-(U1-GPIO4)*%
X106680000Y-91440000D03*
%TO.P,U1,7,GPIO5*%
%TO.N,Net-(U1-GPIO5)*%
X106680000Y-93980000D03*
D11*
%TO.P,U1,8,GND*%
%TO.N,GND*%
X106680000Y-96520000D03*
D10*
%TO.P,U1,9,GPIO6*%
%TO.N,unconnected-(U1-GPIO6-Pad9)*%
X106680000Y-99060000D03*
%TO.P,U1,10,GPIO7*%
%TO.N,unconnected-(U1-GPIO7-Pad10)*%
X106680000Y-101600000D03*
%TO.P,U1,11,GPIO8*%
%TO.N,unconnected-(U1-GPIO8-Pad11)*%
X106680000Y-104140000D03*
%TO.P,U1,12,GPIO9*%
%TO.N,Net-(U1-GPIO9)*%
X106680000Y-106680000D03*
D11*
%TO.P,U1,13,GND*%
%TO.N,GND*%
X106680000Y-109220000D03*
D10*
%TO.P,U1,14,GPIO10*%
%TO.N,Net-(U1-GPIO10)*%
X106680000Y-111760000D03*
%TO.P,U1,15,GPIO11*%
%TO.N,unconnected-(U1-GPIO11-Pad15)*%
X106680000Y-114300000D03*
%TO.P,U1,16,GPIO12*%
%TO.N,unconnected-(U1-GPIO12-Pad16)*%
X106680000Y-116840000D03*
%TO.P,U1,17,GPIO13*%
%TO.N,unconnected-(U1-GPIO13-Pad17)*%
X106680000Y-119380000D03*
D11*
%TO.P,U1,18,GND*%
%TO.N,GND*%
X106680000Y-121920000D03*
D10*
%TO.P,U1,19,GPIO14*%
%TO.N,unconnected-(U1-GPIO14-Pad19)*%
X106680000Y-124460000D03*
%TO.P,U1,20,GPIO15*%
%TO.N,unconnected-(U1-GPIO15-Pad20)*%
X106680000Y-127000000D03*
%TO.P,U1,21,GPIO16*%
%TO.N,Net-(U1-GPIO16)*%
X124460000Y-127000000D03*
%TO.P,U1,22,GPIO17*%
%TO.N,unconnected-(U1-GPIO17-Pad22)*%
X124460000Y-124460000D03*
D11*
%TO.P,U1,23,GND*%
%TO.N,GND*%
X124460000Y-121920000D03*
D10*
%TO.P,U1,24,GPIO18*%
%TO.N,Net-(U1-GPIO18)*%
X124460000Y-119380000D03*
%TO.P,U1,25,GPIO19*%
%TO.N,Net-(U1-GPIO19)*%
X124460000Y-116840000D03*
%TO.P,U1,26,GPIO20*%
%TO.N,unconnected-(U1-GPIO20-Pad26)*%
X124460000Y-114300000D03*
%TO.P,U1,27,GPIO21*%
%TO.N,unconnected-(U1-GPIO21-Pad27)*%
X124460000Y-111760000D03*
D11*
%TO.P,U1,28,GND*%
%TO.N,GND*%
X124460000Y-109220000D03*
D10*
%TO.P,U1,29,GPIO22*%
%TO.N,unconnected-(U1-GPIO22-Pad29)*%
X124460000Y-106680000D03*
%TO.P,U1,30,RUN*%
%TO.N,unconnected-(U1-RUN-Pad30)*%
X124460000Y-104140000D03*
%TO.P,U1,31,GPIO26_ADC0*%
%TO.N,unconnected-(U1-GPIO26_ADC0-Pad31)*%
X124460000Y-101600000D03*
%TO.P,U1,32,GPIO27_ADC1*%
%TO.N,unconnected-(U1-GPIO27_ADC1-Pad32)*%
X124460000Y-99060000D03*
D11*
%TO.P,U1,33,AGND*%
%TO.N,unconnected-(U1-AGND-Pad33)*%
X124460000Y-96520000D03*
D10*
%TO.P,U1,34,GPIO28_ADC2*%
%TO.N,unconnected-(U1-GPIO28_ADC2-Pad34)*%
X124460000Y-93980000D03*
%TO.P,U1,35,ADC_VREF*%
%TO.N,unconnected-(U1-ADC_VREF-Pad35)*%
X124460000Y-91440000D03*
%TO.P,U1,36,3V3*%
%TO.N,+3V3*%
X124460000Y-88900000D03*
%TO.P,U1,37,3V3_EN*%
%TO.N,unconnected-(U1-3V3_EN-Pad37)*%
X124460000Y-86360000D03*
D11*
%TO.P,U1,38,GND*%
%TO.N,GND*%
X124460000Y-83820000D03*
D10*
%TO.P,U1,39,VSYS*%
%TO.N,unconnected-(U1-VSYS-Pad39)*%
X124460000Y-81280000D03*
%TO.P,U1,40,VBUS*%
%TO.N,unconnected-(U1-VBUS-Pad40)*%
X124460000Y-78740000D03*
%TO.P,U1,41,SWCLK*%
%TO.N,unconnected-(U1-SWCLK-Pad41)*%
X113030000Y-126770000D03*
D11*
%TO.P,U1,42,GND*%
%TO.N,unconnected-(U1-GND-Pad42)*%
X115570000Y-126770000D03*
D10*
%TO.P,U1,43,SWDIO*%
%TO.N,unconnected-(U1-SWDIO-Pad43)*%
X118110000Y-126770000D03*
%TD*%
D12*
%TO.P,U3,0,SDA*%
%TO.N,unconnected-(U3-SDA-Pad0)*%
X140970000Y-115570000D03*
%TO.P,U3,1,SCL*%
%TO.N,unconnected-(U3-SCL-Pad1)*%
X140970000Y-118110000D03*
%TO.P,U3,2,TXD*%
%TO.N,Net-(U1-GPIO5)*%
X140970000Y-120650000D03*
%TO.P,U3,3,RXD*%
%TO.N,Net-(U1-GPIO4)*%
X140970000Y-123190000D03*
%TO.P,U3,4,GND*%
%TO.N,GND*%
X140970000Y-125730000D03*
%TO.P,U3,5,VCC*%
%TO.N,+3V3*%
X140970000Y-128270000D03*
%TD*%
%TO.P,U2,0,DIO_5*%
%TO.N,unconnected-(U2-DIO_5-Pad0)*%
X140970000Y-81280000D03*
%TO.P,U2,1,DIO_4*%
%TO.N,unconnected-(U2-DIO_4-Pad1)*%
X140970000Y-83820000D03*
%TO.P,U2,2*%
%TO.N,unconnected-(U2-Pad2)*%
X140970000Y-86360000D03*
%TO.P,U2,3,RESET*%
%TO.N,Net-(U1-GPIO9)*%
X140970000Y-88900000D03*
%TO.P,U2,4,NSS*%
%TO.N,Net-(U1-GPIO10)*%
X140970000Y-91440000D03*
%TO.P,U2,5,SCK*%
%TO.N,Net-(U1-GPIO18)*%
X140970000Y-93980000D03*
%TO.P,U2,6,MISO*%
%TO.N,Net-(U1-GPIO16)*%
X140970000Y-96520000D03*
%TO.P,U2,7,MOSI*%
%TO.N,Net-(U1-GPIO19)*%
X140970000Y-99060000D03*
%TO.P,U2,8,3V3*%
%TO.N,+3V3*%
X140970000Y-101600000D03*
%TO.P,U2,9,GND*%
%TO.N,GND*%
X140970000Y-104140000D03*
%TO.P,U2,10,DIO3*%
%TO.N,unconnected-(U2-DIO3-Pad10)*%
X163830000Y-81280000D03*
%TO.P,U2,11,DIO1*%
%TO.N,unconnected-(U2-DIO1-Pad11)*%
X163830000Y-83820000D03*
%TO.P,U2,12,DIO2*%
%TO.N,unconnected-(U2-DIO2-Pad12)*%
X163830000Y-86360000D03*
%TO.P,U2,13,DIO0*%
%TO.N,Net-(U1-GPIO2)*%
X163830000Y-88900000D03*
%TO.P,U2,14*%
%TO.N,unconnected-(U2-Pad14)*%
X163830000Y-91440000D03*
%TO.P,U2,15*%
%TO.N,unconnected-(U2-Pad15)*%
X163830000Y-93980000D03*
%TO.P,U2,16*%
%TO.N,unconnected-(U2-Pad16)*%
X163830000Y-96520000D03*
%TO.P,U2,17*%
%TO.N,unconnected-(U2-Pad17)*%
X163830000Y-99060000D03*
%TO.P,U2,18*%
%TO.N,unconnected-(U2-Pad18)*%
X163830000Y-101600000D03*
%TO.P,U2,19,GND*%
%TO.N,GND*%
X163830000Y-104140000D03*
%TD*%
D13*
%TO.N,*%
X170180000Y-129540000D03*
X170180000Y-81280000D03*
X99060000Y-81280000D03*
X99060000Y-129540000D03*
D14*
%TO.N,Net-(U1-GPIO16)*%
X133096000Y-122682000D03*
%TO.N,Net-(U1-GPIO19)*%
X134112000Y-114554000D03*
%TO.N,Net-(U1-GPIO2)*%
X115570000Y-83566000D03*
%TO.N,Net-(U1-GPIO5)*%
X119634000Y-105918000D03*
%TO.N,Net-(U1-GPIO4)*%
X120650000Y-104394000D03*
%TD*%
D15*
%TO.N,Net-(U1-GPIO18)*%
X132646000Y-110802299D02*
X132646000Y-119380000D01*
X132646000Y-119380000D02*
X124460000Y-119380000D01*
X133604000Y-101346000D02*
X133604000Y-109844299D01*
X140970000Y-93980000D02*
X133604000Y-101346000D01*
X133604000Y-109844299D02*
X132646000Y-110802299D01*
%TO.N,Net-(U1-GPIO16)*%
X134112000Y-103378000D02*
X134112000Y-109972695D01*
X133096000Y-118110000D02*
X133096000Y-122682000D01*
X133096000Y-110988695D02*
X133096000Y-118110000D01*
X134112000Y-109972695D02*
X133096000Y-110988695D01*
X140970000Y-96520000D02*
X134112000Y-103378000D01*
%TO.N,Net-(U1-GPIO19)*%
X134562000Y-114104000D02*
X134112000Y-114554000D01*
X134562000Y-105468000D02*
X134562000Y-114104000D01*
X140970000Y-99060000D02*
X134562000Y-105468000D01*
%TO.N,Net-(U1-GPIO2)*%
X109474000Y-83566000D02*
X106680000Y-86360000D01*
X115570000Y-83566000D02*
X109474000Y-83566000D01*
%TO.N,Net-(U1-GPIO5)*%
X119634000Y-105918000D02*
X107696000Y-93980000D01*
X107696000Y-93980000D02*
X106680000Y-93980000D01*
%TO.N,Net-(U1-GPIO4)*%
X120650000Y-104394000D02*
X107696000Y-91440000D01*
X107696000Y-91440000D02*
X106680000Y-91440000D01*
%TD*%
%TA.AperFunction,Conductor*%
%TO.N,GND*%
G36*
X172662470Y-76779022D02*
G01*
X172708260Y-76831795D01*
X172719500Y-76883382D01*
X172719500Y-79719396D01*
X172699815Y-79786435D01*
X172647011Y-79832190D01*
X172577853Y-79842134D01*
X172514297Y-79813109D01*
X172489385Y-79783549D01*
X172447754Y-79714682D01*
X172447751Y-79714678D01*
X172447748Y-79714673D01*
X172242539Y-79452744D01*
X172007255Y-79217460D01*
X171745326Y-79012251D01*
X171745318Y-79012246D01*
X171460557Y-78840102D01*
X171157123Y-78703537D01*
X171157116Y-78703534D01*
X171157104Y-78703530D01*
X170839449Y-78604546D01*
X170839445Y-78604545D01*
X170839441Y-78604544D01*
X170512142Y-78544564D01*
X170512141Y-78544563D01*
X170512136Y-78544563D01*
X170208800Y-78526215D01*
X170180000Y-78524473D01*
X170179999Y-78524473D01*
X169847863Y-78544563D01*
X169784786Y-78556122D01*
X169520559Y-78604544D01*
X169520556Y-78604544D01*
X169520550Y-78604546D01*
X169202895Y-78703530D01*
X169202879Y-78703536D01*
X169202877Y-78703537D01*
X169121862Y-78739999D01*
X168904336Y-78837900D01*
X168899443Y-78840102D01*
X168849994Y-78869995D01*
X168614673Y-79012251D01*
X168352744Y-79217460D01*
X168117460Y-79452744D01*
X167912251Y-79714673D01*
X167740101Y-79999445D01*
X167740100Y-79999447D01*
X167709492Y-80067456D01*
X167624930Y-80255345D01*
X167603536Y-80302880D01*
X167603530Y-80302895D01*
X167504546Y-80620550D01*
X167504544Y-80620556D01*
X167504544Y-80620559D01*
X167469296Y-80812899D01*
X167444563Y-80947863D01*
X167424473Y-81280000D01*
X167444563Y-81612136D01*
X167444563Y-81612141D01*
X167444564Y-81612142D01*
X167504544Y-81939441D01*
X167504545Y-81939445D01*
X167504546Y-81939449D01*
X167603530Y-82257104D01*
X167603534Y-82257116D01*
X167603537Y-82257123D01*
X167740102Y-82560557D01*
X167894210Y-82815483D01*
X167912251Y-82845326D01*
X168117460Y-83107255D01*
X168352744Y-83342539D01*
X168614673Y-83547748D01*
X168614678Y-83547751D01*
X168614682Y-83547754D01*
X168899443Y-83719898D01*
X169202877Y-83856463D01*
X169202890Y-83856467D01*
X169202895Y-83856469D01*
X169378099Y-83911064D01*
X169520559Y-83955456D01*
X169847858Y-84015436D01*
X170180000Y-84035527D01*
X170512142Y-84015436D01*
X170839441Y-83955456D01*
X171157123Y-83856463D01*
X171460557Y-83719898D01*
X171745318Y-83547754D01*
X172007252Y-83342542D01*
X172242542Y-83107252D01*
X172447754Y-82845318D01*
X172489384Y-82776452D01*
X172540910Y-82729266D01*
X172609770Y-82717427D01*
X172674099Y-82744695D01*
X172713473Y-82802414D01*
X172719500Y-82840603D01*
X172719500Y-127979396D01*
X172699815Y-128046435D01*
X172647011Y-128092190D01*
X172577853Y-128102134D01*
X172514297Y-128073109D01*
X172489385Y-128043549D01*
X172447754Y-127974682D01*
X172447751Y-127974678D01*
X172447748Y-127974673D01*
X172242539Y-127712744D01*
X172007255Y-127477460D01*
X171745326Y-127272251D01*
X171745318Y-127272246D01*
X171460557Y-127100102D01*
X171157123Y-126963537D01*
X171157116Y-126963534D01*
X171157104Y-126963530D01*
X170839449Y-126864546D01*
X170839445Y-126864545D01*
X170839441Y-126864544D01*
X170512142Y-126804564D01*
X170512141Y-126804563D01*
X170512136Y-126804563D01*
X170180000Y-126784473D01*
X169847863Y-126804563D01*
X169847857Y-126804564D01*
X169847858Y-126804564D01*
X169520559Y-126864544D01*
X169520556Y-126864544D01*
X169520550Y-126864546D01*
X169202895Y-126963530D01*
X169202879Y-126963536D01*
X169202877Y-126963537D01*
X169121862Y-126999999D01*
X168899447Y-127100100D01*
X168899445Y-127100101D01*
X168614673Y-127272251D01*
X168352744Y-127477460D01*
X168117460Y-127712744D01*
X167912251Y-127974673D01*
X167740101Y-128259445D01*
X167740100Y-128259447D01*
X167735348Y-128270006D01*
X167631249Y-128501305D01*
X167603536Y-128562880D01*
X167603530Y-128562895D01*
X167504546Y-128880550D01*
X167444563Y-129207863D01*
X167424473Y-129540000D01*
X167444563Y-129872136D01*
X167444563Y-129872141D01*
X167444564Y-129872142D01*
X167504544Y-130199441D01*
X167504545Y-130199445D01*
X167504546Y-130199449D01*
X167603530Y-130517104D01*
X167603534Y-130517116D01*
X167603537Y-130517123D01*
X167740102Y-130820557D01*
X167886310Y-131062414D01*
X167912251Y-131105326D01*
X168117460Y-131367255D01*
X168352744Y-131602539D01*
X168614673Y-131807748D01*
X168614678Y-131807751D01*
X168614682Y-131807754D01*
X168683547Y-131849384D01*
X168730734Y-131900911D01*
X168742572Y-131969770D01*
X168715303Y-132034099D01*
X168657584Y-132073473D01*
X168619396Y-132079500D01*
X100620604Y-132079500D01*
X100553565Y-132059815D01*
X100507810Y-132007011D01*
X100497866Y-131937853D01*
X100526891Y-131874297D01*
X100556450Y-131849385D01*
X100625318Y-131807754D01*
X100887252Y-131602542D01*
X101122542Y-131367252D01*
X101327754Y-131105318D01*
X101499898Y-130820557D01*
X101636463Y-130517123D01*
X101735456Y-130199441D01*
X101795436Y-129872142D01*
X101815527Y-129540000D01*
X101795436Y-129207858D01*
X101735456Y-128880559D01*
X101636463Y-128562877D01*
X101499898Y-128259443D01*
X101327754Y-127974682D01*
X101327751Y-127974678D01*
X101327748Y-127974673D01*
X101122539Y-127712744D01*
X100887255Y-127477460D01*
X100625326Y-127272251D01*
X100625318Y-127272246D01*
X100340557Y-127100102D01*
X100118140Y-127000000D01*
X105324341Y-127000000D01*
X105344936Y-127235403D01*
X105344938Y-127235413D01*
X105406094Y-127463655D01*
X105406096Y-127463659D01*
X105406097Y-127463663D01*
X105501322Y-127667873D01*
X105505965Y-127677830D01*
X105505967Y-127677834D01*
X105601102Y-127813700D01*
X105641505Y-127871401D01*
X105808599Y-128038495D01*
X105883204Y-128090734D01*
X106002165Y-128174032D01*
X106002167Y-128174033D01*
X106002170Y-128174035D01*
X106216337Y-128273903D01*
X106444592Y-128335063D01*
X106632918Y-128351539D01*
X106679999Y-128355659D01*
X106680000Y-128355659D01*
X106680001Y-128355659D01*
X106719234Y-128352226D01*
X106915408Y-128335063D01*
X107143663Y-128273903D01*
X107357830Y-128174035D01*
X107551401Y-128038495D01*
X107718495Y-127871401D01*
X107854035Y-127677830D01*
X107953903Y-127463663D01*
X108015063Y-127235408D01*
X108035659Y-127000000D01*
X108015536Y-126770000D01*
X111674341Y-126770000D01*
X111694936Y-127005403D01*
X111694938Y-127005413D01*
X111756094Y-127233655D01*
X111756096Y-127233659D01*
X111756097Y-127233663D01*
X111774089Y-127272246D01*
X111855965Y-127447830D01*
X111855967Y-127447834D01*
X111876712Y-127477460D01*
X111991505Y-127641401D01*
X112158599Y-127808495D01*
X112248429Y-127871395D01*
X112352165Y-127944032D01*
X112352167Y-127944033D01*
X112352170Y-127944035D01*
X112566337Y-128043903D01*
X112566343Y-128043904D01*
X112566344Y-128043905D01*
X112621285Y-128058626D01*
X112794592Y-128105063D01*
X112971034Y-128120500D01*
X113029999Y-128125659D01*
X113030000Y-128125659D01*
X113030001Y-128125659D01*
X113088966Y-128120500D01*
X113265408Y-128105063D01*
X113493663Y-128043903D01*
X113707830Y-127944035D01*
X113901401Y-127808495D01*
X114023329Y-127686566D01*
X114084648Y-127653084D01*
X114154340Y-127658068D01*
X114210274Y-127699939D01*
X114227189Y-127730917D01*
X114276202Y-127862328D01*
X114276206Y-127862335D01*
X114362452Y-127977544D01*
X114362455Y-127977547D01*
X114477664Y-128063793D01*
X114477671Y-128063797D01*
X114612517Y-128114091D01*
X114612516Y-128114091D01*
X114619444Y-128114835D01*
X114672127Y-128120500D01*
X116467872Y-128120499D01*
X116527483Y-128114091D01*
X116662331Y-128063796D01*
X116777546Y-127977546D01*
X116863796Y-127862331D01*
X116912810Y-127730916D01*
X116954681Y-127674984D01*
X117020145Y-127650566D01*
X117088418Y-127665417D01*
X117116673Y-127686569D01*
X117238599Y-127808495D01*
X117328429Y-127871395D01*
X117432165Y-127944032D01*
X117432167Y-127944033D01*
X117432170Y-127944035D01*
X117646337Y-128043903D01*
X117646343Y-128043904D01*
X117646344Y-128043905D01*
X117701285Y-128058626D01*
X117874592Y-128105063D01*
X118051034Y-128120500D01*
X118109999Y-128125659D01*
X118110000Y-128125659D01*
X118110001Y-128125659D01*
X118168966Y-128120500D01*
X118345408Y-128105063D01*
X118573663Y-128043903D01*
X118787830Y-127944035D01*
X118981401Y-127808495D01*
X119148495Y-127641401D01*
X119284035Y-127447830D01*
X119383903Y-127233663D01*
X119445063Y-127005408D01*
X119445536Y-127000000D01*
X123104341Y-127000000D01*
X123124936Y-127235403D01*
X123124938Y-127235413D01*
X123186094Y-127463655D01*
X123186096Y-127463659D01*
X123186097Y-127463663D01*
X123281322Y-127667873D01*
X123285965Y-127677830D01*
X123285967Y-127677834D01*
X123381102Y-127813700D01*
X123421505Y-127871401D01*
X123588599Y-128038495D01*
X123663204Y-128090734D01*
X123782165Y-128174032D01*
X123782167Y-128174033D01*
X123782170Y-128174035D01*
X123996337Y-128273903D01*
X124224592Y-128335063D01*
X124412918Y-128351539D01*
X124459999Y-128355659D01*
X124460000Y-128355659D01*
X124460001Y-128355659D01*
X124499234Y-128352226D01*
X124695408Y-128335063D01*
X124923663Y-128273903D01*
X124932020Y-128270006D01*
X139564700Y-128270006D01*
X139583864Y-128501297D01*
X139583866Y-128501308D01*
X139640842Y-128726300D01*
X139734075Y-128938848D01*
X139861016Y-129133147D01*
X139861019Y-129133151D01*
X139861021Y-129133153D01*
X140018216Y-129303913D01*
X140018219Y-129303915D01*
X140018222Y-129303918D01*
X140201365Y-129446464D01*
X140201371Y-129446468D01*
X140201374Y-129446470D01*
X140405497Y-129556936D01*
X140519487Y-129596068D01*
X140625015Y-129632297D01*
X140625017Y-129632297D01*
X140625019Y-129632298D01*
X140853951Y-129670500D01*
X140853952Y-129670500D01*
X141086048Y-129670500D01*
X141086049Y-129670500D01*
X141314981Y-129632298D01*
X141534503Y-129556936D01*
X141738626Y-129446470D01*
X141921784Y-129303913D01*
X142078979Y-129133153D01*
X142205924Y-128938849D01*
X142299157Y-128726300D01*
X142356134Y-128501305D01*
X142356135Y-128501297D01*
X142375300Y-128270006D01*
X142375300Y-128269993D01*
X142356135Y-128038702D01*
X142356133Y-128038691D01*
X142299157Y-127813699D01*
X142205924Y-127601151D01*
X142078983Y-127406852D01*
X142078980Y-127406849D01*
X142078979Y-127406847D01*
X141921784Y-127236087D01*
X141878857Y-127202675D01*
X141743773Y-127097535D01*
X141702960Y-127040825D01*
X141699286Y-126971052D01*
X141733918Y-126910369D01*
X141743774Y-126901828D01*
X141768798Y-126882351D01*
X141297856Y-126411409D01*
X141264371Y-126350086D01*
X141269355Y-126280394D01*
X141310049Y-126225353D01*
X141397925Y-126157925D01*
X141465354Y-126070048D01*
X141521779Y-126028848D01*
X141591525Y-126024693D01*
X141651409Y-126057856D01*
X142121186Y-126527634D01*
X142205484Y-126398606D01*
X142298682Y-126186135D01*
X142355638Y-125961218D01*
X142374798Y-125730005D01*
X142374798Y-125729994D01*
X142355638Y-125498781D01*
X142298682Y-125273864D01*
X142205483Y-125061390D01*
X142121186Y-124932364D01*
X141651408Y-125402142D01*
X141590085Y-125435627D01*
X141520393Y-125430643D01*
X141465351Y-125389947D01*
X141420428Y-125331402D01*
X141397925Y-125302075D01*
X141310049Y-125234645D01*
X141268847Y-125178219D01*
X141264692Y-125108473D01*
X141297855Y-125048590D01*
X141768799Y-124577647D01*
X141743775Y-124558171D01*
X141702961Y-124501461D01*
X141699286Y-124431688D01*
X141733916Y-124371004D01*
X141743760Y-124362473D01*
X141921784Y-124223913D01*
X142078979Y-124053153D01*
X142205924Y-123858849D01*
X142299157Y-123646300D01*
X142356134Y-123421305D01*
X142357488Y-123404963D01*
X142375300Y-123190006D01*
X142375300Y-123189993D01*
X142356135Y-122958702D01*
X142356133Y-122958691D01*
X142299157Y-122733699D01*
X142205924Y-122521151D01*
X142078983Y-122326852D01*
X142078980Y-122326849D01*
X142078979Y-122326847D01*
X141921784Y-122156087D01*
X141744180Y-122017853D01*
X141703368Y-121961143D01*
X141699693Y-121891370D01*
X141734324Y-121830687D01*
X141744181Y-121822146D01*
X141921784Y-121683913D01*
X142078979Y-121513153D01*
X142205924Y-121318849D01*
X142299157Y-121106300D01*
X142356134Y-120881305D01*
X142360559Y-120827906D01*
X142375300Y-120650006D01*
X142375300Y-120649993D01*
X142356135Y-120418702D01*
X142356133Y-120418691D01*
X142299157Y-120193699D01*
X142205924Y-119981151D01*
X142078983Y-119786852D01*
X142078980Y-119786849D01*
X142078979Y-119786847D01*
X141921784Y-119616087D01*
X141744180Y-119477853D01*
X141703368Y-119421143D01*
X141699693Y-119351370D01*
X141734324Y-119290687D01*
X141744181Y-119282146D01*
X141921784Y-119143913D01*
X142078979Y-118973153D01*
X142205924Y-118778849D01*
X142299157Y-118566300D01*
X142356134Y-118341305D01*
X142356135Y-118341297D01*
X142375300Y-118110006D01*
X142375300Y-118109993D01*
X142356135Y-117878702D01*
X142356133Y-117878691D01*
X142299157Y-117653699D01*
X142205924Y-117441151D01*
X142078983Y-117246852D01*
X142078980Y-117246849D01*
X142078979Y-117246847D01*
X141921784Y-117076087D01*
X141744180Y-116937853D01*
X141703368Y-116881143D01*
X141699693Y-116811370D01*
X141734324Y-116750687D01*
X141744181Y-116742146D01*
X141921784Y-116603913D01*
X142078979Y-116433153D01*
X142205924Y-116238849D01*
X142299157Y-116026300D01*
X142356134Y-115801305D01*
X142356135Y-115801297D01*
X142375300Y-115570006D01*
X142375300Y-115569993D01*
X142356135Y-115338702D01*
X142356133Y-115338691D01*
X142299157Y-115113699D01*
X142205924Y-114901151D01*
X142078983Y-114706852D01*
X142078980Y-114706849D01*
X142078979Y-114706847D01*
X141921784Y-114536087D01*
X141921779Y-114536083D01*
X141921777Y-114536081D01*
X141738634Y-114393535D01*
X141738628Y-114393531D01*
X141534504Y-114283064D01*
X141534495Y-114283061D01*
X141314984Y-114207702D01*
X141143282Y-114179050D01*
X141086049Y-114169500D01*
X140853951Y-114169500D01*
X140808164Y-114177140D01*
X140625015Y-114207702D01*
X140405504Y-114283061D01*
X140405495Y-114283064D01*
X140201371Y-114393531D01*
X140201365Y-114393535D01*
X140018222Y-114536081D01*
X140018219Y-114536084D01*
X139861016Y-114706852D01*
X139734075Y-114901151D01*
X139640842Y-115113699D01*
X139583866Y-115338691D01*
X139583864Y-115338702D01*
X139564700Y-115569993D01*
X139564700Y-115570006D01*
X139583864Y-115801297D01*
X139583866Y-115801308D01*
X139640842Y-116026300D01*
X139734075Y-116238848D01*
X139861016Y-116433147D01*
X139861019Y-116433151D01*
X139861021Y-116433153D01*
X140018216Y-116603913D01*
X140018219Y-116603915D01*
X140018222Y-116603918D01*
X140195818Y-116742147D01*
X140236631Y-116798857D01*
X140240306Y-116868630D01*
X140205674Y-116929313D01*
X140195818Y-116937853D01*
X140018222Y-117076081D01*
X140018219Y-117076084D01*
X139861016Y-117246852D01*
X139734075Y-117441151D01*
X139640842Y-117653699D01*
X139583866Y-117878691D01*
X139583864Y-117878702D01*
X139564700Y-118109993D01*
X139564700Y-118110006D01*
X139583864Y-118341297D01*
X139583866Y-118341308D01*
X139640842Y-118566300D01*
X139734075Y-118778848D01*
X139861016Y-118973147D01*
X139861019Y-118973151D01*
X139861021Y-118973153D01*
X140018216Y-119143913D01*
X140018219Y-119143915D01*
X140018222Y-119143918D01*
X140195818Y-119282147D01*
X140236631Y-119338857D01*
X140240306Y-119408630D01*
X140205674Y-119469313D01*
X140195818Y-119477853D01*
X140018222Y-119616081D01*
X140018219Y-119616084D01*
X139861016Y-119786852D01*
X139734075Y-119981151D01*
X139640842Y-120193699D01*
X139583866Y-120418691D01*
X139583864Y-120418702D01*
X139564700Y-120649993D01*
X139564700Y-120650006D01*
X139583864Y-120881297D01*
X139583866Y-120881308D01*
X139640842Y-121106300D01*
X139734075Y-121318848D01*
X139861016Y-121513147D01*
X139861019Y-121513151D01*
X139861021Y-121513153D01*
X140018216Y-121683913D01*
X140018219Y-121683915D01*
X140018222Y-121683918D01*
X140195818Y-121822147D01*
X140236631Y-121878857D01*
X140240306Y-121948630D01*
X140205674Y-122009313D01*
X140195818Y-122017853D01*
X140018222Y-122156081D01*
X140018219Y-122156084D01*
X139861016Y-122326852D01*
X139734075Y-122521151D01*
X139640842Y-122733699D01*
X139583866Y-122958691D01*
X139583864Y-122958702D01*
X139564700Y-123189993D01*
X139564700Y-123190006D01*
X139583864Y-123421297D01*
X139583866Y-123421308D01*
X139640842Y-123646300D01*
X139734075Y-123858848D01*
X139861016Y-124053147D01*
X139861019Y-124053151D01*
X139861021Y-124053153D01*
X140018216Y-124223913D01*
X140196225Y-124362462D01*
X140237038Y-124419173D01*
X140240713Y-124488946D01*
X140206082Y-124549629D01*
X140196223Y-124558171D01*
X140171200Y-124577645D01*
X140171200Y-124577647D01*
X140642143Y-125048590D01*
X140675628Y-125109913D01*
X140670644Y-125179605D01*
X140629949Y-125234646D01*
X140542075Y-125302074D01*
X140542074Y-125302075D01*
X140474646Y-125389949D01*
X140418218Y-125431151D01*
X140348472Y-125435306D01*
X140288590Y-125402143D01*
X139818812Y-124932365D01*
X139734516Y-125061391D01*
X139734514Y-125061395D01*
X139641317Y-125273864D01*
X139584361Y-125498781D01*
X139565202Y-125729994D01*
X139565202Y-125730005D01*
X139584361Y-125961218D01*
X139641317Y-126186135D01*
X139734516Y-126398609D01*
X139818811Y-126527633D01*
X140288590Y-126057855D01*
X140349913Y-126024370D01*
X140419604Y-126029354D01*
X140474645Y-126070049D01*
X140542075Y-126157925D01*
X140629947Y-126225351D01*
X140671150Y-126281779D01*
X140675305Y-126351525D01*
X140642142Y-126411408D01*
X140171199Y-126882350D01*
X140171200Y-126882351D01*
X140196224Y-126901828D01*
X140237038Y-126958538D01*
X140240713Y-127028311D01*
X140206083Y-127088995D01*
X140196225Y-127097536D01*
X140018222Y-127236081D01*
X140018219Y-127236084D01*
X140018216Y-127236086D01*
X140018216Y-127236087D01*
X139984925Y-127272251D01*
X139861016Y-127406852D01*
X139734075Y-127601151D01*
X139640842Y-127813699D01*
X139583866Y-128038691D01*
X139583864Y-128038702D01*
X139564700Y-128269993D01*
X139564700Y-128270006D01*
X124932020Y-128270006D01*
X125137830Y-128174035D01*
X125331401Y-128038495D01*
X125498495Y-127871401D01*
X125634035Y-127677830D01*
X125733903Y-127463663D01*
X125795063Y-127235408D01*
X125815659Y-127000000D01*
X125795063Y-126764592D01*
X125733903Y-126536337D01*
X125634035Y-126322171D01*
X125605753Y-126281779D01*
X125498494Y-126128597D01*
X125331402Y-125961506D01*
X125331401Y-125961505D01*
X125145842Y-125831575D01*
X125145841Y-125831574D01*
X125102216Y-125776997D01*
X125095024Y-125707498D01*
X125126546Y-125645144D01*
X125145836Y-125628428D01*
X125331401Y-125498495D01*
X125498495Y-125331401D01*
X125634035Y-125137830D01*
X125733903Y-124923663D01*
X125795063Y-124695408D01*
X125815659Y-124460000D01*
X125795063Y-124224592D01*
X125733903Y-123996337D01*
X125634035Y-123782171D01*
X125498495Y-123588599D01*
X125376179Y-123466283D01*
X125342696Y-123404963D01*
X125347680Y-123335271D01*
X125389551Y-123279337D01*
X125420529Y-123262422D01*
X125552086Y-123213354D01*
X125552093Y-123213350D01*
X125667187Y-123127190D01*
X125667190Y-123127187D01*
X125753350Y-123012093D01*
X125753354Y-123012086D01*
X125803596Y-122877379D01*
X125803598Y-122877372D01*
X125809999Y-122817844D01*
X125810000Y-122817827D01*
X125810000Y-122170000D01*
X125083769Y-122170000D01*
X125016730Y-122150315D01*
X124970975Y-122097511D01*
X124961031Y-122028353D01*
X124964792Y-122011064D01*
X124970000Y-121993327D01*
X124970000Y-121846672D01*
X124964792Y-121828936D01*
X124964792Y-121759066D01*
X125002566Y-121700288D01*
X125066121Y-121671262D01*
X125083769Y-121670000D01*
X125810000Y-121670000D01*
X125810000Y-121022172D01*
X125809999Y-121022155D01*
X125803598Y-120962627D01*
X125803596Y-120962620D01*
X125753354Y-120827913D01*
X125753350Y-120827906D01*
X125667190Y-120712812D01*
X125667187Y-120712809D01*
X125552093Y-120626649D01*
X125552088Y-120626646D01*
X125420528Y-120577577D01*
X125364595Y-120535705D01*
X125340178Y-120470241D01*
X125355030Y-120401968D01*
X125376175Y-120373720D01*
X125498495Y-120251401D01*
X125633651Y-120058377D01*
X125688229Y-120014752D01*
X125735227Y-120005500D01*
X132346500Y-120005500D01*
X132413539Y-120025185D01*
X132459294Y-120077989D01*
X132470500Y-120129500D01*
X132470500Y-121983312D01*
X132450815Y-122050351D01*
X132438650Y-122066284D01*
X132363466Y-122149784D01*
X132268821Y-122313715D01*
X132268818Y-122313722D01*
X132210327Y-122493740D01*
X132210326Y-122493744D01*
X132190540Y-122682000D01*
X132210326Y-122870256D01*
X132210327Y-122870259D01*
X132268818Y-123050277D01*
X132268821Y-123050284D01*
X132363467Y-123214216D01*
X132444572Y-123304292D01*
X132490129Y-123354888D01*
X132643265Y-123466148D01*
X132643270Y-123466151D01*
X132816192Y-123543142D01*
X132816197Y-123543144D01*
X133001354Y-123582500D01*
X133001355Y-123582500D01*
X133190644Y-123582500D01*
X133190646Y-123582500D01*
X133375803Y-123543144D01*
X133548730Y-123466151D01*
X133701871Y-123354888D01*
X133828533Y-123214216D01*
X133923179Y-123050284D01*
X133981674Y-122870256D01*
X134001460Y-122682000D01*
X133981674Y-122493744D01*
X133923179Y-122313716D01*
X133828533Y-122149784D01*
X133814357Y-122134040D01*
X133753350Y-122066284D01*
X133723120Y-122003292D01*
X133721500Y-121983312D01*
X133721500Y-118019294D01*
X133721499Y-118019290D01*
X133721498Y-115544740D01*
X133741184Y-115477701D01*
X133793988Y-115431947D01*
X133863146Y-115422003D01*
X133871271Y-115423449D01*
X134017354Y-115454500D01*
X134017355Y-115454500D01*
X134206644Y-115454500D01*
X134206646Y-115454500D01*
X134391803Y-115415144D01*
X134564730Y-115338151D01*
X134717871Y-115226888D01*
X134844533Y-115086216D01*
X134939179Y-114922284D01*
X134997674Y-114742256D01*
X135015615Y-114571545D01*
X135042199Y-114506933D01*
X135048546Y-114499623D01*
X135072061Y-114474583D01*
X135072062Y-114474582D01*
X135081713Y-114457024D01*
X135092396Y-114440761D01*
X135104673Y-114424936D01*
X135123185Y-114382153D01*
X135125738Y-114376941D01*
X135148197Y-114336092D01*
X135153180Y-114316680D01*
X135159481Y-114298280D01*
X135167437Y-114279896D01*
X135174729Y-114233852D01*
X135175906Y-114228171D01*
X135187500Y-114183019D01*
X135187500Y-114162982D01*
X135189027Y-114143582D01*
X135192160Y-114123804D01*
X135187775Y-114077415D01*
X135187500Y-114071577D01*
X135187500Y-105778451D01*
X135207185Y-105711412D01*
X135223819Y-105690770D01*
X137277500Y-103637089D01*
X139356397Y-101558191D01*
X139417718Y-101524708D01*
X139487410Y-101529692D01*
X139543343Y-101571564D01*
X139567652Y-101635634D01*
X139583864Y-101831297D01*
X139583866Y-101831308D01*
X139640842Y-102056300D01*
X139734075Y-102268848D01*
X139861016Y-102463147D01*
X139861019Y-102463151D01*
X139861021Y-102463153D01*
X140018216Y-102633913D01*
X140191038Y-102768425D01*
X140196225Y-102772462D01*
X140237038Y-102829173D01*
X140240713Y-102898946D01*
X140206082Y-102959629D01*
X140196223Y-102968171D01*
X140171200Y-102987645D01*
X140171200Y-102987647D01*
X140642143Y-103458590D01*
X140675628Y-103519913D01*
X140670644Y-103589605D01*
X140629949Y-103644646D01*
X140542075Y-103712074D01*
X140542074Y-103712075D01*
X140474646Y-103799949D01*
X140418218Y-103841151D01*
X140348472Y-103845306D01*
X140288590Y-103812143D01*
X139818812Y-103342365D01*
X139734516Y-103471391D01*
X139734514Y-103471395D01*
X139641317Y-103683864D01*
X139584361Y-103908781D01*
X139565202Y-104139994D01*
X139565202Y-104140005D01*
X139584361Y-104371218D01*
X139641317Y-104596135D01*
X139734516Y-104808609D01*
X139818811Y-104937633D01*
X140288590Y-104467855D01*
X140349913Y-104434370D01*
X140419604Y-104439354D01*
X140474645Y-104480049D01*
X140542075Y-104567925D01*
X140629947Y-104635351D01*
X140671150Y-104691779D01*
X140675305Y-104761525D01*
X140642142Y-104821408D01*
X140171199Y-105292350D01*
X140171199Y-105292351D01*
X140201650Y-105316050D01*
X140405697Y-105426476D01*
X140405706Y-105426479D01*
X140625139Y-105501811D01*
X140853993Y-105540000D01*
X141086007Y-105540000D01*
X141314860Y-105501811D01*
X141534293Y-105426479D01*
X141534302Y-105426476D01*
X141738350Y-105316050D01*
X141768798Y-105292351D01*
X141297856Y-104821409D01*
X141264371Y-104760086D01*
X141269355Y-104690394D01*
X141310049Y-104635353D01*
X141397925Y-104567925D01*
X141465354Y-104480048D01*
X141521779Y-104438848D01*
X141591525Y-104434693D01*
X141651409Y-104467856D01*
X142121186Y-104937634D01*
X142205484Y-104808606D01*
X142298682Y-104596135D01*
X142355638Y-104371218D01*
X142374798Y-104140005D01*
X142374798Y-104139994D01*
X142355638Y-103908781D01*
X142298682Y-103683864D01*
X142205483Y-103471390D01*
X142121186Y-103342364D01*
X141651408Y-103812142D01*
X141590085Y-103845627D01*
X141520393Y-103840643D01*
X141465351Y-103799947D01*
X141397925Y-103712075D01*
X141310049Y-103644645D01*
X141268847Y-103588219D01*
X141264692Y-103518473D01*
X141297855Y-103458590D01*
X141768799Y-102987647D01*
X141743775Y-102968171D01*
X141702961Y-102911461D01*
X141699286Y-102841688D01*
X141733916Y-102781004D01*
X141743760Y-102772473D01*
X141921784Y-102633913D01*
X142078979Y-102463153D01*
X142205924Y-102268849D01*
X142299157Y-102056300D01*
X142356134Y-101831305D01*
X142356135Y-101831297D01*
X142375300Y-101600006D01*
X162424700Y-101600006D01*
X162443864Y-101831297D01*
X162443866Y-101831308D01*
X162500842Y-102056300D01*
X162594075Y-102268848D01*
X162721016Y-102463147D01*
X162721019Y-102463151D01*
X162721021Y-102463153D01*
X162878216Y-102633913D01*
X163051038Y-102768425D01*
X163056225Y-102772462D01*
X163097038Y-102829173D01*
X163100713Y-102898946D01*
X163066082Y-102959629D01*
X163056223Y-102968171D01*
X163031200Y-102987645D01*
X163031200Y-102987647D01*
X163502143Y-103458590D01*
X163535628Y-103519913D01*
X163530644Y-103589605D01*
X163489949Y-103644646D01*
X163402075Y-103712074D01*
X163402074Y-103712075D01*
X163334646Y-103799949D01*
X163278218Y-103841151D01*
X163208472Y-103845306D01*
X163148590Y-103812143D01*
X162678812Y-103342365D01*
X162594516Y-103471391D01*
X162594514Y-103471395D01*
X162501317Y-103683864D01*
X162444361Y-103908781D01*
X162425202Y-104139994D01*
X162425202Y-104140005D01*
X162444361Y-104371218D01*
X162501317Y-104596135D01*
X162594516Y-104808609D01*
X162678811Y-104937633D01*
X163148590Y-104467855D01*
X163209913Y-104434370D01*
X163279604Y-104439354D01*
X163334645Y-104480049D01*
X163402075Y-104567925D01*
X163489947Y-104635351D01*
X163531150Y-104691779D01*
X163535305Y-104761525D01*
X163502142Y-104821408D01*
X163031199Y-105292350D01*
X163031199Y-105292351D01*
X163061650Y-105316050D01*
X163265697Y-105426476D01*
X163265706Y-105426479D01*
X163485139Y-105501811D01*
X163713993Y-105540000D01*
X163946007Y-105540000D01*
X164174860Y-105501811D01*
X164394293Y-105426479D01*
X164394302Y-105426476D01*
X164598350Y-105316050D01*
X164628798Y-105292351D01*
X164157856Y-104821409D01*
X164124371Y-104760086D01*
X164129355Y-104690394D01*
X164170049Y-104635353D01*
X164257925Y-104567925D01*
X164325354Y-104480048D01*
X164381779Y-104438848D01*
X164451525Y-104434693D01*
X164511409Y-104467856D01*
X164981186Y-104937634D01*
X165065484Y-104808606D01*
X165158682Y-104596135D01*
X165215638Y-104371218D01*
X165234798Y-104140005D01*
X165234798Y-104139994D01*
X165215638Y-103908781D01*
X165158682Y-103683864D01*
X165065483Y-103471390D01*
X164981186Y-103342364D01*
X164511408Y-103812142D01*
X164450085Y-103845627D01*
X164380393Y-103840643D01*
X164325351Y-103799947D01*
X164257925Y-103712075D01*
X164170049Y-103644645D01*
X164128847Y-103588219D01*
X164124692Y-103518473D01*
X164157855Y-103458590D01*
X164628799Y-102987647D01*
X164603775Y-102968171D01*
X164562961Y-102911461D01*
X164559286Y-102841688D01*
X164593916Y-102781004D01*
X164603760Y-102772473D01*
X164781784Y-102633913D01*
X164938979Y-102463153D01*
X165065924Y-102268849D01*
X165159157Y-102056300D01*
X165216134Y-101831305D01*
X165216135Y-101831297D01*
X165235300Y-101600006D01*
X165235300Y-101599993D01*
X165216135Y-101368702D01*
X165216133Y-101368691D01*
X165159157Y-101143699D01*
X165065924Y-100931151D01*
X164938983Y-100736852D01*
X164938980Y-100736849D01*
X164938979Y-100736847D01*
X164781784Y-100566087D01*
X164604180Y-100427853D01*
X164563368Y-100371143D01*
X164559693Y-100301370D01*
X164594324Y-100240687D01*
X164604181Y-100232146D01*
X164608962Y-100228425D01*
X164781784Y-100093913D01*
X164938979Y-99923153D01*
X165065924Y-99728849D01*
X165159157Y-99516300D01*
X165216134Y-99291305D01*
X165216135Y-99291297D01*
X165235300Y-99060006D01*
X165235300Y-99059993D01*
X165216135Y-98828702D01*
X165216133Y-98828691D01*
X165159157Y-98603699D01*
X165065924Y-98391151D01*
X164938983Y-98196852D01*
X164938980Y-98196849D01*
X164938979Y-98196847D01*
X164781784Y-98026087D01*
X164604180Y-97887853D01*
X164563368Y-97831143D01*
X164559693Y-97761370D01*
X164594324Y-97700687D01*
X164604181Y-97692146D01*
X164781784Y-97553913D01*
X164938979Y-97383153D01*
X165065924Y-97188849D01*
X165159157Y-96976300D01*
X165216134Y-96751305D01*
X165217565Y-96734040D01*
X165235300Y-96520006D01*
X165235300Y-96519993D01*
X165216135Y-96288702D01*
X165216133Y-96288691D01*
X165159157Y-96063699D01*
X165065924Y-95851151D01*
X164938983Y-95656852D01*
X164938980Y-95656849D01*
X164938979Y-95656847D01*
X164781784Y-95486087D01*
X164604180Y-95347853D01*
X164563368Y-95291143D01*
X164559693Y-95221370D01*
X164594324Y-95160687D01*
X164604181Y-95152146D01*
X164625802Y-95135318D01*
X164781784Y-95013913D01*
X164938979Y-94843153D01*
X165065924Y-94648849D01*
X165159157Y-94436300D01*
X165216134Y-94211305D01*
X165235300Y-93980000D01*
X165235300Y-93979999D01*
X165235300Y-93979993D01*
X165216135Y-93748702D01*
X165216133Y-93748691D01*
X165159157Y-93523699D01*
X165065924Y-93311151D01*
X164938983Y-93116852D01*
X164938980Y-93116849D01*
X164938979Y-93116847D01*
X164781784Y-92946087D01*
X164604180Y-92807853D01*
X164563368Y-92751143D01*
X164559693Y-92681370D01*
X164594324Y-92620687D01*
X164604181Y-92612146D01*
X164608962Y-92608425D01*
X164781784Y-92473913D01*
X164938979Y-92303153D01*
X165065924Y-92108849D01*
X165159157Y-91896300D01*
X165216134Y-91671305D01*
X165235300Y-91440000D01*
X165235300Y-91439999D01*
X165235300Y-91439993D01*
X165216135Y-91208702D01*
X165216133Y-91208691D01*
X165159157Y-90983699D01*
X165065924Y-90771151D01*
X164938983Y-90576852D01*
X164938980Y-90576849D01*
X164938979Y-90576847D01*
X164781784Y-90406087D01*
X164604180Y-90267853D01*
X164563368Y-90211143D01*
X164559693Y-90141370D01*
X164594324Y-90080687D01*
X164604181Y-90072146D01*
X164608962Y-90068425D01*
X164781784Y-89933913D01*
X164938979Y-89763153D01*
X165065924Y-89568849D01*
X165159157Y-89356300D01*
X165216134Y-89131305D01*
X165235300Y-88900000D01*
X165235300Y-88899999D01*
X165235300Y-88899993D01*
X165216135Y-88668702D01*
X165216133Y-88668691D01*
X165159157Y-88443699D01*
X165065924Y-88231151D01*
X164938983Y-88036852D01*
X164938980Y-88036849D01*
X164938979Y-88036847D01*
X164781784Y-87866087D01*
X164604180Y-87727853D01*
X164563368Y-87671143D01*
X164559693Y-87601370D01*
X164594324Y-87540687D01*
X164604181Y-87532146D01*
X164608962Y-87528425D01*
X164781784Y-87393913D01*
X164938979Y-87223153D01*
X165065924Y-87028849D01*
X165159157Y-86816300D01*
X165216134Y-86591305D01*
X165235300Y-86360000D01*
X165235300Y-86359999D01*
X165235300Y-86359993D01*
X165216135Y-86128702D01*
X165216133Y-86128691D01*
X165159157Y-85903699D01*
X165065924Y-85691151D01*
X164938983Y-85496852D01*
X164938980Y-85496849D01*
X164938979Y-85496847D01*
X164781784Y-85326087D01*
X164604180Y-85187853D01*
X164563368Y-85131143D01*
X164559693Y-85061370D01*
X164594324Y-85000687D01*
X164604181Y-84992146D01*
X164781784Y-84853913D01*
X164938979Y-84683153D01*
X165065924Y-84488849D01*
X165159157Y-84276300D01*
X165216134Y-84051305D01*
X165217095Y-84039712D01*
X165235300Y-83820006D01*
X165235300Y-83819993D01*
X165216135Y-83588702D01*
X165216133Y-83588691D01*
X165159157Y-83363699D01*
X165065924Y-83151151D01*
X164938983Y-82956852D01*
X164938980Y-82956849D01*
X164938979Y-82956847D01*
X164781784Y-82786087D01*
X164604180Y-82647853D01*
X164563368Y-82591143D01*
X164559693Y-82521370D01*
X164594324Y-82460687D01*
X164604181Y-82452146D01*
X164781784Y-82313913D01*
X164938979Y-82143153D01*
X165065924Y-81948849D01*
X165159157Y-81736300D01*
X165216134Y-81511305D01*
X165217197Y-81498475D01*
X165235300Y-81280006D01*
X165235300Y-81279993D01*
X165216135Y-81048702D01*
X165216133Y-81048691D01*
X165159157Y-80823699D01*
X165065924Y-80611151D01*
X164938983Y-80416852D01*
X164938980Y-80416849D01*
X164938979Y-80416847D01*
X164781784Y-80246087D01*
X164781779Y-80246083D01*
X164781777Y-80246081D01*
X164598634Y-80103535D01*
X164598628Y-80103531D01*
X164394504Y-79993064D01*
X164394495Y-79993061D01*
X164174984Y-79917702D01*
X163977540Y-79884755D01*
X163946049Y-79879500D01*
X163713951Y-79879500D01*
X163682460Y-79884755D01*
X163485015Y-79917702D01*
X163265504Y-79993061D01*
X163265495Y-79993064D01*
X163061371Y-80103531D01*
X163061365Y-80103535D01*
X162878222Y-80246081D01*
X162878219Y-80246084D01*
X162878216Y-80246086D01*
X162878216Y-80246087D01*
X162855743Y-80270499D01*
X162721016Y-80416852D01*
X162594075Y-80611151D01*
X162500842Y-80823699D01*
X162443866Y-81048691D01*
X162443864Y-81048702D01*
X162424700Y-81279993D01*
X162424700Y-81280006D01*
X162443864Y-81511297D01*
X162443866Y-81511308D01*
X162500842Y-81736300D01*
X162594075Y-81948848D01*
X162721016Y-82143147D01*
X162721019Y-82143151D01*
X162721021Y-82143153D01*
X162878216Y-82313913D01*
X162878219Y-82313915D01*
X162878222Y-82313918D01*
X163055818Y-82452147D01*
X163096631Y-82508857D01*
X163100306Y-82578630D01*
X163065674Y-82639313D01*
X163055818Y-82647853D01*
X162878222Y-82786081D01*
X162878219Y-82786084D01*
X162721016Y-82956852D01*
X162594075Y-83151151D01*
X162500842Y-83363699D01*
X162443866Y-83588691D01*
X162443864Y-83588702D01*
X162424700Y-83819993D01*
X162424700Y-83820006D01*
X162443864Y-84051297D01*
X162443866Y-84051308D01*
X162500842Y-84276300D01*
X162594075Y-84488848D01*
X162721016Y-84683147D01*
X162721019Y-84683151D01*
X162721021Y-84683153D01*
X162878216Y-84853913D01*
X162878219Y-84853915D01*
X162878222Y-84853918D01*
X163055818Y-84992147D01*
X163096631Y-85048857D01*
X163100306Y-85118630D01*
X163065674Y-85179313D01*
X163055818Y-85187853D01*
X162878222Y-85326081D01*
X162878219Y-85326084D01*
X162721016Y-85496852D01*
X162594075Y-85691151D01*
X162500842Y-85903699D01*
X162443866Y-86128691D01*
X162443864Y-86128702D01*
X162424700Y-86359993D01*
X162424700Y-86360006D01*
X162443864Y-86591297D01*
X162443866Y-86591308D01*
X162500842Y-86816300D01*
X162594075Y-87028848D01*
X162721016Y-87223147D01*
X162721019Y-87223151D01*
X162721021Y-87223153D01*
X162878216Y-87393913D01*
X162878219Y-87393915D01*
X162878222Y-87393918D01*
X163055818Y-87532147D01*
X163096631Y-87588857D01*
X163100306Y-87658630D01*
X163065674Y-87719313D01*
X163055818Y-87727853D01*
X162878222Y-87866081D01*
X162878219Y-87866084D01*
X162721016Y-88036852D01*
X162594075Y-88231151D01*
X162500842Y-88443699D01*
X162443866Y-88668691D01*
X162443864Y-88668702D01*
X162424700Y-88899993D01*
X162424700Y-88900006D01*
X162443864Y-89131297D01*
X162443866Y-89131308D01*
X162500842Y-89356300D01*
X162594075Y-89568848D01*
X162721016Y-89763147D01*
X162721019Y-89763151D01*
X162721021Y-89763153D01*
X162878216Y-89933913D01*
X162878219Y-89933915D01*
X162878222Y-89933918D01*
X163055818Y-90072147D01*
X163096631Y-90128857D01*
X163100306Y-90198630D01*
X163065674Y-90259313D01*
X163055818Y-90267853D01*
X162878222Y-90406081D01*
X162878219Y-90406084D01*
X162721016Y-90576852D01*
X162594075Y-90771151D01*
X162500842Y-90983699D01*
X162443866Y-91208691D01*
X162443864Y-91208702D01*
X162424700Y-91439993D01*
X162424700Y-91440006D01*
X162443864Y-91671297D01*
X162443866Y-91671308D01*
X162500842Y-91896300D01*
X162594075Y-92108848D01*
X162721016Y-92303147D01*
X162721019Y-92303151D01*
X162721021Y-92303153D01*
X162878216Y-92473913D01*
X162878219Y-92473915D01*
X162878222Y-92473918D01*
X163055818Y-92612147D01*
X163096631Y-92668857D01*
X163100306Y-92738630D01*
X163065674Y-92799313D01*
X163055818Y-92807853D01*
X162878222Y-92946081D01*
X162878219Y-92946084D01*
X162721016Y-93116852D01*
X162594075Y-93311151D01*
X162500842Y-93523699D01*
X162443866Y-93748691D01*
X162443864Y-93748702D01*
X162424700Y-93979993D01*
X162424700Y-93980006D01*
X162443864Y-94211297D01*
X162443866Y-94211308D01*
X162500842Y-94436300D01*
X162594075Y-94648848D01*
X162721016Y-94843147D01*
X162721019Y-94843151D01*
X162721021Y-94843153D01*
X162878216Y-95013913D01*
X162878219Y-95013915D01*
X162878222Y-95013918D01*
X163055818Y-95152147D01*
X163096631Y-95208857D01*
X163100306Y-95278630D01*
X163065674Y-95339313D01*
X163055818Y-95347853D01*
X162878222Y-95486081D01*
X162878219Y-95486084D01*
X162721016Y-95656852D01*
X162594075Y-95851151D01*
X162500842Y-96063699D01*
X162443866Y-96288691D01*
X162443864Y-96288702D01*
X162424700Y-96519993D01*
X162424700Y-96520006D01*
X162443864Y-96751297D01*
X162443866Y-96751308D01*
X162500842Y-96976300D01*
X162594075Y-97188848D01*
X162721016Y-97383147D01*
X162721019Y-97383151D01*
X162721021Y-97383153D01*
X162878216Y-97553913D01*
X162878219Y-97553915D01*
X162878222Y-97553918D01*
X163055818Y-97692147D01*
X163096631Y-97748857D01*
X163100306Y-97818630D01*
X163065674Y-97879313D01*
X163055818Y-97887853D01*
X162878222Y-98026081D01*
X162878219Y-98026084D01*
X162721016Y-98196852D01*
X162594075Y-98391151D01*
X162500842Y-98603699D01*
X162443866Y-98828691D01*
X162443864Y-98828702D01*
X162424700Y-99059993D01*
X162424700Y-99060006D01*
X162443864Y-99291297D01*
X162443866Y-99291308D01*
X162500842Y-99516300D01*
X162594075Y-99728848D01*
X162721016Y-99923147D01*
X162721019Y-99923151D01*
X162721021Y-99923153D01*
X162878216Y-100093913D01*
X162878219Y-100093915D01*
X162878222Y-100093918D01*
X163055818Y-100232147D01*
X163096631Y-100288857D01*
X163100306Y-100358630D01*
X163065674Y-100419313D01*
X163055818Y-100427853D01*
X162878222Y-100566081D01*
X162878219Y-100566084D01*
X162721016Y-100736852D01*
X162594075Y-100931151D01*
X162500842Y-101143699D01*
X162443866Y-101368691D01*
X162443864Y-101368702D01*
X162424700Y-101599993D01*
X162424700Y-101600006D01*
X142375300Y-101600006D01*
X142375300Y-101599993D01*
X142356135Y-101368702D01*
X142356133Y-101368691D01*
X142299157Y-101143699D01*
X142205924Y-100931151D01*
X142078983Y-100736852D01*
X142078980Y-100736849D01*
X142078979Y-100736847D01*
X141921784Y-100566087D01*
X141744180Y-100427853D01*
X141703368Y-100371143D01*
X141699693Y-100301370D01*
X141734324Y-100240687D01*
X141744181Y-100232146D01*
X141748962Y-100228425D01*
X141921784Y-100093913D01*
X142078979Y-99923153D01*
X142205924Y-99728849D01*
X142299157Y-99516300D01*
X142356134Y-99291305D01*
X142356135Y-99291297D01*
X142375300Y-99060006D01*
X142375300Y-99059993D01*
X142356135Y-98828702D01*
X142356133Y-98828691D01*
X142299157Y-98603699D01*
X142205924Y-98391151D01*
X142078983Y-98196852D01*
X142078980Y-98196849D01*
X142078979Y-98196847D01*
X141921784Y-98026087D01*
X141744180Y-97887853D01*
X141703368Y-97831143D01*
X141699693Y-97761370D01*
X141734324Y-97700687D01*
X141744181Y-97692146D01*
X141921784Y-97553913D01*
X142078979Y-97383153D01*
X142205924Y-97188849D01*
X142299157Y-96976300D01*
X142356134Y-96751305D01*
X142357565Y-96734040D01*
X142375300Y-96520006D01*
X142375300Y-96519993D01*
X142356135Y-96288702D01*
X142356133Y-96288691D01*
X142299157Y-96063699D01*
X142205924Y-95851151D01*
X142078983Y-95656852D01*
X142078980Y-95656849D01*
X142078979Y-95656847D01*
X141921784Y-95486087D01*
X141744180Y-95347853D01*
X141703368Y-95291143D01*
X141699693Y-95221370D01*
X141734324Y-95160687D01*
X141744181Y-95152146D01*
X141765802Y-95135318D01*
X141921784Y-95013913D01*
X142078979Y-94843153D01*
X142205924Y-94648849D01*
X142299157Y-94436300D01*
X142356134Y-94211305D01*
X142375300Y-93980000D01*
X142375300Y-93979999D01*
X142375300Y-93979993D01*
X142356135Y-93748702D01*
X142356133Y-93748691D01*
X142299157Y-93523699D01*
X142205924Y-93311151D01*
X142078983Y-93116852D01*
X142078980Y-93116849D01*
X142078979Y-93116847D01*
X141921784Y-92946087D01*
X141744180Y-92807853D01*
X141703368Y-92751143D01*
X141699693Y-92681370D01*
X141734324Y-92620687D01*
X141744181Y-92612146D01*
X141748962Y-92608425D01*
X141921784Y-92473913D01*
X142078979Y-92303153D01*
X142205924Y-92108849D01*
X142299157Y-91896300D01*
X142356134Y-91671305D01*
X142375300Y-91440000D01*
X142375300Y-91439999D01*
X142375300Y-91439993D01*
X142356135Y-91208702D01*
X142356133Y-91208691D01*
X142299157Y-90983699D01*
X142205924Y-90771151D01*
X142078983Y-90576852D01*
X142078980Y-90576849D01*
X142078979Y-90576847D01*
X141921784Y-90406087D01*
X141744180Y-90267853D01*
X141703368Y-90211143D01*
X141699693Y-90141370D01*
X141734324Y-90080687D01*
X141744181Y-90072146D01*
X141748962Y-90068425D01*
X141921784Y-89933913D01*
X142078979Y-89763153D01*
X142205924Y-89568849D01*
X142299157Y-89356300D01*
X142356134Y-89131305D01*
X142375300Y-88900000D01*
X142375300Y-88899999D01*
X142375300Y-88899993D01*
X142356135Y-88668702D01*
X142356133Y-88668691D01*
X142299157Y-88443699D01*
X142205924Y-88231151D01*
X142078983Y-88036852D01*
X142078980Y-88036849D01*
X142078979Y-88036847D01*
X141921784Y-87866087D01*
X141744180Y-87727853D01*
X141703368Y-87671143D01*
X141699693Y-87601370D01*
X141734324Y-87540687D01*
X141744181Y-87532146D01*
X141748962Y-87528425D01*
X141921784Y-87393913D01*
X142078979Y-87223153D01*
X142205924Y-87028849D01*
X142299157Y-86816300D01*
X142356134Y-86591305D01*
X142375300Y-86360000D01*
X142375300Y-86359999D01*
X142375300Y-86359993D01*
X142356135Y-86128702D01*
X142356133Y-86128691D01*
X142299157Y-85903699D01*
X142205924Y-85691151D01*
X142078983Y-85496852D01*
X142078980Y-85496849D01*
X142078979Y-85496847D01*
X141921784Y-85326087D01*
X141744180Y-85187853D01*
X141703368Y-85131143D01*
X141699693Y-85061370D01*
X141734324Y-85000687D01*
X141744181Y-84992146D01*
X141921784Y-84853913D01*
X142078979Y-84683153D01*
X142205924Y-84488849D01*
X142299157Y-84276300D01*
X142356134Y-84051305D01*
X142357095Y-84039712D01*
X142375300Y-83820006D01*
X142375300Y-83819993D01*
X142356135Y-83588702D01*
X142356133Y-83588691D01*
X142299157Y-83363699D01*
X142205924Y-83151151D01*
X142078983Y-82956852D01*
X142078980Y-82956849D01*
X142078979Y-82956847D01*
X141921784Y-82786087D01*
X141744180Y-82647853D01*
X141703368Y-82591143D01*
X141699693Y-82521370D01*
X141734324Y-82460687D01*
X141744181Y-82452146D01*
X141921784Y-82313913D01*
X142078979Y-82143153D01*
X142205924Y-81948849D01*
X142299157Y-81736300D01*
X142356134Y-81511305D01*
X142357197Y-81498475D01*
X142375300Y-81280006D01*
X142375300Y-81279993D01*
X142356135Y-81048702D01*
X142356133Y-81048691D01*
X142299157Y-80823699D01*
X142205924Y-80611151D01*
X142078983Y-80416852D01*
X142078980Y-80416849D01*
X142078979Y-80416847D01*
X141921784Y-80246087D01*
X141921779Y-80246083D01*
X141921777Y-80246081D01*
X141738634Y-80103535D01*
X141738628Y-80103531D01*
X141534504Y-79993064D01*
X141534495Y-79993061D01*
X141314984Y-79917702D01*
X141117540Y-79884755D01*
X141086049Y-79879500D01*
X140853951Y-79879500D01*
X140822460Y-79884755D01*
X140625015Y-79917702D01*
X140405504Y-79993061D01*
X140405495Y-79993064D01*
X140201371Y-80103531D01*
X140201365Y-80103535D01*
X140018222Y-80246081D01*
X140018219Y-80246084D01*
X140018216Y-80246086D01*
X140018216Y-80246087D01*
X139995743Y-80270499D01*
X139861016Y-80416852D01*
X139734075Y-80611151D01*
X139640842Y-80823699D01*
X139583866Y-81048691D01*
X139583864Y-81048702D01*
X139564700Y-81279993D01*
X139564700Y-81280006D01*
X139583864Y-81511297D01*
X139583866Y-81511308D01*
X139640842Y-81736300D01*
X139734075Y-81948848D01*
X139861016Y-82143147D01*
X139861019Y-82143151D01*
X139861021Y-82143153D01*
X140018216Y-82313913D01*
X140018219Y-82313915D01*
X140018222Y-82313918D01*
X140195818Y-82452147D01*
X140236631Y-82508857D01*
X140240306Y-82578630D01*
X140205674Y-82639313D01*
X140195818Y-82647853D01*
X140018222Y-82786081D01*
X140018219Y-82786084D01*
X139861016Y-82956852D01*
X139734075Y-83151151D01*
X139640842Y-83363699D01*
X139583866Y-83588691D01*
X139583864Y-83588702D01*
X139564700Y-83819993D01*
X139564700Y-83820006D01*
X139583864Y-84051297D01*
X139583866Y-84051308D01*
X139640842Y-84276300D01*
X139734075Y-84488848D01*
X139861016Y-84683147D01*
X139861019Y-84683151D01*
X139861021Y-84683153D01*
X140018216Y-84853913D01*
X140018219Y-84853915D01*
X140018222Y-84853918D01*
X140195818Y-84992147D01*
X140236631Y-85048857D01*
X140240306Y-85118630D01*
X140205674Y-85179313D01*
X140195818Y-85187853D01*
X140018222Y-85326081D01*
X140018219Y-85326084D01*
X139861016Y-85496852D01*
X139734075Y-85691151D01*
X139640842Y-85903699D01*
X139583866Y-86128691D01*
X139583864Y-86128702D01*
X139564700Y-86359993D01*
X139564700Y-86360006D01*
X139583864Y-86591297D01*
X139583866Y-86591308D01*
X139640842Y-86816300D01*
X139734075Y-87028848D01*
X139861016Y-87223147D01*
X139861019Y-87223151D01*
X139861021Y-87223153D01*
X140018216Y-87393913D01*
X140018219Y-87393915D01*
X140018222Y-87393918D01*
X140195818Y-87532147D01*
X140236631Y-87588857D01*
X140240306Y-87658630D01*
X140205674Y-87719313D01*
X140195818Y-87727853D01*
X140018222Y-87866081D01*
X140018219Y-87866084D01*
X139861016Y-88036852D01*
X139734075Y-88231151D01*
X139640842Y-88443699D01*
X139583866Y-88668691D01*
X139583864Y-88668702D01*
X139564700Y-88899993D01*
X139564700Y-88900006D01*
X139583864Y-89131297D01*
X139583866Y-89131308D01*
X139640842Y-89356300D01*
X139734075Y-89568848D01*
X139861016Y-89763147D01*
X139861019Y-89763151D01*
X139861021Y-89763153D01*
X140018216Y-89933913D01*
X140018219Y-89933915D01*
X140018222Y-89933918D01*
X140195818Y-90072147D01*
X140236631Y-90128857D01*
X140240306Y-90198630D01*
X140205674Y-90259313D01*
X140195818Y-90267853D01*
X140018222Y-90406081D01*
X140018219Y-90406084D01*
X139861016Y-90576852D01*
X139734075Y-90771151D01*
X139640842Y-90983699D01*
X139583866Y-91208691D01*
X139583864Y-91208702D01*
X139564700Y-91439993D01*
X139564700Y-91440006D01*
X139583864Y-91671297D01*
X139583866Y-91671308D01*
X139640842Y-91896300D01*
X139734075Y-92108848D01*
X139861016Y-92303147D01*
X139861019Y-92303151D01*
X139861021Y-92303153D01*
X140018216Y-92473913D01*
X140018219Y-92473915D01*
X140018222Y-92473918D01*
X140195818Y-92612147D01*
X140236631Y-92668857D01*
X140240306Y-92738630D01*
X140205674Y-92799313D01*
X140195818Y-92807853D01*
X140018222Y-92946081D01*
X140018219Y-92946084D01*
X139861016Y-93116852D01*
X139734075Y-93311151D01*
X139640842Y-93523699D01*
X139583866Y-93748691D01*
X139583864Y-93748702D01*
X139564700Y-93979993D01*
X139564700Y-93980006D01*
X139583864Y-94211297D01*
X139583866Y-94211309D01*
X139621175Y-94358637D01*
X139618550Y-94428457D01*
X139588650Y-94476758D01*
X133220208Y-100845199D01*
X133207951Y-100855020D01*
X133208134Y-100855241D01*
X133202123Y-100860213D01*
X133154772Y-100910636D01*
X133133889Y-100931519D01*
X133133877Y-100931532D01*
X133129621Y-100937017D01*
X133125837Y-100941447D01*
X133093937Y-100975418D01*
X133093936Y-100975420D01*
X133084284Y-100992976D01*
X133073610Y-101009226D01*
X133061329Y-101025061D01*
X133061324Y-101025068D01*
X133042815Y-101067838D01*
X133040245Y-101073084D01*
X133017803Y-101113906D01*
X133012822Y-101133307D01*
X133006521Y-101151710D01*
X132998562Y-101170102D01*
X132998561Y-101170105D01*
X132991271Y-101216127D01*
X132990087Y-101221846D01*
X132978501Y-101266972D01*
X132978500Y-101266982D01*
X132978500Y-101287016D01*
X132976973Y-101306415D01*
X132973840Y-101326194D01*
X132973839Y-101326197D01*
X132978224Y-101372585D01*
X132978499Y-101378421D01*
X132978500Y-109533845D01*
X132958815Y-109600884D01*
X132942181Y-109621526D01*
X132262208Y-110301498D01*
X132249951Y-110311319D01*
X132250134Y-110311540D01*
X132244123Y-110316512D01*
X132196772Y-110366935D01*
X132175889Y-110387818D01*
X132175877Y-110387831D01*
X132171621Y-110393316D01*
X132167837Y-110397746D01*
X132135937Y-110431717D01*
X132135936Y-110431719D01*
X132126284Y-110449275D01*
X132115610Y-110465525D01*
X132103329Y-110481360D01*
X132103324Y-110481367D01*
X132084815Y-110524137D01*
X132082245Y-110529383D01*
X132059803Y-110570205D01*
X132054822Y-110589606D01*
X132048521Y-110608009D01*
X132040562Y-110626401D01*
X132040561Y-110626404D01*
X132033271Y-110672426D01*
X132032087Y-110678145D01*
X132020501Y-110723271D01*
X132020500Y-110723281D01*
X132020500Y-110743315D01*
X132018973Y-110762712D01*
X132018407Y-110766286D01*
X132015840Y-110782493D01*
X132015839Y-110782496D01*
X132020224Y-110828884D01*
X132020499Y-110834720D01*
X132020500Y-118630500D01*
X132000815Y-118697539D01*
X131948011Y-118743294D01*
X131896500Y-118754500D01*
X125735227Y-118754500D01*
X125668188Y-118734815D01*
X125633652Y-118701623D01*
X125498494Y-118508597D01*
X125331402Y-118341506D01*
X125331396Y-118341501D01*
X125145842Y-118211575D01*
X125102217Y-118156998D01*
X125095023Y-118087500D01*
X125126546Y-118025145D01*
X125145842Y-118008425D01*
X125331115Y-117878695D01*
X125331401Y-117878495D01*
X125498495Y-117711401D01*
X125634035Y-117517830D01*
X125733903Y-117303663D01*
X125795063Y-117075408D01*
X125815659Y-116840000D01*
X125795063Y-116604592D01*
X125733903Y-116376337D01*
X125634035Y-116162171D01*
X125498495Y-115968599D01*
X125498494Y-115968597D01*
X125331402Y-115801506D01*
X125331401Y-115801505D01*
X125145842Y-115671575D01*
X125145841Y-115671574D01*
X125102216Y-115616997D01*
X125095024Y-115547498D01*
X125126546Y-115485144D01*
X125145836Y-115468428D01*
X125331401Y-115338495D01*
X125498495Y-115171401D01*
X125634035Y-114977830D01*
X125733903Y-114763663D01*
X125795063Y-114535408D01*
X125815659Y-114300000D01*
X125795063Y-114064592D01*
X125733903Y-113836337D01*
X125634035Y-113622171D01*
X125498495Y-113428599D01*
X125498494Y-113428597D01*
X125331402Y-113261506D01*
X125331396Y-113261501D01*
X125145842Y-113131575D01*
X125102217Y-113076998D01*
X125095023Y-113007500D01*
X125126546Y-112945145D01*
X125145842Y-112928425D01*
X125168026Y-112912891D01*
X125331401Y-112798495D01*
X125498495Y-112631401D01*
X125634035Y-112437830D01*
X125733903Y-112223663D01*
X125795063Y-111995408D01*
X125815659Y-111760000D01*
X125795063Y-111524592D01*
X125733903Y-111296337D01*
X125634035Y-111082171D01*
X125498495Y-110888599D01*
X125376179Y-110766283D01*
X125342696Y-110704963D01*
X125347680Y-110635271D01*
X125389551Y-110579337D01*
X125420529Y-110562422D01*
X125552086Y-110513354D01*
X125552093Y-110513350D01*
X125667187Y-110427190D01*
X125667190Y-110427187D01*
X125753350Y-110312093D01*
X125753354Y-110312086D01*
X125803596Y-110177379D01*
X125803598Y-110177372D01*
X125809999Y-110117844D01*
X125810000Y-110117827D01*
X125810000Y-109470000D01*
X125083769Y-109470000D01*
X125016730Y-109450315D01*
X124970975Y-109397511D01*
X124961031Y-109328353D01*
X124964792Y-109311064D01*
X124970000Y-109293327D01*
X124970000Y-109146672D01*
X124964792Y-109128936D01*
X124964792Y-109059066D01*
X125002566Y-109000288D01*
X125066121Y-108971262D01*
X125083769Y-108970000D01*
X125810000Y-108970000D01*
X125810000Y-108322172D01*
X125809999Y-108322155D01*
X125803598Y-108262627D01*
X125803596Y-108262620D01*
X125753354Y-108127913D01*
X125753350Y-108127906D01*
X125667190Y-108012812D01*
X125667187Y-108012809D01*
X125552093Y-107926649D01*
X125552088Y-107926646D01*
X125420528Y-107877577D01*
X125364595Y-107835705D01*
X125340178Y-107770241D01*
X125355030Y-107701968D01*
X125376175Y-107673720D01*
X125498495Y-107551401D01*
X125634035Y-107357830D01*
X125733903Y-107143663D01*
X125795063Y-106915408D01*
X125815659Y-106680000D01*
X125795063Y-106444592D01*
X125733903Y-106216337D01*
X125634035Y-106002171D01*
X125589346Y-105938347D01*
X125498494Y-105808597D01*
X125331402Y-105641506D01*
X125331401Y-105641505D01*
X125145842Y-105511575D01*
X125145841Y-105511574D01*
X125102216Y-105456997D01*
X125095024Y-105387498D01*
X125126546Y-105325144D01*
X125145836Y-105308428D01*
X125331401Y-105178495D01*
X125498495Y-105011401D01*
X125634035Y-104817830D01*
X125733903Y-104603663D01*
X125795063Y-104375408D01*
X125815659Y-104140000D01*
X125815658Y-104139994D01*
X125795063Y-103904596D01*
X125795063Y-103904592D01*
X125733903Y-103676337D01*
X125634035Y-103462171D01*
X125550147Y-103342365D01*
X125498494Y-103268597D01*
X125331402Y-103101506D01*
X125331396Y-103101501D01*
X125145842Y-102971575D01*
X125102217Y-102916998D01*
X125095023Y-102847500D01*
X125126546Y-102785145D01*
X125145842Y-102768425D01*
X125168026Y-102752891D01*
X125331401Y-102638495D01*
X125498495Y-102471401D01*
X125634035Y-102277830D01*
X125733903Y-102063663D01*
X125795063Y-101835408D01*
X125815659Y-101600000D01*
X125795063Y-101364592D01*
X125733903Y-101136337D01*
X125634035Y-100922171D01*
X125625959Y-100910636D01*
X125498494Y-100728597D01*
X125331402Y-100561506D01*
X125331401Y-100561505D01*
X125145842Y-100431575D01*
X125145841Y-100431574D01*
X125102216Y-100376997D01*
X125095024Y-100307498D01*
X125126546Y-100245144D01*
X125145836Y-100228428D01*
X125331401Y-100098495D01*
X125498495Y-99931401D01*
X125634035Y-99737830D01*
X125733903Y-99523663D01*
X125795063Y-99295408D01*
X125815659Y-99060000D01*
X125795063Y-98824592D01*
X125733903Y-98596337D01*
X125634035Y-98382171D01*
X125504270Y-98196847D01*
X125498496Y-98188600D01*
X125498496Y-98188599D01*
X125376567Y-98066671D01*
X125343084Y-98005351D01*
X125348068Y-97935659D01*
X125389939Y-97879725D01*
X125420915Y-97862810D01*
X125552331Y-97813796D01*
X125667546Y-97727546D01*
X125753796Y-97612331D01*
X125804091Y-97477483D01*
X125810500Y-97417873D01*
X125810499Y-95622128D01*
X125804103Y-95562627D01*
X125804091Y-95562516D01*
X125753797Y-95427671D01*
X125753793Y-95427664D01*
X125667547Y-95312455D01*
X125667544Y-95312452D01*
X125552335Y-95226206D01*
X125552328Y-95226202D01*
X125420917Y-95177189D01*
X125364983Y-95135318D01*
X125340566Y-95069853D01*
X125355418Y-95001580D01*
X125376563Y-94973332D01*
X125498495Y-94851401D01*
X125634035Y-94657830D01*
X125733903Y-94443663D01*
X125795063Y-94215408D01*
X125815659Y-93980000D01*
X125795063Y-93744592D01*
X125733903Y-93516337D01*
X125634035Y-93302171D01*
X125504271Y-93116847D01*
X125498494Y-93108597D01*
X125331402Y-92941506D01*
X125331396Y-92941501D01*
X125145842Y-92811575D01*
X125102217Y-92756998D01*
X125095023Y-92687500D01*
X125126546Y-92625145D01*
X125145842Y-92608425D01*
X125168026Y-92592891D01*
X125331401Y-92478495D01*
X125498495Y-92311401D01*
X125634035Y-92117830D01*
X125733903Y-91903663D01*
X125795063Y-91675408D01*
X125815659Y-91440000D01*
X125795063Y-91204592D01*
X125733903Y-90976337D01*
X125634035Y-90762171D01*
X125504271Y-90576847D01*
X125498494Y-90568597D01*
X125331402Y-90401506D01*
X125331401Y-90401505D01*
X125145842Y-90271575D01*
X125145841Y-90271574D01*
X125102216Y-90216997D01*
X125095024Y-90147498D01*
X125126546Y-90085144D01*
X125145836Y-90068428D01*
X125331401Y-89938495D01*
X125498495Y-89771401D01*
X125634035Y-89577830D01*
X125733903Y-89363663D01*
X125795063Y-89135408D01*
X125815659Y-88900000D01*
X125795063Y-88664592D01*
X125733903Y-88436337D01*
X125634035Y-88222171D01*
X125504271Y-88036847D01*
X125498494Y-88028597D01*
X125331402Y-87861506D01*
X125331396Y-87861501D01*
X125145842Y-87731575D01*
X125102217Y-87676998D01*
X125095023Y-87607500D01*
X125126546Y-87545145D01*
X125145842Y-87528425D01*
X125168026Y-87512891D01*
X125331401Y-87398495D01*
X125498495Y-87231401D01*
X125634035Y-87037830D01*
X125733903Y-86823663D01*
X125795063Y-86595408D01*
X125815659Y-86360000D01*
X125795063Y-86124592D01*
X125733903Y-85896337D01*
X125634035Y-85682171D01*
X125504270Y-85496847D01*
X125498496Y-85488600D01*
X125498496Y-85488599D01*
X125376179Y-85366283D01*
X125342696Y-85304963D01*
X125347680Y-85235271D01*
X125389551Y-85179337D01*
X125420529Y-85162422D01*
X125552086Y-85113354D01*
X125552093Y-85113350D01*
X125667187Y-85027190D01*
X125667190Y-85027187D01*
X125753350Y-84912093D01*
X125753354Y-84912086D01*
X125803596Y-84777379D01*
X125803598Y-84777372D01*
X125809999Y-84717844D01*
X125810000Y-84717827D01*
X125810000Y-84070000D01*
X125083769Y-84070000D01*
X125016730Y-84050315D01*
X124970975Y-83997511D01*
X124961031Y-83928353D01*
X124964792Y-83911064D01*
X124970000Y-83893327D01*
X124970000Y-83746672D01*
X124964792Y-83728936D01*
X124964792Y-83659066D01*
X125002566Y-83600288D01*
X125066121Y-83571262D01*
X125083769Y-83570000D01*
X125810000Y-83570000D01*
X125810000Y-82922172D01*
X125809999Y-82922155D01*
X125803598Y-82862627D01*
X125803596Y-82862620D01*
X125753354Y-82727913D01*
X125753350Y-82727906D01*
X125667190Y-82612812D01*
X125667187Y-82612809D01*
X125552093Y-82526649D01*
X125552088Y-82526646D01*
X125420528Y-82477577D01*
X125364595Y-82435705D01*
X125340178Y-82370241D01*
X125355030Y-82301968D01*
X125376175Y-82273720D01*
X125498495Y-82151401D01*
X125634035Y-81957830D01*
X125733903Y-81743663D01*
X125795063Y-81515408D01*
X125815659Y-81280000D01*
X125795063Y-81044592D01*
X125743155Y-80850868D01*
X125733905Y-80816344D01*
X125733904Y-80816343D01*
X125733903Y-80816337D01*
X125634035Y-80602171D01*
X125504271Y-80416847D01*
X125498494Y-80408597D01*
X125331402Y-80241506D01*
X125331401Y-80241505D01*
X125165792Y-80125544D01*
X125145841Y-80111574D01*
X125102216Y-80056997D01*
X125095024Y-79987498D01*
X125126546Y-79925144D01*
X125145836Y-79908428D01*
X125331401Y-79778495D01*
X125498495Y-79611401D01*
X125634035Y-79417830D01*
X125733903Y-79203663D01*
X125795063Y-78975408D01*
X125815659Y-78740000D01*
X125795063Y-78504592D01*
X125733903Y-78276337D01*
X125634035Y-78062171D01*
X125614456Y-78034208D01*
X125498494Y-77868597D01*
X125331402Y-77701506D01*
X125331395Y-77701501D01*
X125328297Y-77699332D01*
X125290040Y-77672544D01*
X125137834Y-77565967D01*
X125137830Y-77565965D01*
X125136908Y-77565535D01*
X124923663Y-77466097D01*
X124923659Y-77466096D01*
X124923655Y-77466094D01*
X124695413Y-77404938D01*
X124695403Y-77404936D01*
X124460001Y-77384341D01*
X124459999Y-77384341D01*
X124224596Y-77404936D01*
X124224586Y-77404938D01*
X123996344Y-77466094D01*
X123996335Y-77466098D01*
X123782171Y-77565964D01*
X123782169Y-77565965D01*
X123588597Y-77701505D01*
X123421505Y-77868597D01*
X123285965Y-78062169D01*
X123285964Y-78062171D01*
X123186098Y-78276335D01*
X123186094Y-78276344D01*
X123124938Y-78504586D01*
X123124936Y-78504596D01*
X123104341Y-78739999D01*
X123104341Y-78740000D01*
X123124936Y-78975403D01*
X123124938Y-78975413D01*
X123186094Y-79203655D01*
X123186096Y-79203659D01*
X123186097Y-79203663D01*
X123233328Y-79304949D01*
X123285965Y-79417830D01*
X123285967Y-79417834D01*
X123421501Y-79611395D01*
X123421506Y-79611402D01*
X123588597Y-79778493D01*
X123588603Y-79778498D01*
X123774158Y-79908425D01*
X123817783Y-79963002D01*
X123824977Y-80032500D01*
X123793454Y-80094855D01*
X123774158Y-80111575D01*
X123588597Y-80241505D01*
X123421505Y-80408597D01*
X123285965Y-80602169D01*
X123285964Y-80602171D01*
X123186098Y-80816335D01*
X123186094Y-80816344D01*
X123124938Y-81044586D01*
X123124936Y-81044596D01*
X123104341Y-81279999D01*
X123104341Y-81280000D01*
X123124936Y-81515403D01*
X123124938Y-81515413D01*
X123186094Y-81743655D01*
X123186096Y-81743659D01*
X123186097Y-81743663D01*
X123273295Y-81930660D01*
X123285965Y-81957830D01*
X123285967Y-81957834D01*
X123341422Y-82037031D01*
X123421501Y-82151396D01*
X123421506Y-82151402D01*
X123543818Y-82273714D01*
X123577303Y-82335037D01*
X123572319Y-82404729D01*
X123530447Y-82460662D01*
X123499471Y-82477577D01*
X123367912Y-82526646D01*
X123367906Y-82526649D01*
X123252812Y-82612809D01*
X123252809Y-82612812D01*
X123166649Y-82727906D01*
X123166645Y-82727913D01*
X123116403Y-82862620D01*
X123116401Y-82862627D01*
X123110000Y-82922155D01*
X123110000Y-83570000D01*
X123836231Y-83570000D01*
X123903270Y-83589685D01*
X123949025Y-83642489D01*
X123958969Y-83711647D01*
X123955208Y-83728936D01*
X123950000Y-83746672D01*
X123950000Y-83893327D01*
X123955208Y-83911064D01*
X123955208Y-83980934D01*
X123917434Y-84039712D01*
X123853879Y-84068738D01*
X123836231Y-84070000D01*
X123110000Y-84070000D01*
X123110000Y-84717844D01*
X123116401Y-84777372D01*
X123116403Y-84777379D01*
X123166645Y-84912086D01*
X123166649Y-84912093D01*
X123252809Y-85027187D01*
X123252812Y-85027190D01*
X123367906Y-85113350D01*
X123367913Y-85113354D01*
X123499470Y-85162421D01*
X123555403Y-85204292D01*
X123579821Y-85269756D01*
X123564970Y-85338029D01*
X123543819Y-85366284D01*
X123421503Y-85488600D01*
X123285965Y-85682169D01*
X123285964Y-85682171D01*
X123186098Y-85896335D01*
X123186094Y-85896344D01*
X123124938Y-86124586D01*
X123124936Y-86124596D01*
X123104341Y-86359999D01*
X123104341Y-86360000D01*
X123124936Y-86595403D01*
X123124938Y-86595413D01*
X123186094Y-86823655D01*
X123186096Y-86823659D01*
X123186097Y-86823663D01*
X123281777Y-87028848D01*
X123285965Y-87037830D01*
X123285967Y-87037834D01*
X123394281Y-87192521D01*
X123415725Y-87223147D01*
X123421501Y-87231395D01*
X123421506Y-87231402D01*
X123588597Y-87398493D01*
X123588603Y-87398498D01*
X123774158Y-87528425D01*
X123817783Y-87583002D01*
X123824977Y-87652500D01*
X123793454Y-87714855D01*
X123774158Y-87731575D01*
X123588597Y-87861505D01*
X123421505Y-88028597D01*
X123285965Y-88222169D01*
X123285964Y-88222171D01*
X123186098Y-88436335D01*
X123186094Y-88436344D01*
X123124938Y-88664586D01*
X123124936Y-88664596D01*
X123104341Y-88899999D01*
X123104341Y-88900000D01*
X123124936Y-89135403D01*
X123124938Y-89135413D01*
X123186094Y-89363655D01*
X123186096Y-89363659D01*
X123186097Y-89363663D01*
X123281777Y-89568848D01*
X123285965Y-89577830D01*
X123285967Y-89577834D01*
X123394281Y-89732521D01*
X123415725Y-89763147D01*
X123421501Y-89771395D01*
X123421506Y-89771402D01*
X123588597Y-89938493D01*
X123588603Y-89938498D01*
X123774158Y-90068425D01*
X123817783Y-90123002D01*
X123824977Y-90192500D01*
X123793454Y-90254855D01*
X123774158Y-90271575D01*
X123588597Y-90401505D01*
X123421505Y-90568597D01*
X123285965Y-90762169D01*
X123285964Y-90762171D01*
X123186098Y-90976335D01*
X123186094Y-90976344D01*
X123124938Y-91204586D01*
X123124936Y-91204596D01*
X123104341Y-91439999D01*
X123104341Y-91440000D01*
X123124936Y-91675403D01*
X123124938Y-91675413D01*
X123186094Y-91903655D01*
X123186096Y-91903659D01*
X123186097Y-91903663D01*
X123281777Y-92108848D01*
X123285965Y-92117830D01*
X123285967Y-92117834D01*
X123394281Y-92272521D01*
X123415725Y-92303147D01*
X123421501Y-92311395D01*
X123421506Y-92311402D01*
X123588597Y-92478493D01*
X123588603Y-92478498D01*
X123774158Y-92608425D01*
X123817783Y-92663002D01*
X123824977Y-92732500D01*
X123793454Y-92794855D01*
X123774158Y-92811575D01*
X123588597Y-92941505D01*
X123421505Y-93108597D01*
X123285965Y-93302169D01*
X123285964Y-93302171D01*
X123186098Y-93516335D01*
X123186094Y-93516344D01*
X123124938Y-93744586D01*
X123124936Y-93744596D01*
X123104341Y-93979999D01*
X123104341Y-93980000D01*
X123124936Y-94215403D01*
X123124938Y-94215413D01*
X123186094Y-94443655D01*
X123186096Y-94443659D01*
X123186097Y-94443663D01*
X123281777Y-94648848D01*
X123285965Y-94657830D01*
X123285967Y-94657834D01*
X123394281Y-94812521D01*
X123421501Y-94851396D01*
X123421506Y-94851402D01*
X123543430Y-94973326D01*
X123576915Y-95034649D01*
X123571931Y-95104341D01*
X123530059Y-95160274D01*
X123499083Y-95177189D01*
X123367669Y-95226203D01*
X123367664Y-95226206D01*
X123252455Y-95312452D01*
X123252452Y-95312455D01*
X123166206Y-95427664D01*
X123166202Y-95427671D01*
X123115908Y-95562517D01*
X123109501Y-95622116D01*
X123109501Y-95622123D01*
X123109500Y-95622135D01*
X123109500Y-97417870D01*
X123109501Y-97417876D01*
X123115908Y-97477483D01*
X123166202Y-97612328D01*
X123166206Y-97612335D01*
X123252452Y-97727544D01*
X123252455Y-97727547D01*
X123367664Y-97813793D01*
X123367671Y-97813797D01*
X123499081Y-97862810D01*
X123555015Y-97904681D01*
X123579432Y-97970145D01*
X123564580Y-98038418D01*
X123543430Y-98066673D01*
X123421503Y-98188600D01*
X123285965Y-98382169D01*
X123285964Y-98382171D01*
X123186098Y-98596335D01*
X123186094Y-98596344D01*
X123124938Y-98824586D01*
X123124936Y-98824596D01*
X123104341Y-99059999D01*
X123104341Y-99060000D01*
X123124936Y-99295403D01*
X123124938Y-99295413D01*
X123186094Y-99523655D01*
X123186096Y-99523659D01*
X123186097Y-99523663D01*
X123201529Y-99556757D01*
X123285965Y-99737830D01*
X123285967Y-99737834D01*
X123394281Y-99892521D01*
X123415725Y-99923147D01*
X123421501Y-99931395D01*
X123421506Y-99931402D01*
X123588597Y-100098493D01*
X123588603Y-100098498D01*
X123774158Y-100228425D01*
X123817783Y-100283002D01*
X123824977Y-100352500D01*
X123793454Y-100414855D01*
X123774158Y-100431575D01*
X123588597Y-100561505D01*
X123421505Y-100728597D01*
X123285965Y-100922169D01*
X123285964Y-100922171D01*
X123186098Y-101136335D01*
X123186094Y-101136344D01*
X123124938Y-101364586D01*
X123124936Y-101364596D01*
X123104341Y-101599999D01*
X123104341Y-101600000D01*
X123124936Y-101835403D01*
X123124938Y-101835413D01*
X123186094Y-102063655D01*
X123186096Y-102063659D01*
X123186097Y-102063663D01*
X123246282Y-102192729D01*
X123285965Y-102277830D01*
X123285967Y-102277834D01*
X123394281Y-102432521D01*
X123415725Y-102463147D01*
X123421501Y-102471395D01*
X123421506Y-102471402D01*
X123588597Y-102638493D01*
X123588603Y-102638498D01*
X123774158Y-102768425D01*
X123817783Y-102823002D01*
X123824977Y-102892500D01*
X123793454Y-102954855D01*
X123774158Y-102971575D01*
X123588597Y-103101505D01*
X123421505Y-103268597D01*
X123285965Y-103462169D01*
X123285964Y-103462171D01*
X123186098Y-103676335D01*
X123186094Y-103676344D01*
X123124938Y-103904586D01*
X123124936Y-103904596D01*
X123104341Y-104139999D01*
X123104341Y-104140000D01*
X123124936Y-104375403D01*
X123124938Y-104375413D01*
X123186094Y-104603655D01*
X123186096Y-104603659D01*
X123186097Y-104603663D01*
X123281664Y-104808606D01*
X123285965Y-104817830D01*
X123285967Y-104817834D01*
X123421501Y-105011395D01*
X123421506Y-105011402D01*
X123588597Y-105178493D01*
X123588603Y-105178498D01*
X123774158Y-105308425D01*
X123817783Y-105363002D01*
X123824977Y-105432500D01*
X123793454Y-105494855D01*
X123774158Y-105511575D01*
X123588597Y-105641505D01*
X123421505Y-105808597D01*
X123285965Y-106002169D01*
X123285964Y-106002171D01*
X123186098Y-106216335D01*
X123186094Y-106216344D01*
X123124938Y-106444586D01*
X123124936Y-106444596D01*
X123104341Y-106679999D01*
X123104341Y-106680000D01*
X123124936Y-106915403D01*
X123124938Y-106915413D01*
X123186094Y-107143655D01*
X123186096Y-107143659D01*
X123186097Y-107143663D01*
X123285965Y-107357829D01*
X123285965Y-107357830D01*
X123285967Y-107357834D01*
X123394281Y-107512521D01*
X123421501Y-107551396D01*
X123421506Y-107551402D01*
X123543818Y-107673714D01*
X123577303Y-107735037D01*
X123572319Y-107804729D01*
X123530447Y-107860662D01*
X123499471Y-107877577D01*
X123367912Y-107926646D01*
X123367906Y-107926649D01*
X123252812Y-108012809D01*
X123252809Y-108012812D01*
X123166649Y-108127906D01*
X123166645Y-108127913D01*
X123116403Y-108262620D01*
X123116401Y-108262627D01*
X123110000Y-108322155D01*
X123110000Y-108970000D01*
X123836231Y-108970000D01*
X123903270Y-108989685D01*
X123949025Y-109042489D01*
X123958969Y-109111647D01*
X123955208Y-109128936D01*
X123950000Y-109146672D01*
X123950000Y-109293327D01*
X123955208Y-109311064D01*
X123955208Y-109380934D01*
X123917434Y-109439712D01*
X123853879Y-109468738D01*
X123836231Y-109470000D01*
X123110000Y-109470000D01*
X123110000Y-110117844D01*
X123116401Y-110177372D01*
X123116403Y-110177379D01*
X123166645Y-110312086D01*
X123166649Y-110312093D01*
X123252809Y-110427187D01*
X123252812Y-110427190D01*
X123367906Y-110513350D01*
X123367913Y-110513354D01*
X123499470Y-110562421D01*
X123555403Y-110604292D01*
X123579821Y-110669756D01*
X123564970Y-110738029D01*
X123543819Y-110766284D01*
X123421503Y-110888600D01*
X123285965Y-111082169D01*
X123285964Y-111082171D01*
X123186098Y-111296335D01*
X123186094Y-111296344D01*
X123124938Y-111524586D01*
X123124936Y-111524596D01*
X123104341Y-111759999D01*
X123104341Y-111760000D01*
X123124936Y-111995403D01*
X123124938Y-111995413D01*
X123186094Y-112223655D01*
X123186096Y-112223659D01*
X123186097Y-112223663D01*
X123285965Y-112437829D01*
X123285965Y-112437830D01*
X123285967Y-112437834D01*
X123421501Y-112631395D01*
X123421506Y-112631402D01*
X123588597Y-112798493D01*
X123588603Y-112798498D01*
X123774158Y-112928425D01*
X123817783Y-112983002D01*
X123824977Y-113052500D01*
X123793454Y-113114855D01*
X123774158Y-113131575D01*
X123588597Y-113261505D01*
X123421505Y-113428597D01*
X123285965Y-113622169D01*
X123285964Y-113622171D01*
X123186098Y-113836335D01*
X123186094Y-113836344D01*
X123124938Y-114064586D01*
X123124936Y-114064596D01*
X123104341Y-114299999D01*
X123104341Y-114300000D01*
X123124936Y-114535403D01*
X123124938Y-114535413D01*
X123186094Y-114763655D01*
X123186096Y-114763659D01*
X123186097Y-114763663D01*
X123285964Y-114977829D01*
X123285965Y-114977830D01*
X123285967Y-114977834D01*
X123421501Y-115171395D01*
X123421506Y-115171402D01*
X123588597Y-115338493D01*
X123588603Y-115338498D01*
X123774158Y-115468425D01*
X123817783Y-115523002D01*
X123824977Y-115592500D01*
X123793454Y-115654855D01*
X123774158Y-115671575D01*
X123588597Y-115801505D01*
X123421505Y-115968597D01*
X123285965Y-116162169D01*
X123285964Y-116162171D01*
X123186098Y-116376335D01*
X123186094Y-116376344D01*
X123124938Y-116604586D01*
X123124936Y-116604596D01*
X123104341Y-116839999D01*
X123104341Y-116840000D01*
X123124936Y-117075403D01*
X123124938Y-117075413D01*
X123186094Y-117303655D01*
X123186096Y-117303659D01*
X123186097Y-117303663D01*
X123250209Y-117441151D01*
X123285965Y-117517830D01*
X123285967Y-117517834D01*
X123421501Y-117711395D01*
X123421506Y-117711402D01*
X123588597Y-117878493D01*
X123588603Y-117878498D01*
X123774158Y-118008425D01*
X123817783Y-118063002D01*
X123824977Y-118132500D01*
X123793454Y-118194855D01*
X123774158Y-118211575D01*
X123588597Y-118341505D01*
X123421505Y-118508597D01*
X123285965Y-118702169D01*
X123285964Y-118702171D01*
X123186098Y-118916335D01*
X123186094Y-118916344D01*
X123124938Y-119144586D01*
X123124936Y-119144596D01*
X123104341Y-119379999D01*
X123104341Y-119380000D01*
X123124936Y-119615403D01*
X123124938Y-119615413D01*
X123186094Y-119843655D01*
X123186096Y-119843659D01*
X123186097Y-119843663D01*
X123250209Y-119981151D01*
X123285965Y-120057830D01*
X123285967Y-120057834D01*
X123381102Y-120193700D01*
X123421501Y-120251396D01*
X123421506Y-120251402D01*
X123543818Y-120373714D01*
X123577303Y-120435037D01*
X123572319Y-120504729D01*
X123530447Y-120560662D01*
X123499471Y-120577577D01*
X123367912Y-120626646D01*
X123367906Y-120626649D01*
X123252812Y-120712809D01*
X123252809Y-120712812D01*
X123166649Y-120827906D01*
X123166645Y-120827913D01*
X123116403Y-120962620D01*
X123116401Y-120962627D01*
X123110000Y-121022155D01*
X123110000Y-121670000D01*
X123836231Y-121670000D01*
X123903270Y-121689685D01*
X123949025Y-121742489D01*
X123958969Y-121811647D01*
X123955208Y-121828936D01*
X123950000Y-121846672D01*
X123950000Y-121993327D01*
X123955208Y-122011064D01*
X123955208Y-122080934D01*
X123917434Y-122139712D01*
X123853879Y-122168738D01*
X123836231Y-122170000D01*
X123110000Y-122170000D01*
X123110000Y-122817844D01*
X123116401Y-122877372D01*
X123116403Y-122877379D01*
X123166645Y-123012086D01*
X123166649Y-123012093D01*
X123252809Y-123127187D01*
X123252812Y-123127190D01*
X123367906Y-123213350D01*
X123367913Y-123213354D01*
X123499470Y-123262421D01*
X123555403Y-123304292D01*
X123579821Y-123369756D01*
X123564970Y-123438029D01*
X123543819Y-123466284D01*
X123421503Y-123588600D01*
X123285965Y-123782169D01*
X123285964Y-123782171D01*
X123186098Y-123996335D01*
X123186094Y-123996344D01*
X123124938Y-124224586D01*
X123124936Y-124224596D01*
X123104341Y-124459999D01*
X123104341Y-124460000D01*
X123124936Y-124695403D01*
X123124938Y-124695413D01*
X123186094Y-124923655D01*
X123186096Y-124923659D01*
X123186097Y-124923663D01*
X123250321Y-125061391D01*
X123285965Y-125137830D01*
X123285967Y-125137834D01*
X123421501Y-125331395D01*
X123421506Y-125331402D01*
X123588597Y-125498493D01*
X123588603Y-125498498D01*
X123774158Y-125628425D01*
X123817783Y-125683002D01*
X123824977Y-125752500D01*
X123793454Y-125814855D01*
X123774158Y-125831575D01*
X123588597Y-125961505D01*
X123421505Y-126128597D01*
X123285965Y-126322169D01*
X123285964Y-126322171D01*
X123186098Y-126536335D01*
X123186094Y-126536344D01*
X123124938Y-126764586D01*
X123124936Y-126764596D01*
X123104341Y-126999999D01*
X123104341Y-127000000D01*
X119445536Y-127000000D01*
X119465659Y-126770000D01*
X119445063Y-126534592D01*
X119383903Y-126306337D01*
X119284035Y-126092171D01*
X119268547Y-126070051D01*
X119148494Y-125898597D01*
X118981402Y-125731506D01*
X118981395Y-125731501D01*
X118979251Y-125730000D01*
X118904518Y-125677671D01*
X118787834Y-125595967D01*
X118787830Y-125595965D01*
X118739373Y-125573369D01*
X118573663Y-125496097D01*
X118573659Y-125496096D01*
X118573655Y-125496094D01*
X118345413Y-125434938D01*
X118345403Y-125434936D01*
X118110001Y-125414341D01*
X118109999Y-125414341D01*
X117874596Y-125434936D01*
X117874586Y-125434938D01*
X117646344Y-125496094D01*
X117646335Y-125496098D01*
X117432171Y-125595964D01*
X117432169Y-125595965D01*
X117238600Y-125731503D01*
X117116673Y-125853430D01*
X117055350Y-125886914D01*
X116985658Y-125881930D01*
X116929725Y-125840058D01*
X116912810Y-125809081D01*
X116863797Y-125677671D01*
X116863793Y-125677664D01*
X116777547Y-125562455D01*
X116777544Y-125562452D01*
X116662335Y-125476206D01*
X116662328Y-125476202D01*
X116527482Y-125425908D01*
X116527483Y-125425908D01*
X116467883Y-125419501D01*
X116467881Y-125419500D01*
X116467873Y-125419500D01*
X116467864Y-125419500D01*
X114672129Y-125419500D01*
X114672123Y-125419501D01*
X114612516Y-125425908D01*
X114477671Y-125476202D01*
X114477664Y-125476206D01*
X114362455Y-125562452D01*
X114362452Y-125562455D01*
X114276206Y-125677664D01*
X114276203Y-125677669D01*
X114227189Y-125809083D01*
X114185317Y-125865016D01*
X114119853Y-125889433D01*
X114051580Y-125874581D01*
X114023326Y-125853430D01*
X113901402Y-125731506D01*
X113901395Y-125731501D01*
X113899251Y-125730000D01*
X113824518Y-125677671D01*
X113707834Y-125595967D01*
X113707830Y-125595965D01*
X113659373Y-125573369D01*
X113493663Y-125496097D01*
X113493659Y-125496096D01*
X113493655Y-125496094D01*
X113265413Y-125434938D01*
X113265403Y-125434936D01*
X113030001Y-125414341D01*
X113029999Y-125414341D01*
X112794596Y-125434936D01*
X112794586Y-125434938D01*
X112566344Y-125496094D01*
X112566335Y-125496098D01*
X112352171Y-125595964D01*
X112352169Y-125595965D01*
X112158597Y-125731505D01*
X111991505Y-125898597D01*
X111855965Y-126092169D01*
X111855964Y-126092171D01*
X111756098Y-126306335D01*
X111756094Y-126306344D01*
X111694938Y-126534586D01*
X111694936Y-126534596D01*
X111674341Y-126769999D01*
X111674341Y-126770000D01*
X108015536Y-126770000D01*
X108015063Y-126764592D01*
X107953903Y-126536337D01*
X107854035Y-126322171D01*
X107825753Y-126281779D01*
X107718494Y-126128597D01*
X107551402Y-125961506D01*
X107551401Y-125961505D01*
X107365842Y-125831575D01*
X107365841Y-125831574D01*
X107322216Y-125776997D01*
X107315024Y-125707498D01*
X107346546Y-125645144D01*
X107365836Y-125628428D01*
X107551401Y-125498495D01*
X107718495Y-125331401D01*
X107854035Y-125137830D01*
X107953903Y-124923663D01*
X108015063Y-124695408D01*
X108035659Y-124460000D01*
X108015063Y-124224592D01*
X107953903Y-123996337D01*
X107854035Y-123782171D01*
X107718495Y-123588599D01*
X107596179Y-123466283D01*
X107562696Y-123404963D01*
X107567680Y-123335271D01*
X107609551Y-123279337D01*
X107640529Y-123262422D01*
X107772086Y-123213354D01*
X107772093Y-123213350D01*
X107887187Y-123127190D01*
X107887190Y-123127187D01*
X107973350Y-123012093D01*
X107973354Y-123012086D01*
X108023596Y-122877379D01*
X108023598Y-122877372D01*
X108029999Y-122817844D01*
X108030000Y-122817827D01*
X108030000Y-122170000D01*
X107303769Y-122170000D01*
X107236730Y-122150315D01*
X107190975Y-122097511D01*
X107181031Y-122028353D01*
X107184792Y-122011064D01*
X107190000Y-121993327D01*
X107190000Y-121846672D01*
X107184792Y-121828936D01*
X107184792Y-121759066D01*
X107222566Y-121700288D01*
X107286121Y-121671262D01*
X107303769Y-121670000D01*
X108030000Y-121670000D01*
X108030000Y-121022172D01*
X108029999Y-121022155D01*
X108023598Y-120962627D01*
X108023596Y-120962620D01*
X107973354Y-120827913D01*
X107973350Y-120827906D01*
X107887190Y-120712812D01*
X107887187Y-120712809D01*
X107772093Y-120626649D01*
X107772088Y-120626646D01*
X107640528Y-120577577D01*
X107584595Y-120535705D01*
X107560178Y-120470241D01*
X107575030Y-120401968D01*
X107596175Y-120373720D01*
X107718495Y-120251401D01*
X107854035Y-120057830D01*
X107953903Y-119843663D01*
X108015063Y-119615408D01*
X108035659Y-119380000D01*
X108015063Y-119144592D01*
X107953903Y-118916337D01*
X107854035Y-118702171D01*
X107853652Y-118701623D01*
X107718494Y-118508597D01*
X107551402Y-118341506D01*
X107551396Y-118341501D01*
X107365842Y-118211575D01*
X107322217Y-118156998D01*
X107315023Y-118087500D01*
X107346546Y-118025145D01*
X107365842Y-118008425D01*
X107551115Y-117878695D01*
X107551401Y-117878495D01*
X107718495Y-117711401D01*
X107854035Y-117517830D01*
X107953903Y-117303663D01*
X108015063Y-117075408D01*
X108035659Y-116840000D01*
X108015063Y-116604592D01*
X107953903Y-116376337D01*
X107854035Y-116162171D01*
X107718495Y-115968599D01*
X107718494Y-115968597D01*
X107551402Y-115801506D01*
X107551401Y-115801505D01*
X107365842Y-115671575D01*
X107365841Y-115671574D01*
X107322216Y-115616997D01*
X107315024Y-115547498D01*
X107346546Y-115485144D01*
X107365836Y-115468428D01*
X107551401Y-115338495D01*
X107718495Y-115171401D01*
X107854035Y-114977830D01*
X107953903Y-114763663D01*
X108015063Y-114535408D01*
X108035659Y-114300000D01*
X108015063Y-114064592D01*
X107953903Y-113836337D01*
X107854035Y-113622171D01*
X107718495Y-113428599D01*
X107718494Y-113428597D01*
X107551402Y-113261506D01*
X107551396Y-113261501D01*
X107365842Y-113131575D01*
X107322217Y-113076998D01*
X107315023Y-113007500D01*
X107346546Y-112945145D01*
X107365842Y-112928425D01*
X107388026Y-112912891D01*
X107551401Y-112798495D01*
X107718495Y-112631401D01*
X107854035Y-112437830D01*
X107953903Y-112223663D01*
X108015063Y-111995408D01*
X108035659Y-111760000D01*
X108015063Y-111524592D01*
X107953903Y-111296337D01*
X107854035Y-111082171D01*
X107718495Y-110888599D01*
X107596179Y-110766283D01*
X107562696Y-110704963D01*
X107567680Y-110635271D01*
X107609551Y-110579337D01*
X107640529Y-110562422D01*
X107772086Y-110513354D01*
X107772093Y-110513350D01*
X107887187Y-110427190D01*
X107887190Y-110427187D01*
X107973350Y-110312093D01*
X107973354Y-110312086D01*
X108023596Y-110177379D01*
X108023598Y-110177372D01*
X108029999Y-110117844D01*
X108030000Y-110117827D01*
X108030000Y-109470000D01*
X107303769Y-109470000D01*
X107236730Y-109450315D01*
X107190975Y-109397511D01*
X107181031Y-109328353D01*
X107184792Y-109311064D01*
X107190000Y-109293327D01*
X107190000Y-109146672D01*
X107184792Y-109128936D01*
X107184792Y-109059066D01*
X107222566Y-109000288D01*
X107286121Y-108971262D01*
X107303769Y-108970000D01*
X108030000Y-108970000D01*
X108030000Y-108322172D01*
X108029999Y-108322155D01*
X108023598Y-108262627D01*
X108023596Y-108262620D01*
X107973354Y-108127913D01*
X107973350Y-108127906D01*
X107887190Y-108012812D01*
X107887187Y-108012809D01*
X107772093Y-107926649D01*
X107772088Y-107926646D01*
X107640528Y-107877577D01*
X107584595Y-107835705D01*
X107560178Y-107770241D01*
X107575030Y-107701968D01*
X107596175Y-107673720D01*
X107718495Y-107551401D01*
X107854035Y-107357830D01*
X107953903Y-107143663D01*
X108015063Y-106915408D01*
X108035659Y-106680000D01*
X108015063Y-106444592D01*
X107953903Y-106216337D01*
X107854035Y-106002171D01*
X107809346Y-105938347D01*
X107718494Y-105808597D01*
X107551402Y-105641506D01*
X107551401Y-105641505D01*
X107365842Y-105511575D01*
X107365841Y-105511574D01*
X107322216Y-105456997D01*
X107315024Y-105387498D01*
X107346546Y-105325144D01*
X107365836Y-105308428D01*
X107551401Y-105178495D01*
X107718495Y-105011401D01*
X107854035Y-104817830D01*
X107953903Y-104603663D01*
X108015063Y-104375408D01*
X108035659Y-104140000D01*
X108035658Y-104139994D01*
X108015063Y-103904596D01*
X108015063Y-103904592D01*
X107953903Y-103676337D01*
X107854035Y-103462171D01*
X107770147Y-103342365D01*
X107718494Y-103268597D01*
X107551402Y-103101506D01*
X107551396Y-103101501D01*
X107365842Y-102971575D01*
X107322217Y-102916998D01*
X107315023Y-102847500D01*
X107346546Y-102785145D01*
X107365842Y-102768425D01*
X107388026Y-102752891D01*
X107551401Y-102638495D01*
X107718495Y-102471401D01*
X107854035Y-102277830D01*
X107953903Y-102063663D01*
X108015063Y-101835408D01*
X108035659Y-101600000D01*
X108015063Y-101364592D01*
X107953903Y-101136337D01*
X107854035Y-100922171D01*
X107845959Y-100910636D01*
X107718494Y-100728597D01*
X107551402Y-100561506D01*
X107551401Y-100561505D01*
X107365842Y-100431575D01*
X107365841Y-100431574D01*
X107322216Y-100376997D01*
X107315024Y-100307498D01*
X107346546Y-100245144D01*
X107365836Y-100228428D01*
X107551401Y-100098495D01*
X107718495Y-99931401D01*
X107854035Y-99737830D01*
X107953903Y-99523663D01*
X108015063Y-99295408D01*
X108035659Y-99060000D01*
X108015063Y-98824592D01*
X107953903Y-98596337D01*
X107854035Y-98382171D01*
X107724270Y-98196847D01*
X107718496Y-98188600D01*
X107718495Y-98188599D01*
X107596179Y-98066283D01*
X107562696Y-98004963D01*
X107567680Y-97935271D01*
X107609551Y-97879337D01*
X107640529Y-97862422D01*
X107772086Y-97813354D01*
X107772093Y-97813350D01*
X107887187Y-97727190D01*
X107887190Y-97727187D01*
X107973350Y-97612093D01*
X107973354Y-97612086D01*
X108023596Y-97477379D01*
X108023598Y-97477372D01*
X108029999Y-97417844D01*
X108030000Y-97417827D01*
X108030000Y-96770000D01*
X107303769Y-96770000D01*
X107236730Y-96750315D01*
X107190975Y-96697511D01*
X107181031Y-96628353D01*
X107184792Y-96611064D01*
X107190000Y-96593327D01*
X107190000Y-96446672D01*
X107184792Y-96428936D01*
X107184792Y-96359066D01*
X107222566Y-96300288D01*
X107286121Y-96271262D01*
X107303769Y-96270000D01*
X108030000Y-96270000D01*
X108030000Y-95622172D01*
X108029999Y-95622155D01*
X108023598Y-95562627D01*
X108023597Y-95562623D01*
X108002446Y-95505914D01*
X107997462Y-95436222D01*
X108030947Y-95374899D01*
X108092270Y-95341414D01*
X108161961Y-95346398D01*
X108206309Y-95374899D01*
X118695038Y-105863628D01*
X118728523Y-105924951D01*
X118730678Y-105938347D01*
X118738139Y-106009338D01*
X118748326Y-106106256D01*
X118748327Y-106106259D01*
X118806818Y-106286277D01*
X118806821Y-106286284D01*
X118901467Y-106450216D01*
X119028128Y-106590888D01*
X119028129Y-106590888D01*
X119181265Y-106702148D01*
X119181270Y-106702151D01*
X119354192Y-106779142D01*
X119354197Y-106779144D01*
X119539354Y-106818500D01*
X119539355Y-106818500D01*
X119728644Y-106818500D01*
X119728646Y-106818500D01*
X119913803Y-106779144D01*
X120086730Y-106702151D01*
X120239871Y-106590888D01*
X120366533Y-106450216D01*
X120461179Y-106286284D01*
X120519674Y-106106256D01*
X120539460Y-105918000D01*
X120519674Y-105729744D01*
X120461179Y-105549716D01*
X120419297Y-105477174D01*
X120402826Y-105409274D01*
X120425678Y-105343247D01*
X120480600Y-105300057D01*
X120550153Y-105293416D01*
X120552308Y-105293852D01*
X120555354Y-105294500D01*
X120555361Y-105294500D01*
X120744644Y-105294500D01*
X120744646Y-105294500D01*
X120929803Y-105255144D01*
X121102730Y-105178151D01*
X121255871Y-105066888D01*
X121382533Y-104926216D01*
X121477179Y-104762284D01*
X121535674Y-104582256D01*
X121555460Y-104394000D01*
X121535674Y-104205744D01*
X121477179Y-104025716D01*
X121382533Y-103861784D01*
X121255871Y-103721112D01*
X121243433Y-103712075D01*
X121102734Y-103609851D01*
X121102729Y-103609848D01*
X120929807Y-103532857D01*
X120929802Y-103532855D01*
X120784001Y-103501865D01*
X120744646Y-103493500D01*
X120744645Y-103493500D01*
X120685453Y-103493500D01*
X120618414Y-103473815D01*
X120597772Y-103457181D01*
X108196803Y-91056212D01*
X108186980Y-91043950D01*
X108186759Y-91044134D01*
X108181786Y-91038123D01*
X108131364Y-90990773D01*
X108116926Y-90976335D01*
X108110475Y-90969883D01*
X108104986Y-90965625D01*
X108100561Y-90961847D01*
X108066582Y-90929938D01*
X108066580Y-90929936D01*
X108066577Y-90929935D01*
X108049029Y-90920288D01*
X108032763Y-90909604D01*
X108016932Y-90897324D01*
X107974169Y-90878818D01*
X107968923Y-90876249D01*
X107949445Y-90865541D01*
X107928092Y-90853803D01*
X107928089Y-90853802D01*
X107921482Y-90850170D01*
X107872217Y-90800625D01*
X107868844Y-90793930D01*
X107854035Y-90762171D01*
X107724271Y-90576847D01*
X107718494Y-90568597D01*
X107551402Y-90401506D01*
X107551401Y-90401505D01*
X107365842Y-90271575D01*
X107365841Y-90271574D01*
X107322216Y-90216997D01*
X107315024Y-90147498D01*
X107346546Y-90085144D01*
X107365836Y-90068428D01*
X107551401Y-89938495D01*
X107718495Y-89771401D01*
X107854035Y-89577830D01*
X107953903Y-89363663D01*
X108015063Y-89135408D01*
X108035659Y-88900000D01*
X108015063Y-88664592D01*
X107953903Y-88436337D01*
X107854035Y-88222171D01*
X107724271Y-88036847D01*
X107718494Y-88028597D01*
X107551402Y-87861506D01*
X107551396Y-87861501D01*
X107365842Y-87731575D01*
X107322217Y-87676998D01*
X107315023Y-87607500D01*
X107346546Y-87545145D01*
X107365842Y-87528425D01*
X107388026Y-87512891D01*
X107551401Y-87398495D01*
X107718495Y-87231401D01*
X107854035Y-87037830D01*
X107953903Y-86823663D01*
X108015063Y-86595408D01*
X108035659Y-86360000D01*
X108015063Y-86124592D01*
X107988142Y-86024125D01*
X107989806Y-85954276D01*
X108020235Y-85904353D01*
X109696770Y-84227819D01*
X109758094Y-84194334D01*
X109784452Y-84191500D01*
X114866252Y-84191500D01*
X114933291Y-84211185D01*
X114958400Y-84232526D01*
X114964126Y-84238885D01*
X114964130Y-84238889D01*
X115117265Y-84350148D01*
X115117270Y-84350151D01*
X115290192Y-84427142D01*
X115290197Y-84427144D01*
X115475354Y-84466500D01*
X115475355Y-84466500D01*
X115664644Y-84466500D01*
X115664646Y-84466500D01*
X115849803Y-84427144D01*
X116022730Y-84350151D01*
X116175871Y-84238888D01*
X116302533Y-84098216D01*
X116397179Y-83934284D01*
X116455674Y-83754256D01*
X116475460Y-83566000D01*
X116455674Y-83377744D01*
X116397179Y-83197716D01*
X116302533Y-83033784D01*
X116175871Y-82893112D01*
X116175870Y-82893111D01*
X116022734Y-82781851D01*
X116022729Y-82781848D01*
X115849807Y-82704857D01*
X115849802Y-82704855D01*
X115704000Y-82673865D01*
X115664646Y-82665500D01*
X115475354Y-82665500D01*
X115442897Y-82672398D01*
X115290197Y-82704855D01*
X115290192Y-82704857D01*
X115117270Y-82781848D01*
X115117265Y-82781851D01*
X114964130Y-82893110D01*
X114964126Y-82893114D01*
X114958400Y-82899474D01*
X114898913Y-82936121D01*
X114866252Y-82940500D01*
X114172337Y-82940500D01*
X114105298Y-82920815D01*
X114059543Y-82868011D01*
X114049599Y-82798853D01*
X114078624Y-82735297D01*
X114084647Y-82728826D01*
X114106598Y-82706877D01*
X114109285Y-82703039D01*
X114121239Y-82688465D01*
X114126629Y-82682828D01*
X114126628Y-82682828D01*
X114126632Y-82682825D01*
X114179164Y-82603241D01*
X114232102Y-82527639D01*
X114235543Y-82520259D01*
X114244432Y-82504364D01*
X114250635Y-82494968D01*
X114286889Y-82410146D01*
X114324575Y-82329330D01*
X114327570Y-82318148D01*
X114333325Y-82301505D01*
X114339103Y-82287988D01*
X114358936Y-82201092D01*
X114381207Y-82117977D01*
X114382887Y-82098766D01*
X114384206Y-82090377D01*
X114384445Y-82089325D01*
X114389191Y-82068537D01*
X114393050Y-81982602D01*
X114400277Y-81900003D01*
X116739723Y-81900003D01*
X116741688Y-81922470D01*
X116741862Y-81930660D01*
X116740709Y-81956324D01*
X116740710Y-81956328D01*
X116751641Y-82037031D01*
X116751966Y-82039949D01*
X116758792Y-82117972D01*
X116758795Y-82117987D01*
X116765482Y-82142941D01*
X116767034Y-82150670D01*
X116770924Y-82179381D01*
X116770926Y-82179392D01*
X116795075Y-82253713D01*
X116795997Y-82256825D01*
X116815423Y-82329324D01*
X116815427Y-82329336D01*
X116827736Y-82355732D01*
X116830512Y-82362779D01*
X116840483Y-82393464D01*
X116875970Y-82459411D01*
X116877558Y-82462576D01*
X116907898Y-82527639D01*
X116926288Y-82553903D01*
X116926490Y-82554191D01*
X116930303Y-82560378D01*
X116947146Y-82591678D01*
X116947152Y-82591687D01*
X116991792Y-82647663D01*
X116994106Y-82650758D01*
X117020510Y-82688465D01*
X117033402Y-82706877D01*
X117033404Y-82706879D01*
X117033405Y-82706880D01*
X117058646Y-82732121D01*
X117063283Y-82737309D01*
X117087492Y-82767666D01*
X117138959Y-82812632D01*
X117142008Y-82815483D01*
X117188116Y-82861592D01*
X117188122Y-82861597D01*
X117188123Y-82861598D01*
X117189583Y-82862620D01*
X117220055Y-82883957D01*
X117225290Y-82888057D01*
X117257004Y-82915765D01*
X117257013Y-82915771D01*
X117312849Y-82949131D01*
X117316613Y-82951568D01*
X117367359Y-82987101D01*
X117367364Y-82987104D01*
X117389829Y-82997579D01*
X117405677Y-83004969D01*
X117411271Y-83007935D01*
X117448349Y-83030088D01*
X117450236Y-83031215D01*
X117457084Y-83033785D01*
X117508083Y-83052925D01*
X117512503Y-83054782D01*
X117565670Y-83079575D01*
X117565674Y-83079577D01*
X117596069Y-83087720D01*
X117609677Y-83091366D01*
X117615413Y-83093207D01*
X117619197Y-83094627D01*
X117660976Y-83110307D01*
X117718545Y-83120754D01*
X117723511Y-83121868D01*
X117777023Y-83136207D01*
X117825689Y-83140464D01*
X117831306Y-83141218D01*
X117882453Y-83150500D01*
X117937691Y-83150500D01*
X117943092Y-83150735D01*
X117971548Y-83153225D01*
X117994998Y-83155277D01*
X117995000Y-83155277D01*
X118047992Y-83150640D01*
X118051121Y-83150500D01*
X118051155Y-83150500D01*
X118105172Y-83145638D01*
X118212977Y-83136207D01*
X118213000Y-83136200D01*
X118213475Y-83136117D01*
X118218713Y-83135419D01*
X118219188Y-83135377D01*
X118322997Y-83106726D01*
X118424330Y-83079575D01*
X118424337Y-83079571D01*
X118431254Y-83077053D01*
X118435948Y-83075554D01*
X118436170Y-83075493D01*
X118436181Y-83075487D01*
X118436183Y-83075487D01*
X118530454Y-83030088D01*
X118565991Y-83013517D01*
X118622639Y-82987102D01*
X118622644Y-82987097D01*
X118627327Y-82984395D01*
X118627400Y-82984522D01*
X118638164Y-82978218D01*
X118638973Y-82977829D01*
X118721156Y-82918118D01*
X118801877Y-82861598D01*
X118802747Y-82860727D01*
X118817550Y-82848084D01*
X118821078Y-82845522D01*
X118821266Y-82845326D01*
X118889131Y-82774343D01*
X118956592Y-82706883D01*
X118956592Y-82706882D01*
X118956598Y-82706877D01*
X118959285Y-82703039D01*
X118971239Y-82688465D01*
X118976629Y-82682828D01*
X118976628Y-82682828D01*
X118976632Y-82682825D01*
X119029164Y-82603241D01*
X119082102Y-82527639D01*
X119085543Y-82520259D01*
X119094432Y-82504364D01*
X119100635Y-82494968D01*
X119136889Y-82410146D01*
X119174575Y-82329330D01*
X119177570Y-82318148D01*
X119183325Y-82301505D01*
X119189103Y-82287988D01*
X119208936Y-82201092D01*
X119231207Y-82117977D01*
X119232887Y-82098766D01*
X119234206Y-82090377D01*
X119234445Y-82089325D01*
X119239191Y-82068537D01*
X119243050Y-81982602D01*
X119250277Y-81900000D01*
X119248310Y-81877528D01*
X119248137Y-81869334D01*
X119249290Y-81843670D01*
X119238353Y-81762939D01*
X119238034Y-81760067D01*
X119231207Y-81682023D01*
X119224515Y-81657053D01*
X119222963Y-81649322D01*
X119219076Y-81620618D01*
X119219075Y-81620616D01*
X119219075Y-81620613D01*
X119194921Y-81546276D01*
X119193998Y-81543161D01*
X119185463Y-81511308D01*
X119174575Y-81470670D01*
X119162266Y-81444274D01*
X119159488Y-81437222D01*
X119149519Y-81406541D01*
X119149517Y-81406537D01*
X119149517Y-81406536D01*
X119136988Y-81383253D01*
X119114027Y-81340583D01*
X119112432Y-81337405D01*
X119097338Y-81305036D01*
X119082102Y-81272362D01*
X119063512Y-81245813D01*
X119059698Y-81239625D01*
X119059359Y-81238995D01*
X119042852Y-81208319D01*
X118998192Y-81152318D01*
X118995896Y-81149247D01*
X118956598Y-81093123D01*
X118931353Y-81067878D01*
X118926715Y-81062689D01*
X118915552Y-81048691D01*
X118902508Y-81032334D01*
X118894866Y-81025657D01*
X118851039Y-80987366D01*
X118847990Y-80984515D01*
X118801878Y-80938402D01*
X118769940Y-80916039D01*
X118764705Y-80911939D01*
X118732996Y-80884235D01*
X118732994Y-80884233D01*
X118732992Y-80884232D01*
X118677149Y-80850868D01*
X118673386Y-80848431D01*
X118622641Y-80812899D01*
X118584333Y-80795035D01*
X118578735Y-80792067D01*
X118539769Y-80768787D01*
X118539767Y-80768786D01*
X118481928Y-80747079D01*
X118477515Y-80745226D01*
X118424330Y-80720425D01*
X118424329Y-80720425D01*
X118380321Y-80708632D01*
X118374581Y-80706790D01*
X118329025Y-80689692D01*
X118271456Y-80679245D01*
X118266480Y-80678128D01*
X118212977Y-80663793D01*
X118164327Y-80659536D01*
X118158659Y-80658775D01*
X118107551Y-80649500D01*
X118107547Y-80649500D01*
X118052309Y-80649500D01*
X118046907Y-80649264D01*
X118018451Y-80646774D01*
X117995002Y-80644723D01*
X117994997Y-80644723D01*
X117942050Y-80649355D01*
X117938862Y-80649499D01*
X117938851Y-80649500D01*
X117938845Y-80649500D01*
X117892671Y-80653655D01*
X117884826Y-80654361D01*
X117777020Y-80663793D01*
X117776468Y-80663891D01*
X117771275Y-80664581D01*
X117770812Y-80664622D01*
X117770809Y-80664623D01*
X117667002Y-80693273D01*
X117565659Y-80720428D01*
X117558739Y-80722946D01*
X117554050Y-80724444D01*
X117553849Y-80724499D01*
X117553832Y-80724505D01*
X117459528Y-80769919D01*
X117367358Y-80812899D01*
X117362670Y-80815606D01*
X117362598Y-80815481D01*
X117351871Y-80821764D01*
X117351030Y-80822168D01*
X117268831Y-80881889D01*
X117188123Y-80938401D01*
X117187241Y-80939284D01*
X117172461Y-80951906D01*
X117168928Y-80954472D01*
X117168916Y-80954483D01*
X117137477Y-80987366D01*
X117100868Y-81025656D01*
X117081938Y-81044586D01*
X117033403Y-81093120D01*
X117033402Y-81093121D01*
X117030711Y-81096965D01*
X117018773Y-81111521D01*
X117013368Y-81117174D01*
X116992476Y-81148822D01*
X116960828Y-81196768D01*
X116907898Y-81272361D01*
X116907898Y-81272362D01*
X116907891Y-81272374D01*
X116904457Y-81279738D01*
X116895572Y-81295628D01*
X116889362Y-81305035D01*
X116889362Y-81305036D01*
X116853108Y-81389859D01*
X116815425Y-81470669D01*
X116815424Y-81470671D01*
X116812425Y-81481860D01*
X116806681Y-81498475D01*
X116800899Y-81512005D01*
X116800896Y-81512016D01*
X116781063Y-81598907D01*
X116758793Y-81682022D01*
X116758793Y-81682023D01*
X116757112Y-81701226D01*
X116755793Y-81709625D01*
X116750809Y-81731459D01*
X116750809Y-81731464D01*
X116746949Y-81817397D01*
X116739723Y-81899996D01*
X116739723Y-81900003D01*
X114400277Y-81900003D01*
X114400277Y-81900000D01*
X114398310Y-81877528D01*
X114398137Y-81869334D01*
X114399290Y-81843670D01*
X114388353Y-81762939D01*
X114388034Y-81760067D01*
X114381207Y-81682023D01*
X114374515Y-81657053D01*
X114372963Y-81649322D01*
X114369076Y-81620618D01*
X114369075Y-81620616D01*
X114369075Y-81620613D01*
X114344921Y-81546276D01*
X114343998Y-81543161D01*
X114335463Y-81511308D01*
X114324575Y-81470670D01*
X114312266Y-81444274D01*
X114309488Y-81437222D01*
X114299519Y-81406541D01*
X114299517Y-81406537D01*
X114299517Y-81406536D01*
X114286988Y-81383253D01*
X114264027Y-81340583D01*
X114262432Y-81337405D01*
X114247338Y-81305036D01*
X114232102Y-81272362D01*
X114213512Y-81245813D01*
X114209698Y-81239625D01*
X114209359Y-81238995D01*
X114192852Y-81208319D01*
X114148192Y-81152318D01*
X114145896Y-81149247D01*
X114106598Y-81093123D01*
X114081353Y-81067878D01*
X114076715Y-81062689D01*
X114065552Y-81048691D01*
X114052508Y-81032334D01*
X114044866Y-81025657D01*
X114001039Y-80987366D01*
X113997990Y-80984515D01*
X113951878Y-80938402D01*
X113919940Y-80916039D01*
X113914705Y-80911939D01*
X113882996Y-80884235D01*
X113882994Y-80884233D01*
X113882992Y-80884232D01*
X113827149Y-80850868D01*
X113823386Y-80848431D01*
X113772641Y-80812899D01*
X113734333Y-80795035D01*
X113728735Y-80792067D01*
X113689769Y-80768787D01*
X113689767Y-80768786D01*
X113631928Y-80747079D01*
X113627515Y-80745226D01*
X113574330Y-80720425D01*
X113574329Y-80720425D01*
X113530321Y-80708632D01*
X113524581Y-80706790D01*
X113479025Y-80689692D01*
X113421456Y-80679245D01*
X113416480Y-80678128D01*
X113362977Y-80663793D01*
X113314327Y-80659536D01*
X113308659Y-80658775D01*
X113257551Y-80649500D01*
X113257547Y-80649500D01*
X113202309Y-80649500D01*
X113196907Y-80649264D01*
X113168451Y-80646774D01*
X113145002Y-80644723D01*
X113144997Y-80644723D01*
X113092050Y-80649355D01*
X113088862Y-80649499D01*
X113088851Y-80649500D01*
X113088845Y-80649500D01*
X113042671Y-80653655D01*
X113034826Y-80654361D01*
X112927020Y-80663793D01*
X112926468Y-80663891D01*
X112921275Y-80664581D01*
X112920812Y-80664622D01*
X112920809Y-80664623D01*
X112817002Y-80693273D01*
X112715659Y-80720428D01*
X112708739Y-80722946D01*
X112704050Y-80724444D01*
X112703849Y-80724499D01*
X112703832Y-80724505D01*
X112609528Y-80769919D01*
X112517358Y-80812899D01*
X112512670Y-80815606D01*
X112512598Y-80815481D01*
X112501871Y-80821764D01*
X112501030Y-80822168D01*
X112418831Y-80881889D01*
X112338123Y-80938401D01*
X112337241Y-80939284D01*
X112322461Y-80951906D01*
X112318928Y-80954472D01*
X112318916Y-80954483D01*
X112287477Y-80987366D01*
X112250868Y-81025656D01*
X112231938Y-81044586D01*
X112183403Y-81093120D01*
X112183402Y-81093121D01*
X112180711Y-81096965D01*
X112168773Y-81111521D01*
X112163368Y-81117174D01*
X112142476Y-81148822D01*
X112110828Y-81196768D01*
X112057897Y-81272362D01*
X112057898Y-81272362D01*
X112057891Y-81272374D01*
X112054457Y-81279738D01*
X112045572Y-81295628D01*
X112039362Y-81305035D01*
X112039362Y-81305036D01*
X112003108Y-81389859D01*
X111965425Y-81470669D01*
X111965424Y-81470671D01*
X111962425Y-81481860D01*
X111956681Y-81498475D01*
X111950899Y-81512005D01*
X111950896Y-81512016D01*
X111931063Y-81598907D01*
X111908793Y-81682022D01*
X111908793Y-81682023D01*
X111907112Y-81701226D01*
X111905793Y-81709625D01*
X111900809Y-81731459D01*
X111900809Y-81731464D01*
X111896949Y-81817397D01*
X111889723Y-81899996D01*
X111889723Y-81900003D01*
X111891688Y-81922470D01*
X111891862Y-81930660D01*
X111890709Y-81956324D01*
X111890710Y-81956328D01*
X111901641Y-82037031D01*
X111901966Y-82039949D01*
X111908792Y-82117972D01*
X111908795Y-82117987D01*
X111915482Y-82142941D01*
X111917034Y-82150670D01*
X111920924Y-82179381D01*
X111920926Y-82179392D01*
X111945075Y-82253713D01*
X111945997Y-82256825D01*
X111965423Y-82329324D01*
X111965427Y-82329336D01*
X111977736Y-82355732D01*
X111980512Y-82362779D01*
X111990483Y-82393464D01*
X112025970Y-82459411D01*
X112027558Y-82462576D01*
X112057898Y-82527639D01*
X112076288Y-82553903D01*
X112076490Y-82554191D01*
X112080303Y-82560378D01*
X112097146Y-82591678D01*
X112097152Y-82591687D01*
X112141792Y-82647663D01*
X112144106Y-82650758D01*
X112170510Y-82688465D01*
X112183402Y-82706877D01*
X112183404Y-82706879D01*
X112183405Y-82706880D01*
X112205344Y-82728819D01*
X112238829Y-82790142D01*
X112233845Y-82859834D01*
X112191973Y-82915767D01*
X112126509Y-82940184D01*
X112117663Y-82940500D01*
X109556743Y-82940500D01*
X109541122Y-82938775D01*
X109541095Y-82939061D01*
X109533333Y-82938326D01*
X109464172Y-82940500D01*
X109434649Y-82940500D01*
X109427778Y-82941367D01*
X109421959Y-82941825D01*
X109375374Y-82943289D01*
X109375368Y-82943290D01*
X109356126Y-82948880D01*
X109337087Y-82952823D01*
X109317217Y-82955334D01*
X109317203Y-82955337D01*
X109273883Y-82972488D01*
X109268358Y-82974380D01*
X109223613Y-82987380D01*
X109223610Y-82987381D01*
X109206366Y-82997579D01*
X109188905Y-83006133D01*
X109170274Y-83013510D01*
X109170262Y-83013517D01*
X109132570Y-83040902D01*
X109127687Y-83044109D01*
X109087580Y-83067829D01*
X109073414Y-83081995D01*
X109058624Y-83094627D01*
X109042414Y-83106404D01*
X109042411Y-83106407D01*
X109012710Y-83142309D01*
X109008777Y-83146631D01*
X108121727Y-84033681D01*
X108060404Y-84067166D01*
X108034046Y-84070000D01*
X107303769Y-84070000D01*
X107236730Y-84050315D01*
X107190975Y-83997511D01*
X107181031Y-83928353D01*
X107184792Y-83911064D01*
X107190000Y-83893327D01*
X107190000Y-83746672D01*
X107184792Y-83728936D01*
X107184792Y-83659066D01*
X107222566Y-83600288D01*
X107286121Y-83571262D01*
X107303769Y-83570000D01*
X108030000Y-83570000D01*
X108030000Y-82922172D01*
X108029999Y-82922155D01*
X108023598Y-82862627D01*
X108023596Y-82862620D01*
X107973354Y-82727913D01*
X107973350Y-82727906D01*
X107887190Y-82612812D01*
X107887187Y-82612809D01*
X107772093Y-82526649D01*
X107772088Y-82526646D01*
X107640528Y-82477577D01*
X107584595Y-82435705D01*
X107560178Y-82370241D01*
X107575030Y-82301968D01*
X107596175Y-82273720D01*
X107718495Y-82151401D01*
X107854035Y-81957830D01*
X107953903Y-81743663D01*
X108015063Y-81515408D01*
X108035659Y-81280000D01*
X108015063Y-81044592D01*
X107963155Y-80850868D01*
X107953905Y-80816344D01*
X107953904Y-80816343D01*
X107953903Y-80816337D01*
X107854035Y-80602171D01*
X107724271Y-80416847D01*
X107718494Y-80408597D01*
X107551402Y-80241506D01*
X107551396Y-80241501D01*
X107365842Y-80111575D01*
X107322217Y-80056998D01*
X107315023Y-79987500D01*
X107346546Y-79925145D01*
X107365842Y-79908425D01*
X107407151Y-79879500D01*
X107551401Y-79778495D01*
X107718495Y-79611401D01*
X107854035Y-79417830D01*
X107953903Y-79203663D01*
X108015063Y-78975408D01*
X108024285Y-78870000D01*
X111439700Y-78870000D01*
X111442359Y-78902097D01*
X111446955Y-78957567D01*
X111450819Y-79048523D01*
X111450820Y-79048534D01*
X111455939Y-79072284D01*
X111457120Y-79080233D01*
X111458865Y-79101301D01*
X111458865Y-79101304D01*
X111458866Y-79101305D01*
X111481205Y-79189520D01*
X111484253Y-79203663D01*
X111501046Y-79281582D01*
X111508883Y-79301084D01*
X111511458Y-79308987D01*
X111515844Y-79326303D01*
X111553655Y-79412504D01*
X111589934Y-79502787D01*
X111589935Y-79502788D01*
X111599232Y-79517888D01*
X111603218Y-79525495D01*
X111609076Y-79538850D01*
X111662275Y-79620277D01*
X111714930Y-79705794D01*
X111721543Y-79713308D01*
X111732263Y-79727402D01*
X111734738Y-79731189D01*
X111736021Y-79733153D01*
X111804027Y-79807028D01*
X111872436Y-79884755D01*
X111877564Y-79888895D01*
X111890882Y-79901377D01*
X111893216Y-79903913D01*
X111974933Y-79967515D01*
X112057920Y-80034523D01*
X112057922Y-80034524D01*
X112060678Y-80036064D01*
X112076360Y-80046460D01*
X112076367Y-80046465D01*
X112076371Y-80046467D01*
X112076374Y-80046470D01*
X112165783Y-80094855D01*
X112170162Y-80097225D01*
X112266046Y-80150790D01*
X112268849Y-80152058D01*
X112275695Y-80155097D01*
X112275794Y-80154873D01*
X112280490Y-80156932D01*
X112280497Y-80156936D01*
X112384276Y-80192563D01*
X112490829Y-80230211D01*
X112491398Y-80230308D01*
X112496129Y-80231312D01*
X112500007Y-80232294D01*
X112500019Y-80232298D01*
X112611324Y-80250870D01*
X112611324Y-80250871D01*
X112725791Y-80270499D01*
X112725800Y-80270500D01*
X112961044Y-80270500D01*
X112961049Y-80270500D01*
X112994073Y-80264988D01*
X113017469Y-80261085D01*
X113022407Y-80260463D01*
X113082541Y-80255346D01*
X113134615Y-80241786D01*
X113140017Y-80240634D01*
X113189981Y-80232298D01*
X113247186Y-80212658D01*
X113251663Y-80211309D01*
X113313249Y-80195275D01*
X113319249Y-80192563D01*
X113324262Y-80190296D01*
X113359297Y-80174459D01*
X113364681Y-80172322D01*
X113409503Y-80156936D01*
X113465554Y-80126601D01*
X113469527Y-80124632D01*
X113478156Y-80120730D01*
X113530486Y-80097077D01*
X113569647Y-80070608D01*
X113574820Y-80067469D01*
X113613626Y-80046470D01*
X113666532Y-80005290D01*
X113669850Y-80002881D01*
X113728003Y-79963579D01*
X113759770Y-79933131D01*
X113764548Y-79929002D01*
X113796784Y-79903913D01*
X113799109Y-79901388D01*
X113814420Y-79884755D01*
X113844389Y-79852198D01*
X113847101Y-79849432D01*
X113854716Y-79842134D01*
X113900118Y-79798621D01*
X113924329Y-79765883D01*
X113928540Y-79760785D01*
X113953979Y-79733153D01*
X113994206Y-79671578D01*
X113996241Y-79668652D01*
X114041879Y-79606947D01*
X114058733Y-79573517D01*
X114062170Y-79567552D01*
X114080924Y-79538849D01*
X114111805Y-79468445D01*
X114113174Y-79465538D01*
X114149207Y-79394074D01*
X114159208Y-79361413D01*
X114161701Y-79354694D01*
X114174157Y-79326300D01*
X114193827Y-79248621D01*
X114194635Y-79245732D01*
X114219016Y-79166123D01*
X114222936Y-79135508D01*
X114224330Y-79128170D01*
X114231134Y-79101305D01*
X114238132Y-79016845D01*
X114249298Y-78929654D01*
X114248126Y-78902079D01*
X114248281Y-78894355D01*
X114250300Y-78870000D01*
X116889700Y-78870000D01*
X116892359Y-78902097D01*
X116896955Y-78957567D01*
X116900819Y-79048523D01*
X116900820Y-79048534D01*
X116905939Y-79072284D01*
X116907120Y-79080233D01*
X116908865Y-79101301D01*
X116908865Y-79101304D01*
X116908866Y-79101305D01*
X116931205Y-79189520D01*
X116934253Y-79203663D01*
X116951046Y-79281582D01*
X116958883Y-79301084D01*
X116961458Y-79308987D01*
X116965844Y-79326303D01*
X117003655Y-79412504D01*
X117039934Y-79502787D01*
X117039935Y-79502788D01*
X117049232Y-79517888D01*
X117053218Y-79525495D01*
X117059076Y-79538850D01*
X117112275Y-79620277D01*
X117164930Y-79705794D01*
X117171543Y-79713308D01*
X117182263Y-79727402D01*
X117184738Y-79731189D01*
X117186021Y-79733153D01*
X117254027Y-79807028D01*
X117322436Y-79884755D01*
X117327564Y-79888895D01*
X117340882Y-79901377D01*
X117343216Y-79903913D01*
X117424933Y-79967515D01*
X117507920Y-80034523D01*
X117507922Y-80034524D01*
X117510678Y-80036064D01*
X117526360Y-80046460D01*
X117526367Y-80046465D01*
X117526371Y-80046467D01*
X117526374Y-80046470D01*
X117615783Y-80094855D01*
X117620162Y-80097225D01*
X117716046Y-80150790D01*
X117718849Y-80152058D01*
X117725695Y-80155097D01*
X117725794Y-80154873D01*
X117730490Y-80156932D01*
X117730497Y-80156936D01*
X117834276Y-80192563D01*
X117940829Y-80230211D01*
X117941398Y-80230308D01*
X117946129Y-80231312D01*
X117950007Y-80232294D01*
X117950019Y-80232298D01*
X118061324Y-80250870D01*
X118061324Y-80250871D01*
X118175791Y-80270499D01*
X118175800Y-80270500D01*
X118411044Y-80270500D01*
X118411049Y-80270500D01*
X118444073Y-80264988D01*
X118467469Y-80261085D01*
X118472407Y-80260463D01*
X118532541Y-80255346D01*
X118584615Y-80241786D01*
X118590017Y-80240634D01*
X118639981Y-80232298D01*
X118697186Y-80212658D01*
X118701663Y-80211309D01*
X118763249Y-80195275D01*
X118769249Y-80192563D01*
X118774262Y-80190296D01*
X118809297Y-80174459D01*
X118814681Y-80172322D01*
X118859503Y-80156936D01*
X118915554Y-80126601D01*
X118919527Y-80124632D01*
X118928156Y-80120730D01*
X118980486Y-80097077D01*
X119019647Y-80070608D01*
X119024820Y-80067469D01*
X119063626Y-80046470D01*
X119116532Y-80005290D01*
X119119850Y-80002881D01*
X119178003Y-79963579D01*
X119209770Y-79933131D01*
X119214548Y-79929002D01*
X119246784Y-79903913D01*
X119249109Y-79901388D01*
X119264420Y-79884755D01*
X119294389Y-79852198D01*
X119297101Y-79849432D01*
X119304716Y-79842134D01*
X119350118Y-79798621D01*
X119374329Y-79765883D01*
X119378540Y-79760785D01*
X119403979Y-79733153D01*
X119444206Y-79671578D01*
X119446241Y-79668652D01*
X119491879Y-79606947D01*
X119508733Y-79573517D01*
X119512170Y-79567552D01*
X119530924Y-79538849D01*
X119561805Y-79468445D01*
X119563174Y-79465538D01*
X119599207Y-79394074D01*
X119609208Y-79361413D01*
X119611701Y-79354694D01*
X119624157Y-79326300D01*
X119643827Y-79248621D01*
X119644635Y-79245732D01*
X119669016Y-79166123D01*
X119672936Y-79135508D01*
X119674330Y-79128170D01*
X119681134Y-79101305D01*
X119688132Y-79016845D01*
X119699298Y-78929654D01*
X119698126Y-78902079D01*
X119698281Y-78894355D01*
X119700300Y-78870000D01*
X119697962Y-78841788D01*
X119693044Y-78782432D01*
X119689180Y-78691468D01*
X119684059Y-78667709D01*
X119682879Y-78659762D01*
X119681134Y-78638695D01*
X119681133Y-78638692D01*
X119681133Y-78638688D01*
X119658794Y-78550480D01*
X119653189Y-78524473D01*
X119638954Y-78458419D01*
X119631115Y-78438912D01*
X119628541Y-78431015D01*
X119624157Y-78413700D01*
X119586344Y-78327495D01*
X119550064Y-78237210D01*
X119540768Y-78222112D01*
X119536779Y-78214500D01*
X119530924Y-78201151D01*
X119477724Y-78119721D01*
X119425071Y-78034208D01*
X119425070Y-78034207D01*
X119425069Y-78034205D01*
X119418451Y-78026686D01*
X119407727Y-78012584D01*
X119403978Y-78006845D01*
X119335972Y-77932971D01*
X119267565Y-77855246D01*
X119262439Y-77851107D01*
X119249117Y-77838621D01*
X119246785Y-77836088D01*
X119246783Y-77836086D01*
X119165066Y-77772484D01*
X119082080Y-77705477D01*
X119082073Y-77705472D01*
X119079311Y-77703929D01*
X119063643Y-77693542D01*
X119063634Y-77693535D01*
X119063628Y-77693532D01*
X119063626Y-77693530D01*
X118969837Y-77642774D01*
X118873954Y-77589210D01*
X118873953Y-77589209D01*
X118873952Y-77589209D01*
X118871381Y-77588047D01*
X118864284Y-77584898D01*
X118864188Y-77585119D01*
X118859506Y-77583065D01*
X118755723Y-77547436D01*
X118649168Y-77509788D01*
X118649160Y-77509786D01*
X118648612Y-77509692D01*
X118643889Y-77508691D01*
X118639989Y-77507703D01*
X118528675Y-77489128D01*
X118414209Y-77469500D01*
X118414200Y-77469500D01*
X118411049Y-77469500D01*
X118178951Y-77469500D01*
X118178950Y-77469500D01*
X118122533Y-77478913D01*
X118117587Y-77479535D01*
X118115099Y-77479747D01*
X118057469Y-77484652D01*
X118057461Y-77484653D01*
X118005397Y-77498208D01*
X117999981Y-77499363D01*
X117950013Y-77507703D01*
X117892840Y-77527331D01*
X117888330Y-77528690D01*
X117826749Y-77544725D01*
X117826744Y-77544727D01*
X117780711Y-77565535D01*
X117775304Y-77567680D01*
X117730503Y-77583060D01*
X117730498Y-77583063D01*
X117674448Y-77613395D01*
X117670478Y-77615363D01*
X117609514Y-77642922D01*
X117570359Y-77669385D01*
X117565149Y-77672544D01*
X117526379Y-77693526D01*
X117526367Y-77693533D01*
X117473487Y-77734692D01*
X117470124Y-77737133D01*
X117412001Y-77776417D01*
X117411994Y-77776422D01*
X117380248Y-77806847D01*
X117375430Y-77811011D01*
X117343218Y-77836085D01*
X117343209Y-77836093D01*
X117295613Y-77887795D01*
X117292900Y-77890564D01*
X117239882Y-77941378D01*
X117239880Y-77941380D01*
X117215681Y-77974098D01*
X117211448Y-77979223D01*
X117186022Y-78006845D01*
X117145797Y-78068412D01*
X117143741Y-78071367D01*
X117098124Y-78133047D01*
X117098120Y-78133054D01*
X117081268Y-78166475D01*
X117077811Y-78172472D01*
X117059076Y-78201149D01*
X117028219Y-78271496D01*
X117026803Y-78274503D01*
X116990790Y-78345931D01*
X116980792Y-78378573D01*
X116978288Y-78385323D01*
X116965845Y-78413691D01*
X116965845Y-78413692D01*
X116946178Y-78491347D01*
X116945358Y-78494279D01*
X116920984Y-78573876D01*
X116920983Y-78573879D01*
X116917063Y-78604485D01*
X116915668Y-78611830D01*
X116908867Y-78638688D01*
X116908864Y-78638705D01*
X116901867Y-78723154D01*
X116890702Y-78810344D01*
X116890701Y-78810344D01*
X116891872Y-78837900D01*
X116891716Y-78845655D01*
X116889700Y-78869995D01*
X116889700Y-78870000D01*
X114250300Y-78870000D01*
X114247962Y-78841788D01*
X114243044Y-78782432D01*
X114239180Y-78691468D01*
X114234059Y-78667709D01*
X114232879Y-78659762D01*
X114231134Y-78638695D01*
X114231133Y-78638692D01*
X114231133Y-78638688D01*
X114208794Y-78550480D01*
X114203189Y-78524473D01*
X114188954Y-78458419D01*
X114181115Y-78438912D01*
X114178541Y-78431015D01*
X114174157Y-78413700D01*
X114136344Y-78327495D01*
X114100064Y-78237210D01*
X114090768Y-78222112D01*
X114086779Y-78214500D01*
X114080924Y-78201151D01*
X114027724Y-78119721D01*
X113975071Y-78034208D01*
X113975070Y-78034207D01*
X113975069Y-78034205D01*
X113968451Y-78026686D01*
X113957727Y-78012584D01*
X113953978Y-78006845D01*
X113885972Y-77932971D01*
X113817565Y-77855246D01*
X113812439Y-77851107D01*
X113799117Y-77838621D01*
X113796785Y-77836088D01*
X113796783Y-77836086D01*
X113715066Y-77772484D01*
X113632080Y-77705477D01*
X113632073Y-77705472D01*
X113629311Y-77703929D01*
X113613643Y-77693542D01*
X113613634Y-77693535D01*
X113613628Y-77693532D01*
X113613626Y-77693530D01*
X113519837Y-77642774D01*
X113423954Y-77589210D01*
X113423953Y-77589209D01*
X113423952Y-77589209D01*
X113421381Y-77588047D01*
X113414284Y-77584898D01*
X113414188Y-77585119D01*
X113409506Y-77583065D01*
X113305723Y-77547436D01*
X113199168Y-77509788D01*
X113199160Y-77509786D01*
X113198612Y-77509692D01*
X113193889Y-77508691D01*
X113189989Y-77507703D01*
X113078675Y-77489128D01*
X112964209Y-77469500D01*
X112964200Y-77469500D01*
X112961049Y-77469500D01*
X112728951Y-77469500D01*
X112728950Y-77469500D01*
X112672533Y-77478913D01*
X112667587Y-77479535D01*
X112665099Y-77479747D01*
X112607469Y-77484652D01*
X112607461Y-77484653D01*
X112555397Y-77498208D01*
X112549981Y-77499363D01*
X112500013Y-77507703D01*
X112442840Y-77527331D01*
X112438330Y-77528690D01*
X112376749Y-77544725D01*
X112376744Y-77544727D01*
X112330711Y-77565535D01*
X112325304Y-77567680D01*
X112280503Y-77583060D01*
X112280498Y-77583063D01*
X112224448Y-77613395D01*
X112220478Y-77615363D01*
X112159514Y-77642922D01*
X112120359Y-77669385D01*
X112115149Y-77672544D01*
X112076379Y-77693526D01*
X112076367Y-77693533D01*
X112023487Y-77734692D01*
X112020124Y-77737133D01*
X111962001Y-77776417D01*
X111961994Y-77776422D01*
X111930248Y-77806847D01*
X111925430Y-77811011D01*
X111893218Y-77836085D01*
X111893209Y-77836093D01*
X111845613Y-77887795D01*
X111842900Y-77890564D01*
X111789882Y-77941378D01*
X111789880Y-77941380D01*
X111765681Y-77974098D01*
X111761448Y-77979223D01*
X111736022Y-78006845D01*
X111695797Y-78068412D01*
X111693741Y-78071367D01*
X111648124Y-78133047D01*
X111648120Y-78133054D01*
X111631268Y-78166475D01*
X111627811Y-78172472D01*
X111609076Y-78201149D01*
X111578219Y-78271496D01*
X111576803Y-78274503D01*
X111540790Y-78345931D01*
X111530792Y-78378573D01*
X111528288Y-78385323D01*
X111515845Y-78413691D01*
X111515845Y-78413692D01*
X111496178Y-78491347D01*
X111495358Y-78494279D01*
X111470984Y-78573876D01*
X111470983Y-78573879D01*
X111467063Y-78604485D01*
X111465668Y-78611830D01*
X111458867Y-78638688D01*
X111458864Y-78638705D01*
X111451867Y-78723154D01*
X111440702Y-78810344D01*
X111440701Y-78810344D01*
X111441872Y-78837900D01*
X111441716Y-78845655D01*
X111439700Y-78869995D01*
X111439700Y-78870000D01*
X108024285Y-78870000D01*
X108035659Y-78740000D01*
X108015063Y-78504592D01*
X107953903Y-78276337D01*
X107854035Y-78062171D01*
X107834456Y-78034208D01*
X107718494Y-77868597D01*
X107551402Y-77701506D01*
X107551395Y-77701501D01*
X107548297Y-77699332D01*
X107510040Y-77672544D01*
X107357834Y-77565967D01*
X107357830Y-77565965D01*
X107356908Y-77565535D01*
X107143663Y-77466097D01*
X107143659Y-77466096D01*
X107143655Y-77466094D01*
X106915413Y-77404938D01*
X106915403Y-77404936D01*
X106680001Y-77384341D01*
X106679999Y-77384341D01*
X106444596Y-77404936D01*
X106444586Y-77404938D01*
X106216344Y-77466094D01*
X106216335Y-77466098D01*
X106002171Y-77565964D01*
X106002169Y-77565965D01*
X105808597Y-77701505D01*
X105641505Y-77868597D01*
X105505965Y-78062169D01*
X105505964Y-78062171D01*
X105406098Y-78276335D01*
X105406094Y-78276344D01*
X105344938Y-78504586D01*
X105344936Y-78504596D01*
X105324341Y-78739999D01*
X105324341Y-78740000D01*
X105344936Y-78975403D01*
X105344938Y-78975413D01*
X105406094Y-79203655D01*
X105406096Y-79203659D01*
X105406097Y-79203663D01*
X105453328Y-79304949D01*
X105505965Y-79417830D01*
X105505967Y-79417834D01*
X105641501Y-79611395D01*
X105641506Y-79611402D01*
X105808597Y-79778493D01*
X105808603Y-79778498D01*
X105994158Y-79908425D01*
X106037783Y-79963002D01*
X106044977Y-80032500D01*
X106013454Y-80094855D01*
X105994158Y-80111575D01*
X105808597Y-80241505D01*
X105641505Y-80408597D01*
X105505965Y-80602169D01*
X105505964Y-80602171D01*
X105406098Y-80816335D01*
X105406094Y-80816344D01*
X105344938Y-81044586D01*
X105344936Y-81044596D01*
X105324341Y-81279999D01*
X105324341Y-81280000D01*
X105344936Y-81515403D01*
X105344938Y-81515413D01*
X105406094Y-81743655D01*
X105406096Y-81743659D01*
X105406097Y-81743663D01*
X105493295Y-81930660D01*
X105505965Y-81957830D01*
X105505967Y-81957834D01*
X105561422Y-82037031D01*
X105641501Y-82151396D01*
X105641506Y-82151402D01*
X105763818Y-82273714D01*
X105797303Y-82335037D01*
X105792319Y-82404729D01*
X105750447Y-82460662D01*
X105719471Y-82477577D01*
X105587912Y-82526646D01*
X105587906Y-82526649D01*
X105472812Y-82612809D01*
X105472809Y-82612812D01*
X105386649Y-82727906D01*
X105386645Y-82727913D01*
X105336403Y-82862620D01*
X105336401Y-82862627D01*
X105330000Y-82922155D01*
X105330000Y-83570000D01*
X106056231Y-83570000D01*
X106123270Y-83589685D01*
X106169025Y-83642489D01*
X106178969Y-83711647D01*
X106175208Y-83728936D01*
X106170000Y-83746672D01*
X106170000Y-83893327D01*
X106175208Y-83911064D01*
X106175208Y-83980934D01*
X106137434Y-84039712D01*
X106073879Y-84068738D01*
X106056231Y-84070000D01*
X105330000Y-84070000D01*
X105330000Y-84717844D01*
X105336401Y-84777372D01*
X105336403Y-84777379D01*
X105386645Y-84912086D01*
X105386649Y-84912093D01*
X105472809Y-85027187D01*
X105472812Y-85027190D01*
X105587906Y-85113350D01*
X105587913Y-85113354D01*
X105719470Y-85162421D01*
X105775403Y-85204292D01*
X105799821Y-85269756D01*
X105784970Y-85338029D01*
X105763819Y-85366284D01*
X105641503Y-85488600D01*
X105505965Y-85682169D01*
X105505964Y-85682171D01*
X105406098Y-85896335D01*
X105406094Y-85896344D01*
X105344938Y-86124586D01*
X105344936Y-86124596D01*
X105324341Y-86359999D01*
X105324341Y-86360000D01*
X105344936Y-86595403D01*
X105344938Y-86595413D01*
X105406094Y-86823655D01*
X105406096Y-86823659D01*
X105406097Y-86823663D01*
X105501777Y-87028848D01*
X105505965Y-87037830D01*
X105505967Y-87037834D01*
X105614281Y-87192521D01*
X105635725Y-87223147D01*
X105641501Y-87231395D01*
X105641506Y-87231402D01*
X105808597Y-87398493D01*
X105808603Y-87398498D01*
X105994158Y-87528425D01*
X106037783Y-87583002D01*
X106044977Y-87652500D01*
X106013454Y-87714855D01*
X105994158Y-87731575D01*
X105808597Y-87861505D01*
X105641505Y-88028597D01*
X105505965Y-88222169D01*
X105505964Y-88222171D01*
X105406098Y-88436335D01*
X105406094Y-88436344D01*
X105344938Y-88664586D01*
X105344936Y-88664596D01*
X105324341Y-88899999D01*
X105324341Y-88900000D01*
X105344936Y-89135403D01*
X105344938Y-89135413D01*
X105406094Y-89363655D01*
X105406096Y-89363659D01*
X105406097Y-89363663D01*
X105501777Y-89568848D01*
X105505965Y-89577830D01*
X105505967Y-89577834D01*
X105614281Y-89732521D01*
X105635725Y-89763147D01*
X105641501Y-89771395D01*
X105641506Y-89771402D01*
X105808597Y-89938493D01*
X105808603Y-89938498D01*
X105994158Y-90068425D01*
X106037783Y-90123002D01*
X106044977Y-90192500D01*
X106013454Y-90254855D01*
X105994158Y-90271575D01*
X105808597Y-90401505D01*
X105641505Y-90568597D01*
X105505965Y-90762169D01*
X105505964Y-90762171D01*
X105406098Y-90976335D01*
X105406094Y-90976344D01*
X105344938Y-91204586D01*
X105344936Y-91204596D01*
X105324341Y-91439999D01*
X105324341Y-91440000D01*
X105344936Y-91675403D01*
X105344938Y-91675413D01*
X105406094Y-91903655D01*
X105406096Y-91903659D01*
X105406097Y-91903663D01*
X105501777Y-92108848D01*
X105505965Y-92117830D01*
X105505967Y-92117834D01*
X105614281Y-92272521D01*
X105635725Y-92303147D01*
X105641501Y-92311395D01*
X105641506Y-92311402D01*
X105808597Y-92478493D01*
X105808603Y-92478498D01*
X105994158Y-92608425D01*
X106037783Y-92663002D01*
X106044977Y-92732500D01*
X106013454Y-92794855D01*
X105994158Y-92811575D01*
X105808597Y-92941505D01*
X105641505Y-93108597D01*
X105505965Y-93302169D01*
X105505964Y-93302171D01*
X105406098Y-93516335D01*
X105406094Y-93516344D01*
X105344938Y-93744586D01*
X105344936Y-93744596D01*
X105324341Y-93979999D01*
X105324341Y-93980000D01*
X105344936Y-94215403D01*
X105344938Y-94215413D01*
X105406094Y-94443655D01*
X105406096Y-94443659D01*
X105406097Y-94443663D01*
X105501777Y-94648848D01*
X105505965Y-94657830D01*
X105505967Y-94657834D01*
X105614281Y-94812521D01*
X105641501Y-94851396D01*
X105641506Y-94851402D01*
X105763818Y-94973714D01*
X105797303Y-95035037D01*
X105792319Y-95104729D01*
X105750447Y-95160662D01*
X105719471Y-95177577D01*
X105587912Y-95226646D01*
X105587906Y-95226649D01*
X105472812Y-95312809D01*
X105472809Y-95312812D01*
X105386649Y-95427906D01*
X105386645Y-95427913D01*
X105336403Y-95562620D01*
X105336401Y-95562627D01*
X105330000Y-95622155D01*
X105330000Y-96270000D01*
X106056231Y-96270000D01*
X106123270Y-96289685D01*
X106169025Y-96342489D01*
X106178969Y-96411647D01*
X106175208Y-96428936D01*
X106170000Y-96446672D01*
X106170000Y-96593327D01*
X106175208Y-96611064D01*
X106175208Y-96680934D01*
X106137434Y-96739712D01*
X106073879Y-96768738D01*
X106056231Y-96770000D01*
X105330000Y-96770000D01*
X105330000Y-97417844D01*
X105336401Y-97477372D01*
X105336403Y-97477379D01*
X105386645Y-97612086D01*
X105386649Y-97612093D01*
X105472809Y-97727187D01*
X105472812Y-97727190D01*
X105587906Y-97813350D01*
X105587913Y-97813354D01*
X105719470Y-97862421D01*
X105775403Y-97904292D01*
X105799821Y-97969756D01*
X105784970Y-98038029D01*
X105763819Y-98066284D01*
X105641503Y-98188600D01*
X105505965Y-98382169D01*
X105505964Y-98382171D01*
X105406098Y-98596335D01*
X105406094Y-98596344D01*
X105344938Y-98824586D01*
X105344936Y-98824596D01*
X105324341Y-99059999D01*
X105324341Y-99060000D01*
X105344936Y-99295403D01*
X105344938Y-99295413D01*
X105406094Y-99523655D01*
X105406096Y-99523659D01*
X105406097Y-99523663D01*
X105421529Y-99556757D01*
X105505965Y-99737830D01*
X105505967Y-99737834D01*
X105614281Y-99892521D01*
X105635725Y-99923147D01*
X105641501Y-99931395D01*
X105641506Y-99931402D01*
X105808597Y-100098493D01*
X105808603Y-100098498D01*
X105994158Y-100228425D01*
X106037783Y-100283002D01*
X106044977Y-100352500D01*
X106013454Y-100414855D01*
X105994158Y-100431575D01*
X105808597Y-100561505D01*
X105641505Y-100728597D01*
X105505965Y-100922169D01*
X105505964Y-100922171D01*
X105406098Y-101136335D01*
X105406094Y-101136344D01*
X105344938Y-101364586D01*
X105344936Y-101364596D01*
X105324341Y-101599999D01*
X105324341Y-101600000D01*
X105344936Y-101835403D01*
X105344938Y-101835413D01*
X105406094Y-102063655D01*
X105406096Y-102063659D01*
X105406097Y-102063663D01*
X105466282Y-102192729D01*
X105505965Y-102277830D01*
X105505967Y-102277834D01*
X105614281Y-102432521D01*
X105635725Y-102463147D01*
X105641501Y-102471395D01*
X105641506Y-102471402D01*
X105808597Y-102638493D01*
X105808603Y-102638498D01*
X105994158Y-102768425D01*
X106037783Y-102823002D01*
X106044977Y-102892500D01*
X106013454Y-102954855D01*
X105994158Y-102971575D01*
X105808597Y-103101505D01*
X105641505Y-103268597D01*
X105505965Y-103462169D01*
X105505964Y-103462171D01*
X105406098Y-103676335D01*
X105406094Y-103676344D01*
X105344938Y-103904586D01*
X105344936Y-103904596D01*
X105324341Y-104139999D01*
X105324341Y-104140000D01*
X105344936Y-104375403D01*
X105344938Y-104375413D01*
X105406094Y-104603655D01*
X105406096Y-104603659D01*
X105406097Y-104603663D01*
X105501664Y-104808606D01*
X105505965Y-104817830D01*
X105505967Y-104817834D01*
X105641501Y-105011395D01*
X105641506Y-105011402D01*
X105808597Y-105178493D01*
X105808603Y-105178498D01*
X105994158Y-105308425D01*
X106037783Y-105363002D01*
X106044977Y-105432500D01*
X106013454Y-105494855D01*
X105994158Y-105511575D01*
X105808597Y-105641505D01*
X105641505Y-105808597D01*
X105505965Y-106002169D01*
X105505964Y-106002171D01*
X105406098Y-106216335D01*
X105406094Y-106216344D01*
X105344938Y-106444586D01*
X105344936Y-106444596D01*
X105324341Y-106679999D01*
X105324341Y-106680000D01*
X105344936Y-106915403D01*
X105344938Y-106915413D01*
X105406094Y-107143655D01*
X105406096Y-107143659D01*
X105406097Y-107143663D01*
X105505965Y-107357829D01*
X105505965Y-107357830D01*
X105505967Y-107357834D01*
X105614281Y-107512521D01*
X105641501Y-107551396D01*
X105641506Y-107551402D01*
X105763818Y-107673714D01*
X105797303Y-107735037D01*
X105792319Y-107804729D01*
X105750447Y-107860662D01*
X105719471Y-107877577D01*
X105587912Y-107926646D01*
X105587906Y-107926649D01*
X105472812Y-108012809D01*
X105472809Y-108012812D01*
X105386649Y-108127906D01*
X105386645Y-108127913D01*
X105336403Y-108262620D01*
X105336401Y-108262627D01*
X105330000Y-108322155D01*
X105330000Y-108970000D01*
X106056231Y-108970000D01*
X106123270Y-108989685D01*
X106169025Y-109042489D01*
X106178969Y-109111647D01*
X106175208Y-109128936D01*
X106170000Y-109146672D01*
X106170000Y-109293327D01*
X106175208Y-109311064D01*
X106175208Y-109380934D01*
X106137434Y-109439712D01*
X106073879Y-109468738D01*
X106056231Y-109470000D01*
X105330000Y-109470000D01*
X105330000Y-110117844D01*
X105336401Y-110177372D01*
X105336403Y-110177379D01*
X105386645Y-110312086D01*
X105386649Y-110312093D01*
X105472809Y-110427187D01*
X105472812Y-110427190D01*
X105587906Y-110513350D01*
X105587913Y-110513354D01*
X105719470Y-110562421D01*
X105775403Y-110604292D01*
X105799821Y-110669756D01*
X105784970Y-110738029D01*
X105763819Y-110766284D01*
X105641503Y-110888600D01*
X105505965Y-111082169D01*
X105505964Y-111082171D01*
X105406098Y-111296335D01*
X105406094Y-111296344D01*
X105344938Y-111524586D01*
X105344936Y-111524596D01*
X105324341Y-111759999D01*
X105324341Y-111760000D01*
X105344936Y-111995403D01*
X105344938Y-111995413D01*
X105406094Y-112223655D01*
X105406096Y-112223659D01*
X105406097Y-112223663D01*
X105505964Y-112437830D01*
X105505965Y-112437830D01*
X105505967Y-112437834D01*
X105641501Y-112631395D01*
X105641506Y-112631402D01*
X105808597Y-112798493D01*
X105808603Y-112798498D01*
X105994158Y-112928425D01*
X106037783Y-112983002D01*
X106044977Y-113052500D01*
X106013454Y-113114855D01*
X105994158Y-113131575D01*
X105808597Y-113261505D01*
X105641505Y-113428597D01*
X105505965Y-113622169D01*
X105505964Y-113622171D01*
X105406098Y-113836335D01*
X105406094Y-113836344D01*
X105344938Y-114064586D01*
X105344936Y-114064596D01*
X105324341Y-114299999D01*
X105324341Y-114300000D01*
X105344936Y-114535403D01*
X105344938Y-114535413D01*
X105406094Y-114763655D01*
X105406096Y-114763659D01*
X105406097Y-114763663D01*
X105505964Y-114977829D01*
X105505965Y-114977830D01*
X105505967Y-114977834D01*
X105641501Y-115171395D01*
X105641506Y-115171402D01*
X105808597Y-115338493D01*
X105808603Y-115338498D01*
X105994158Y-115468425D01*
X106037783Y-115523002D01*
X106044977Y-115592500D01*
X106013454Y-115654855D01*
X105994158Y-115671575D01*
X105808597Y-115801505D01*
X105641505Y-115968597D01*
X105505965Y-116162169D01*
X105505964Y-116162171D01*
X105406098Y-116376335D01*
X105406094Y-116376344D01*
X105344938Y-116604586D01*
X105344936Y-116604596D01*
X105324341Y-116839999D01*
X105324341Y-116840000D01*
X105344936Y-117075403D01*
X105344938Y-117075413D01*
X105406094Y-117303655D01*
X105406096Y-117303659D01*
X105406097Y-117303663D01*
X105470209Y-117441151D01*
X105505965Y-117517830D01*
X105505967Y-117517834D01*
X105641501Y-117711395D01*
X105641506Y-117711402D01*
X105808597Y-117878493D01*
X105808603Y-117878498D01*
X105994158Y-118008425D01*
X106037783Y-118063002D01*
X106044977Y-118132500D01*
X106013454Y-118194855D01*
X105994158Y-118211575D01*
X105808597Y-118341505D01*
X105641505Y-118508597D01*
X105505965Y-118702169D01*
X105505964Y-118702171D01*
X105406098Y-118916335D01*
X105406094Y-118916344D01*
X105344938Y-119144586D01*
X105344936Y-119144596D01*
X105324341Y-119379999D01*
X105324341Y-119380000D01*
X105344936Y-119615403D01*
X105344938Y-119615413D01*
X105406094Y-119843655D01*
X105406096Y-119843659D01*
X105406097Y-119843663D01*
X105470209Y-119981151D01*
X105505965Y-120057830D01*
X105505967Y-120057834D01*
X105601102Y-120193700D01*
X105641501Y-120251396D01*
X105641506Y-120251402D01*
X105763818Y-120373714D01*
X105797303Y-120435037D01*
X105792319Y-120504729D01*
X105750447Y-120560662D01*
X105719471Y-120577577D01*
X105587912Y-120626646D01*
X105587906Y-120626649D01*
X105472812Y-120712809D01*
X105472809Y-120712812D01*
X105386649Y-120827906D01*
X105386645Y-120827913D01*
X105336403Y-120962620D01*
X105336401Y-120962627D01*
X105330000Y-121022155D01*
X105330000Y-121670000D01*
X106056231Y-121670000D01*
X106123270Y-121689685D01*
X106169025Y-121742489D01*
X106178969Y-121811647D01*
X106175208Y-121828936D01*
X106170000Y-121846672D01*
X106170000Y-121993327D01*
X106175208Y-122011064D01*
X106175208Y-122080934D01*
X106137434Y-122139712D01*
X106073879Y-122168738D01*
X106056231Y-122170000D01*
X105330000Y-122170000D01*
X105330000Y-122817844D01*
X105336401Y-122877372D01*
X105336403Y-122877379D01*
X105386645Y-123012086D01*
X105386649Y-123012093D01*
X105472809Y-123127187D01*
X105472812Y-123127190D01*
X105587906Y-123213350D01*
X105587913Y-123213354D01*
X105719470Y-123262421D01*
X105775403Y-123304292D01*
X105799821Y-123369756D01*
X105784970Y-123438029D01*
X105763819Y-123466284D01*
X105641503Y-123588600D01*
X105505965Y-123782169D01*
X105505964Y-123782171D01*
X105406098Y-123996335D01*
X105406094Y-123996344D01*
X105344938Y-124224586D01*
X105344936Y-124224596D01*
X105324341Y-124459999D01*
X105324341Y-124460000D01*
X105344936Y-124695403D01*
X105344938Y-124695413D01*
X105406094Y-124923655D01*
X105406096Y-124923659D01*
X105406097Y-124923663D01*
X105470321Y-125061391D01*
X105505965Y-125137830D01*
X105505967Y-125137834D01*
X105641501Y-125331395D01*
X105641506Y-125331402D01*
X105808597Y-125498493D01*
X105808603Y-125498498D01*
X105994158Y-125628425D01*
X106037783Y-125683002D01*
X106044977Y-125752500D01*
X106013454Y-125814855D01*
X105994158Y-125831575D01*
X105808597Y-125961505D01*
X105641505Y-126128597D01*
X105505965Y-126322169D01*
X105505964Y-126322171D01*
X105406098Y-126536335D01*
X105406094Y-126536344D01*
X105344938Y-126764586D01*
X105344936Y-126764596D01*
X105324341Y-126999999D01*
X105324341Y-127000000D01*
X100118140Y-127000000D01*
X100037123Y-126963537D01*
X100037116Y-126963534D01*
X100037104Y-126963530D01*
X99719449Y-126864546D01*
X99719445Y-126864545D01*
X99719441Y-126864544D01*
X99392142Y-126804564D01*
X99392141Y-126804563D01*
X99392136Y-126804563D01*
X99088800Y-126786215D01*
X99060000Y-126784473D01*
X99059999Y-126784473D01*
X98727863Y-126804563D01*
X98727857Y-126804564D01*
X98727858Y-126804564D01*
X98400559Y-126864544D01*
X98400556Y-126864544D01*
X98400550Y-126864546D01*
X98082895Y-126963530D01*
X98082879Y-126963536D01*
X98082877Y-126963537D01*
X98001862Y-126999999D01*
X97779447Y-127100100D01*
X97779445Y-127100101D01*
X97494673Y-127272251D01*
X97232744Y-127477460D01*
X96997460Y-127712744D01*
X96792251Y-127974673D01*
X96790514Y-127977547D01*
X96750615Y-128043547D01*
X96699089Y-128090734D01*
X96630230Y-128102572D01*
X96565901Y-128075303D01*
X96526527Y-128017584D01*
X96520500Y-127979396D01*
X96520500Y-82840603D01*
X96540185Y-82773564D01*
X96592989Y-82727809D01*
X96662147Y-82717865D01*
X96725703Y-82746890D01*
X96750614Y-82776450D01*
X96774210Y-82815483D01*
X96792248Y-82845322D01*
X96792250Y-82845324D01*
X96997460Y-83107255D01*
X97232744Y-83342539D01*
X97494673Y-83547748D01*
X97494678Y-83547751D01*
X97494682Y-83547754D01*
X97779443Y-83719898D01*
X98082877Y-83856463D01*
X98082890Y-83856467D01*
X98082895Y-83856469D01*
X98258099Y-83911064D01*
X98400559Y-83955456D01*
X98727858Y-84015436D01*
X99060000Y-84035527D01*
X99392142Y-84015436D01*
X99719441Y-83955456D01*
X100037123Y-83856463D01*
X100340557Y-83719898D01*
X100625318Y-83547754D01*
X100887252Y-83342542D01*
X101122542Y-83107252D01*
X101314999Y-82861599D01*
X101327748Y-82845326D01*
X101327748Y-82845324D01*
X101327754Y-82845318D01*
X101499898Y-82560557D01*
X101636463Y-82257123D01*
X101735456Y-81939441D01*
X101795436Y-81612142D01*
X101815527Y-81280000D01*
X101795436Y-80947858D01*
X101735456Y-80620559D01*
X101669407Y-80408599D01*
X101636469Y-80302895D01*
X101636467Y-80302890D01*
X101636463Y-80302877D01*
X101499898Y-79999443D01*
X101327754Y-79714682D01*
X101327751Y-79714678D01*
X101327748Y-79714673D01*
X101122539Y-79452744D01*
X100887255Y-79217460D01*
X100625326Y-79012251D01*
X100625318Y-79012246D01*
X100340557Y-78840102D01*
X100037123Y-78703537D01*
X100037116Y-78703534D01*
X100037104Y-78703530D01*
X99719449Y-78604546D01*
X99719445Y-78604545D01*
X99719441Y-78604544D01*
X99392142Y-78544564D01*
X99392141Y-78544563D01*
X99392136Y-78544563D01*
X99060000Y-78524473D01*
X98727863Y-78544563D01*
X98664786Y-78556122D01*
X98400559Y-78604544D01*
X98400556Y-78604544D01*
X98400550Y-78604546D01*
X98082895Y-78703530D01*
X98082879Y-78703536D01*
X98082877Y-78703537D01*
X98001862Y-78739999D01*
X97784336Y-78837900D01*
X97779443Y-78840102D01*
X97729994Y-78869995D01*
X97494673Y-79012251D01*
X97232744Y-79217460D01*
X96997460Y-79452744D01*
X96792251Y-79714673D01*
X96781081Y-79733151D01*
X96750615Y-79783547D01*
X96699089Y-79830734D01*
X96630230Y-79842572D01*
X96565901Y-79815303D01*
X96526527Y-79757584D01*
X96520500Y-79719396D01*
X96520500Y-76934016D01*
X96540185Y-76866977D01*
X96592989Y-76821222D01*
X96644415Y-76810016D01*
X172595419Y-76759382D01*
X172662470Y-76779022D01*
G37*
%TD.AperFunction*%
%TD*%
M02*
